<svg xmlns="http://www.w3.org/2000/svg" width="144" height="32" style="background-color:#ffffff00"><defs><radialGradient id="a"><stop stop-color="#fff" offset="0%"/><stop stop-color="#f2f2f2" stop-opacity=".2" offset="100%"/></radialGradient><linearGradient id="b" x1="50%" x2="50%" y1="-7.865%" y2="249.663%"><stop stop-color="#fff" offset="0%"/><stop stop-color="#c8c8c8" offset="100%"/></linearGradient><linearGradient id="c" x1="50%" x2="50%" y1="0%" y2="238.75%"><stop stop-color="#fff" offset="0%"/><stop stop-color="#c8c8c8" offset="100%"/></linearGradient><linearGradient id="d" x1="50%" x2="50%" y1="0%" y2="100%"><stop stop-color="#fff" offset="0%"/><stop stop-color="#c8c8c8" offset="100%"/></linearGradient><linearGradient id="e" x1="50%" x2="50%" y1="-33.333%" y2="152.083%"><stop stop-color="#fff" offset="0%"/><stop stop-color="#c8c8c8" offset="100%"/></linearGradient><linearGradient id="f" x1="50%" x2="50%" y1="0%" y2="100%"><stop stop-color="#fff" offset="0%"/><stop stop-color="#c8c8c8" offset="100%"/></linearGradient><linearGradient id="g" x1="50%" x2="50%" y1="-33.333%" y2="152.083%"><stop stop-color="#fff" offset="0%"/><stop stop-color="#c8c8c8" offset="100%"/></linearGradient><linearGradient id="h" x1="50%" x2="50%" y1="0%" y2="100%"><stop stop-color="#fff" offset="0%"/><stop stop-color="#c8c8c8" offset="100%"/></linearGradient><linearGradient id="i" x1="50%" x2="50%" y1="0%" y2="100%"><stop stop-color="#fff" offset="0%"/><stop stop-color="#c8c8c8" offset="100%"/></linearGradient><linearGradient id="j" x1="50%" x2="50%" y1="0%" y2="100%"><stop stop-color="#fff" offset="0%"/><stop stop-color="#c8c8c8" offset="100%"/></linearGradient><linearGradient id="k" x1="50%" x2="50%" y1="0%" y2="100%"><stop stop-color="#fff" offset="0%"/><stop stop-color="#c8c8c8" offset="100%"/></linearGradient><linearGradient id="l" x1="50%" x2="50%" y1="0%" y2="238.75%"><stop stop-color="#fff" offset="0%"/><stop stop-color="#c8c8c8" offset="100%"/></linearGradient><linearGradient id="m" x1="40%" x2="40%" y1="-140%" y2="98.75%"><stop stop-color="#fff" offset="0%"/><stop stop-color="#c8c8c8" offset="100%"/></linearGradient><linearGradient id="n" x1="50%" x2="50%" y1="0%" y2="238.75%"><stop stop-color="#fff" offset="0%"/><stop stop-color="#c8c8c8" offset="100%"/></linearGradient><linearGradient id="o" x1="60%" x2="60%" y1="-140%" y2="98.75%"><stop stop-color="#fff" offset="0%"/><stop stop-color="#c8c8c8" offset="100%"/></linearGradient><linearGradient id="p" x1="50%" x2="50%" y1="0%" y2="298.438%"><stop stop-color="#fff" offset="0%"/><stop stop-color="#c8c8c8" offset="100%"/></linearGradient><linearGradient id="q" x1="50%" x2="50%" y1="0%" y2="238.75%"><stop stop-color="#fff" offset="0%"/><stop stop-color="#c8c8c8" offset="100%"/></linearGradient><linearGradient id="r" x1="50%" x2="50%" y1="-200%" y2="100%"><stop stop-color="#fff" offset="0%"/><stop stop-color="#c8c8c8" offset="100%"/></linearGradient><linearGradient id="s" x1="50%" x2="50%" y1="-200%" y2="110.938%"><stop stop-color="#fff" offset="0%"/><stop stop-color="#c8c8c8" offset="100%"/></linearGradient><linearGradient id="t" x1="55%" x2="55%" y1="0%" y2="100%"><stop stop-color="#fff" offset="0%"/><stop stop-color="#c8c8c8" offset="100%"/></linearGradient><linearGradient id="u" x1="50%" x2="50%" y1="0%" y2="100%"><stop stop-color="#fff" offset="0%"/><stop stop-color="#c8c8c8" offset="99.444%"/></linearGradient></defs><g><path fill="none" stroke="#fff" d="M98.5 7.5h11"/><path fill="none" stroke="#fff" d="M98.5 3.5h11"/><path fill="none" stroke="#fff" d="M98.5 11.5h11"/><path fill="#fff" d="M108 11.5c0-.83.45-1.5 1-1.5s1 .67 1 1.5-.45 1.5-1 1.5-1-.67-1-1.5z"/><path fill="#fff" d="M104 7.5c0-.83.45-1.5 1-1.5s1 .67 1 1.5-.45 1.5-1 1.5-1-.67-1-1.5z"/><path fill="#fff" d="M108 3.5c0-.83.45-1.5 1-1.5s1 .67 1 1.5-.45 1.5-1 1.5-1-.67-1-1.5z"/></g><g><path fill="#333" stroke="#fff" d="M83 21h10v6H83z"/><g><path fill="url(#a)" d="M81 8c0-2.76 3.13-5 7-5s7 2.24 7 5-3.13 5-7 5-7-2.24-7-5z"/><path fill="#333" stroke="#fff" d="M83 5h10v6H83z"/></g></g><g><g><path fill="url(#b)" d="M73.8 4.2c1.42.68 2.4 2.12 2.4 3.8 0 2.32-1.88 4.2-4.2 4.2-2.32 0-4.2-1.88-4.2-4.2 0-1.68.98-3.12 2.4-3.8l-1.33-1.33C67.16 3.94 66 5.83 66 8c0 3.3 2.7 6 6 6s6-2.7 6-6c0-2.17-1.15-4.07-2.88-5.13L73.8 4.2z"/><path fill="url(#c)" d="M71 2h-5l5 5V2z"/></g><g fill="#a8a8b7"><path d="M73.8 20.2c1.42.68 2.4 2.12 2.4 3.8 0 2.32-1.88 4.2-4.2 4.2-2.32 0-4.2-1.88-4.2-4.2 0-1.68.98-3.12 2.4-3.8l-1.33-1.32C67.16 19.93 66 21.82 66 24c0 3.3 2.7 6 6 6s6-2.7 6-6c0-2.17-1.15-4.07-2.88-5.13L73.8 20.2zM71 18h-5l5 5v-5z"/></g></g><g><path fill="none" stroke="#b0b0b0" d="M49 2h14v12H49z" visibility="hidden"/><text x="49" y="17" fill="#fff" visibility="hidden" style="text-align:center" font-size="10" color="#fff" font-family="Arial"><tspan><![CDATA[cc]]></tspan></text><path fill="none" stroke="#fff" d="M55 7c-4.72-3.22-4.94 5.94 0 3M60 7c-4.72-3.22-4.94 5.94 0 3"/><path fill="url(#d)" d="M50 3h12v10H50V3zm-1-1v12h14V2H49z"/><path fill="none" d="M49 2h14v12H49z"/></g><g><g><path fill="url(#e)" d="M17 5h5v6h-5z"/><path fill="url(#f)" d="M21 5l4-3v12l-4-2.94V5z"/></g><g><path fill="url(#g)" d="M17 21h5v6h-5z"/><path fill="url(#h)" d="M21 21l4-3v12l-4-2.94V21z"/><path fill="none" stroke="#fff" d="M27 18s3.06-.63 3 6c-.06 6.63-3 6-3 6M26 21s2.04-.3 2 3c-.04 3.3-2 3-2 3"/></g></g><g><g><path fill="url(#i)" d="M14 8.5L3 14V3l11 5.5z"/></g><g><path fill="url(#j)" d="M3 18h3v12H3z"/><path fill="url(#k)" d="M10 18h3v12h-3z"/></g></g><g><g><path fill="url(#l)" d="M34 2h5l-5 5V2z"/><path fill="url(#m)" d="M34 14h5l-5-5v5z"/><path fill="url(#n)" d="M46 2h-5l5 5V2z"/><path fill="url(#o)" d="M46 14h-5l5-5v5z"/></g><g><path fill="url(#p)" d="M42 22h4l-4-4v4z"/><path fill="url(#q)" d="M38 22v-4l-4 4h4z"/><path fill="url(#r)" d="M38 26h-4l4 4v-4z"/><path fill="url(#s)" d="M42 26v4l4-4h-4z"/></g></g><path fill="url(#t)" d="M115 3h10v10h-10z"/><path fill="url(#u)" d="M135.23 6.15c1.03-.42 2.2.06 2.62 1.08.42 1.03-.06 2.2-1.08 2.62-1.03.42-2.2-.06-2.62-1.08-.42-1.03.06-2.2 1.08-2.62zm-1.96-4.73l2.73 2.6 2.73-2.6.1 3.76 3.75.1-2.6 2.72 2.6 2.73-3.76.1-.1 3.75-2.72-2.6-2.73 2.6-.1-3.76-3.75-.1 2.6-2.72-2.6-2.73 3.76-.1.1-3.75z"/></svg>