<svg xmlns="http://www.w3.org/2000/svg"><defs><font horiz-adv-x="1471"><font-face units-per-em="2048" ascent="1638" descent="-410"/><glyph horiz-adv-x="0"/><glyph horiz-adv-x="502"/><glyph horiz-adv-x="225"/><glyph horiz-adv-x="0"/><glyph horiz-adv-x="502"/><glyph horiz-adv-x="502"/><glyph horiz-adv-x="502"/><glyph d="M119 0v256h292V0H119zm0 502v954h292V502H119z" unicode="!" horiz-adv-x="507"/><glyph d="M140 1039v521h206v-272l-77-249H140zm327 0v521h205v-272l-77-249H467z" unicode="&quot;" horiz-adv-x="782"/><glyph d="M39 410v169h256l51 290H115v171h261l74 416h183l-73-416h192l73 416h184l-74-416h220V869H905l-51-290h226V410H825L753 0H570l72 410H450L378 0H194l72 410H39zm440 169h192l51 290H530z" unicode="#" horiz-adv-x="1198"/><glyph d="M57 449l2 5h284q0-134 62-192t156-58q91 0 139.5 48.5T749 383q0 81-46.5 132T543 610q-222 81-329 180.5T107 1071q0 168 107.5 275.5T504 1473v215h159v-218q175-26 275.5-146.5T1037 1010l-3-5H750q0 118-49 182t-132 64q-86 0-128.5-49.5T398 1070q0-78 44.5-126.5T606 848q221-87 328-186t107-277q0-173-107.5-277.5T643-16v-198H484v197Q297 2 175 115.5T57 449z" unicode="$" horiz-adv-x="1107"/><glyph d="M49 1099v77q0 129 83.5 215t232.5 86q151 0 234-85.5t83-215.5v-77q0-129-83-214t-232-85q-150 0-234 85t-84 214zm194 0q0-58 32-97.5t92-39.5q58 0 90 39.5t32 97.5v77q0 58-32.5 98.5T365 1315t-90.5-40.5T243 1176v-77zm65-915l711 1138 142-75L450 109zm437 96v77q0 128 84 214t233 86q150 0 233.5-85.5T1379 357v-77q0-130-83-215t-232-85q-150 0-234.5 85.5T745 280zm194 0q0-57 34.5-97.5T1064 142q65 0 93 37.5t28 100.5v77q0 57-32 97.5t-91 40.5q-60 0-91.5-40.5T939 357v-77z" unicode="%" horiz-adv-x="1429"/><glyph d="M45 392q0 118 65 203.5T308 774q-68 92-101.5 168T173 1097q0 173 108 276.5T570 1477q159 0 258.5-98.5T928 1140q0-98-49-179T745 819l-93-66 276-322q36 60 56 130t20 148h218q0-138-34-254t-104-206L1292 5l-2-5H966l-77 89Q804 34 714 6.5T521-21Q303-21 174 93.5T45 392zm292 15q0-89 55-146.5T536 203q53 0 106 13.5T744 257L444 605l-19-13q-51-48-69.5-93.5T337 407zm97 693q0-43 21.5-88.5T520 911l86 56q56 36 75.5 74t19.5 83q0 50-36.5 89t-95.5 39q-65 0-100-43.5T434 1100z" unicode="&" horiz-adv-x="1278"/><glyph d="M139 1008v552h199v-269l-70-283H139z" unicode="'" horiz-adv-x="449"/><glyph d="M89 570v22q0 392 152 665.5T585 1612h6l53-146q-131-98-220-316t-89-556v-26q0-339 89-556.5T644-307l-53-143h-6Q393-369 241-96T89 570z" unicode="(" horiz-adv-x="685"/><glyph d="M61-307q129 98 219 317t90 558v26q0 336-91 556.5T61 1470l54 142h6q194-80 352-359t158-661v-22q0-383-158-661.5T121-450h-6z" unicode=")" horiz-adv-x="712"/><glyph d="M34 1055l57 177 297-123-18 347h188l-20-353 291 120 56-180-306-89 200-265-151-110-175 290-173-281-152 106 208 272z" unicode="*" horiz-adv-x="914"/><glyph d="M49 560v252h362v394h277V812h359V560H688V146H411v414H49z" unicode="+" horiz-adv-x="1098"/><glyph d="M58-286q39 70 60 144.5T139 25v218h262l-1-204q0-102-57.5-216T202-364z" unicode="," horiz-adv-x="503"/><glyph d="M131 510v225h564V510H131z" unicode="-" horiz-adv-x="815"/><glyph d="M129 0v256h291V0H129z" unicode="." horiz-adv-x="522"/><glyph d="M-23-125l534 1581h216L193-125H-23z" unicode="/" horiz-adv-x="748"/><glyph d="M97 567v321q0 288 132.5 438.5T589 1477q226 0 359.5-150.5T1082 888V567q0-289-132.5-438.5T591-21q-228 0-361 149.5T97 567zm291-28q0-176 51.5-256T591 203q98 0 149 80t51 256v379q0 173-52 253.5T589 1252q-99 0-150-80t-51-254V539z" unicode="0" horiz-adv-x="1170"/><glyph d="M62 1191v167l540 98V205l246-30V0H65v175l246 30v986H62z" unicode="1" horiz-adv-x="905"/><glyph d="M50 1007q-5 197 129.5 333.5T542 1477q225 0 354-117t129-312q0-132-72.5-244T712 512L453 229l2-5h378l12 144h222V0H73v191l471 505q102 117 145 197.5t43 149.5q0 92-49.5 150.5T542 1252q-101 0-153.5-68.5T336 1001H52z" unicode="2" horiz-adv-x="1132"/><glyph d="M57 390l2 6h283q0-84 60-138.5T554 203q101 0 159.5 56T772 411q0 115-57.5 168.5T545 633H381v219h164q104 0 154 54.5t50 151.5q0 88-50 141t-145 53q-82 0-138-48t-56-126H77l-2 6q-6 171 131 282t340 111q226 0 360.5-108t134.5-308q0-95-60-180.5T816 747q121-43 184.5-132t63.5-207q0-200-145.5-314.5T546-21Q343-21 197.5 86.5T57 390z" unicode="3" horiz-adv-x="1112"/><glyph d="M36 491l605 965h294V542h165V348H935V205l155-30V0H488v175l156 30v143H50zm273 51h335v525l-6 2-24-42z" unicode="4" horiz-adv-x="1154"/><glyph d="M67 390l2 5 280 14q0-97 55-151.5T548 203q102 0 151 73t49 189q0 126-52 202t-155 76q-83 0-127.5-31T350 628L92 645l84 811h838v-332H834l-26 98H416l-41-336q41 30 98 49.5T599 956q210 3 325-127t115-362q0-210-126.5-349T548-21Q348-21 205 88.5T67 390z" unicode="5" horiz-adv-x="1092"/><glyph d="M91 569v256q0 309 163.5 480.5T675 1477q82 0 151.5-15.5T966 1416l-51-213q-63 22-116 33.5T677 1248q-130 0-208.5-95T389 873l3-5q49 51 124.5 80T685 977q195 0 306-138.5T1102 485q0-220-137-363T611-21q-230 0-375 156.5T91 569zm291-7q0-173 62.5-266T611 203q90 0 144.5 82.5T810 485q0 121-55 196t-147 75q-81 0-138-26t-88-71v-97z" unicode="6" horiz-adv-x="1144"/><glyph d="M49 1087v369h1029v-225Q844 957 758.5 720T636 148L622 0H330l14 148q34 321 146 589.5T797 1231H284l-11-144H49z" unicode="7" horiz-adv-x="1107"/><glyph d="M67 398q0 118 66.5 208.5T316 746q-102 47-159 131t-57 193q0 194 127 300.5T562 1477t336-106.5 128-300.5q0-109-58-193T809 746q116-49 183-140t67-208q0-202-137-310.5T564-21Q342-21 204.5 87.5T67 398zm292 20q0-100 56-157.5T564 203q91 0 147.5 58T768 418q0 98-57.5 157T562 634t-147-59-56-157zm34 639q0-91 45-144.5T564 859q79 0 124.5 53.5T734 1057q0 88-46.5 141.5T562 1252q-80 0-124.5-52.5T393 1057z" unicode="8" horiz-adv-x="1115"/><glyph d="M63 957q0 221 138.5 370.5T552 1477q223 0 362-153.5T1053 892V576q0-283-154.5-440T501-21q-76 0-156.5 15.5T196 40l33 211q67-25 130-36.5T501 203q117 0 189 89.5T762 561v22q-49-63-117-95.5T499 455q-204 0-320 133.5T63 957zm292 0q0-132 49.5-210T548 669q73 0 127.5 27.5T762 770v156q0 160-56 243t-152 83q-88 0-143.5-86.5T355 957z" unicode="9" horiz-adv-x="1141"/><glyph d="M91 0v256h291V0H91zm0 0zm0 825v256h291V825H91z" unicode=":" horiz-adv-x="455"/><glyph d="M28 0zm0-286q39 70 60 144.5T109 25v218h262l-1-204q0-102-57.5-216T172-364zM90 825v256h291V825H90z" unicode=";" horiz-adv-x="453"/><glyph d="M58 436v227l861 366V757L343 550v-6l576-203V69z" unicode="<" horiz-adv-x="1012"/><glyph d="M123 332v229h896V332H123zm0 431v229h896V763H123z" unicode="=" horiz-adv-x="1123"/><glyph d="M104 60v270l585 209v6L104 751v269l871-366V427z" unicode=">" horiz-adv-x="1031"/><glyph d="M34 1081q-3 192 126.5 294T498 1477q224 0 351.5-113.5T977 1055q0-127-74.5-235T716 639q-61-47-80-94.5T617 414H326q1 140 41.5 205T529 777q71 58 113.5 125t42.5 150q0 92-48.5 144T498 1248q-74 0-125.5-44T320 1075H36zM325 0v250h294V0H325z" unicode="?" horiz-adv-x="985"/><glyph d="M67 478q18 427 255 683.5T948 1418q387 0 593-242.5T1731 513q-9-218-128-376T1247-21q-78 0-135 44t-81 123Q987 64 921.5 23T768-18q-141 0-216.5 119T495 416q25 254 144 407t288 153q116 0 186-26t155-80l-3-4h5l-51-573q-7-94 14-129.5t57-35.5q115 0 184.5 109t77.5 276q16 354-136.5 551.5T944 1262q-304 0-484.5-213T264 478Q246 123 409.5-82T879-287q85 0 175.5 20t155.5 50l38-147q-67-42-170.5-65.5T875-453q-396 0-610.5 249T67 478zm654-62q-10-127 18.5-192.5T832 158q56 0 101.5 26.5T1015 281q0 2 .5 6t.5 6l44 496q-23 7-46.5 11t-47.5 4q-111 0-169-96.5T721 416z" unicode="@" horiz-adv-x="1806"/><glyph d="M41 0v175l104 15 443 1266h299l440-1266 104-15V0H935v175l101 18-64 200H500l-64-200 101-18V0H41zm528 608h334l-164 513h-6z" unicode="A"/><glyph d="M56 0v175l155 30v1045l-155 30v176h647q257 0 401-100t144-299q0-101-53.5-180.5T1039 757q131-28 196.5-120t65.5-213q0-209-138-316.5T772 0H56zm447 224h269q116 0 177 50.5t61 149.5q0 107-52 163.5T794 644H503V224zm0 622h210q117 0 180 48t63 140q0 101-63.5 149T703 1231H503V846z" unicode="B" horiz-adv-x="1354"/><glyph d="M52 703v49q0 317 186 521t481 204q169 0 305-61.5t225-162.5V965h-217l-30 194q-43 43-108.5 68T739 1252q-190 0-292.5-138T344 754v-51q0-222 102-361t288-139q86 0 157.5 25t110.5 68l30 194h217V202q-88-102-224.5-162.5T719-21q-293 0-480 203T52 703z" unicode="C" horiz-adv-x="1327"/><glyph d="M56 0v175l155 30v1045l-155 30v176h655q267 0 440-170.5T1324 848V607q0-268-173-437.5T711 0H56zm447 224h193q157 0 246 106t89 277v243q0 169-89 275t-246 106H503V224z" unicode="D" horiz-adv-x="1411"/><glyph d="M56 0v175l155 30v1045l-155 30v176h1150v-399H982l-13 174H503V865h493V640H503V224h470l13 174h222V0H56z" unicode="E" horiz-adv-x="1308"/><glyph d="M56 0v175l155 30v1045l-155 30v176h1159v-399H991l-13 174H503V830h510V605H503V205l156-30V0H56z" unicode="F" horiz-adv-x="1265"/><glyph d="M47 690v50q0 327 182.5 532T706 1477q171 0 312.5-54.5T1254 1275V982h-216l-41 195q-40 34-105.5 54.5T741 1252q-191 0-297-141T338 742v-52q0-222 104-354.5T742 203q88 0 142.5 15t85.5 35v247l-208 16v205h501V162q-71-70-207-126.5T712-21q-295 0-480 197.5T47 690z" unicode="G" horiz-adv-x="1353"/><glyph d="M56 0v175l155 30v1045l-155 30v176h603v-176l-156-30V830h594v420l-156 30v176h603v-176l-156-30V205l156-30V0H941v175l156 30v400H503V205l156-30V0H56z" unicode="H" horiz-adv-x="1601"/><glyph d="M55 0v175l156 30v1045l-156 30v176h603v-176l-156-30V205l156-30V0H55z" unicode="I" horiz-adv-x="713"/><glyph d="M35 417l2 6h284q0-115 55-167.5T524 203q81 0 137.5 62.5T718 437v813l-156 30v176h603v-176l-156-30V437q0-211-137.5-334.5T524-21Q296-21 163 90 35 197 35 401v16z" unicode="J" horiz-adv-x="1192"/><glyph d="M56 0v175l155 30v1045l-155 30v176h595v-176l-148-30V861h127l280 407-86 12v176h577v-176l-158-27-358-478 402-575 146-25V0H856v175l90 12-280 421H503V205l148-30V0H56z" unicode="K" horiz-adv-x="1464"/><glyph d="M56 0v175l155 30v1045l-155 30v176h603v-176l-156-30V224h411l14 183h223V0H56z" unicode="L" horiz-adv-x="1200"/><glyph d="M56 0v175l155 30v1045l-155 30v176h536L963 383h6l374 1073h538v-176l-156-30V205l156-30V0h-603v175l155 30v229l28 643-6 1L1065 0H869L481 1074l-6-1 28-639V205l156-30V0H56z" unicode="M" horiz-adv-x="1929"/><glyph d="M56 0v175l155 30v1045l-155 30v176h447l588-980 6 1v773l-156 30v176h603v-176l-156-30V0h-291L509 980l-6-1V205l156-30V0H56z" unicode="N" horiz-adv-x="1582"/><glyph d="M67 717v22q0 318 181 528t476 210q296 0 479.5-210T1387 739v-22q0-320-183-529T725-21q-295 0-476.5 209T67 717zm292 0q0-230 91.5-370.5T725 206q185 0 278 140.5t93 370.5v24q0 226-94 367t-278 141-274.5-140T359 741v-24z" unicode="O" horiz-adv-x="1448"/><glyph d="M56 0v175l155 30v1045l-155 30v176h693q250 0 394.5-128.5T1288 991q0-209-144.5-336T749 528H503V205l156-30V0H56zm447 753h246q122 0 184.5 66.5T996 989q0 105-62.5 173.5T749 1231H503V753z" unicode="P" horiz-adv-x="1325"/><glyph d="M67 717v22q0 318 181 528t476 210q296 0 479.5-210T1387 739v-22q0-190-68.5-347T1127 114l310-193-206-159L882-3q-39-8-78.5-13T725-21q-295 0-476.5 209T67 717zm292 0q0-230 91.5-370.5T725 206q185 0 278 140.5t93 370.5v24q0 226-94 367t-278 141-274.5-140T359 741v-24z" unicode="Q" horiz-adv-x="1449"/><glyph d="M56 0v175l155 30v1045l-155 30v176h654q248 0 389-113.5t141-313.5q0-110-59-191t-173-131q129-38 185.5-126.5T1250 361v-74q0-48 19-74.5t63-31.5l36-5V0h-151q-143 0-201 77t-58 199v83q0 106-56.5 166.5T742 589H503V205l156-30V0H56zm447 814h202q122 0 183 52t61 150-60.5 156.5T710 1231H503V814z" unicode="R" horiz-adv-x="1408"/><glyph d="M97 1071q0 177 150 289.5T624 1476q168 0 306-51t232-136V991H943l-38 200q-38 24-111 42t-155 18q-120 0-185.5-50.5T388 1070q0-74 68.5-121.5T693 848q241-67 365.5-177T1183 382q0-187-148-295T645-21q-173 0-312.5 55T100 186v304h226l31-207q44-36 119.5-59.5T645 200q120 0 182.5 49T890 380q0 84-59.5 135T622 611q-259 75-392 178T97 1071z" unicode="S" horiz-adv-x="1242"/><glyph d="M40 1068v388h1298v-388h-224l-12 163H834V205l156-30V0H386v175l156 30v1026H275l-12-163H40z" unicode="T" horiz-adv-x="1377"/><glyph d="M39 1280v176h603v-176l-156-30V490q0-144 77.5-215.5T776 203q137 0 215 71t78 216v760l-155 30v176h603v-176l-156-30V490q0-245-161.5-378T776-21q-261 0-421.5 133T194 490v760z" unicode="U" horiz-adv-x="1547"/><glyph d="M34 1280v176h532v-176l-111-20 258-873 18-80h6l17 78 259 875-110 20v176h532v-176l-122-16L884 0H584L154 1264z" unicode="V" horiz-adv-x="1468"/><glyph d="M29 1280v176h536v-176l-133-23 167-798 6-1 273 998h215l275-998 6 1 166 798-133 23v176h535v-176l-120-15L1527 0h-271L989 961h-6L716 0H445L148 1265z" unicode="W" horiz-adv-x="1972"/><glyph d="M33 0v175l123 24 385 535-375 521-122 25v176h559v-176l-119-13 225-357 226 357-117 13v176h561v-176l-122-25-375-521 393-534 129-25V0H831v175l116 12-234 368-235-368 117-12V0H33z" unicode="X" horiz-adv-x="1438"/><glyph d="M36 1280v176h551v-176l-119-17 226-478h6l226 478-118 17v176h551v-176l-124-20-396-748V205l156-30V0H392v175l156 30v322l-389 733z" unicode="Y" horiz-adv-x="1398"/><glyph d="M74 0v152l710 1079H321l-23-176H75l22 401h1046v-146L430 224h507l24 176h222L1161 0H74z" unicode="Z" horiz-adv-x="1226"/><glyph d="M139-336v2027h433v-216H431V-120h141v-216H139z" unicode="[" horiz-adv-x="578"/><glyph d="M12 1456h288L908-125H620z" unicode="\" horiz-adv-x="854"/><glyph d="M11-120h143v1595H11v216h434V-336H11v216z" unicode="]" horiz-adv-x="569"/><glyph d="M45 729l299 727h212l299-727H624l-165 413-8 34h-6l-7-34-162-413H45z" unicode="^" horiz-adv-x="884"/><glyph d="M92 0h910v-186H92V0z" unicode="_" horiz-adv-x="1094"/><glyph d="M64 1472l2 6h310l196-266H336z" unicode="`" horiz-adv-x="622"/><glyph d="M74 301q0 152 122 235t358 83h149v106q0 78-45 121t-133 43q-50 0-89-11.5T373 850l-19-116H134l1 240q80 54 183.5 91t225.5 37q201 0 326.5-98.5T996 723V276q0-25 .5-47t3.5-42l89-12V0H752q-12 27-21 55.5T717 113q-52-60-126.5-97T420-21q-159 0-252.5 86.5T74 301zm291 11q0-55 35.5-86t98.5-31q66 0 120 28.5t84 71.5v165H554q-93 0-141-43.5T365 312z" unicode="a" horiz-adv-x="1125"/><glyph d="M-22 1384v176h446V967q47 65 112.5 100t150.5 35q206 0 314-155.5T1109 532v-21q0-242-108-387T689-21q-95 0-165 39.5T406 133L385 0H133v1354zM424 308q27-50 74.5-76T615 206q113 0 158 79.5T818 511v21q0 158-46.5 250.5T613 875q-68 0-115-28.5T424 765V308z" unicode="b" horiz-adv-x="1181"/><glyph d="M67 525v30q0 239 134.5 393T585 1102q131 0 235-39t173-110l4-289H760l-48 169q-22 19-54 31.5T585 877q-124 0-175-90t-51-232v-30q0-145 47-233.5T571 203q78 0 125 45.5T743 370h264l3-6v-10q0-156-123-264Q760-20 571-21q-242 0-373 153T67 525z" unicode="c" horiz-adv-x="1079"/><glyph d="M67 511v21q0 256 111 413t312 157q81 0 146-35.5T750 966v388l-156 30v176h448V205l140-30V0H789l-22 132Q716 57 646.5 18T488-21q-200 0-310.5 146T67 511zm292 0q0-142 47.5-223.5T562 206q64 0 111 26t77 75v459q-30 52-76.5 80.5T564 875q-107 0-156-95t-49-248v-21z" unicode="d" horiz-adv-x="1212"/><glyph d="M67 510v40q1 241 133 397 132 155 352 155h3q219 0 340-132t121-357V454H370l-2-6q8-107 71.5-176T612 203q97 0 161 19.5T913 284l79-180q-67-53-173.5-89T581-21q-234 0-374 150T67 510zm302 142l3-5h358v26q0 93-43.5 148.5T555 877q-81 0-128-62t-58-163z" unicode="e" horiz-adv-x="1091"/><glyph d="M59 877v205h161v120q0 182 105 280.5t295 98.5q37 0 75.5-5.5T780 1560l-25-217q-24 4-46.5 7t-52.5 3q-71 0-107.5-39T512 1202v-120h215V877H512V205l141-30V0H79v175l141 30v672H59z" unicode="f" horiz-adv-x="762"/><glyph d="M81 511v21q0 256 111.5 413T505 1102q91 0 160-40.5T783 946l21 136h254V32q0-214-134.5-341.5T554-437q-82 0-174 22.5T210-353l54 205q70-30 140-47.5T552-213q107 0 160 65t53 181v71q-48-61-113-93T503-21q-199 0-310.5 146.5T81 511zm292 0q0-142 48-223.5T577 206q67 0 113.5 24.5T765 302v470q-28 49-74.5 76T579 875q-107 0-156.5-95T373 532v-21z" unicode="g" horiz-adv-x="1170"/><glyph d="M32 1384v176h447V944q51 75 125 116.5t164 41.5q170 0 266.5-112.5T1131 642V205l140-30V0H713v175l126 30v439q0 126-44.5 178.5T662 875q-61 0-106.5-22T479 791V205l126-30V0H47v175l141 30v1149z" unicode="h" horiz-adv-x="1302"/><glyph d="M39 906v176h448V205l140-30V0H54v175l141 30v671zm156 435v219h292v-219H195z" unicode="i" horiz-adv-x="660"/><glyph d="M-33-420l14 223q22-6 45-9t50-3q59 0 91.5 41.5T200-40v916L44 906v176h448V-40q0-190-101-293.5T111-437q-41 0-74.5 4T-33-420zm227 1763v217h292v-217H194z" unicode="j" horiz-adv-x="599"/><glyph d="M32 1384v176h447V656h65l168 237-95 13v176h532V906l-128-29-195-268 273-411 111-23V0H710v175l60 10-166 268H479V205l126-30V0H47v175l141 30v1149z" unicode="k" horiz-adv-x="1249"/><glyph d="M32 1384v176h448V205l141-30V0H47v175l141 30v1149z" unicode="l" horiz-adv-x="653"/><glyph d="M29 906v176h427l12-143q52 78 130.5 120.5T780 1102q104 0 178-46t112-139q50 87 130 136t188 49q160 0 252.5-110.5T1733 655V205l141-30V0h-559v175l126 30v451q0 123-40 171t-119 48q-62 0-107.5-27.5T1102 771q0-19 1-32.5t1-27.5V205l118-30V0H695v175l118 30v451q0 120-40 169.5T653 875q-59 0-103.5-22.5T476 789V205l126-30V0H44v175l141 30v671z" unicode="m" horiz-adv-x="1905"/><glyph d="M32 906v176h427l13-155q54 83 133 129t177 46q164 0 256-103t92-323V205l140-30V0H712v175l125 30v470q0 109-44 154.5T660 875q-58 0-104-23.5T479 785V205l118-30V0H47v175l140 30v671z" unicode="n" horiz-adv-x="1300"/><glyph d="M63 530v21q0 242 135.5 396.5T573 1102q240 0 375.5-154T1084 551v-21q0-244-135.5-397.5T575-21q-241 0-376.5 153.5T63 530zm292 0q0-148 52-237.5T575 203q113 0 165.5 90T793 530v21q0 144-53 235t-167 91-166-91-52-235v-21z" unicode="o" horiz-adv-x="1148"/><glyph d="M41 906v176h424l14-126q48 70 115 108t156 38q201 0 312-157t111-413v-21q0-240-111-386T752-21q-85 0-151 31.5T488 103v-313l141-30v-176H56v176l141 30V876zm447-609q27-46 73.5-70T676 203q106 0 155.5 83T881 511v21q0 153-51 248t-156 95q-66 0-112.5-27T488 771V297z" unicode="p" horiz-adv-x="1240"/><glyph d="M67 511v21q0 256 111 413t312 157q88 0 156-39t117-111l23 130h253V-210l141-30v-176H606v176l141 30v310Q699 40 634.5 9.5T488-21q-200 0-310.5 146T67 511zm292 0q0-143 47.5-225.5T562 203q64 0 110 23.5t75 69.5v481q-29 48-74.5 74T564 877q-107 0-156-95.5T359 532v-21z" unicode="q" horiz-adv-x="1154"/><glyph d="M70 906v176h427l13-158q38 84 98 131t139 47q23 0 48.5-3.5t42.5-8.5l-31-266-120 3q-64 0-106-25t-64-71V205l140-30V0H85v175l140 30v671z" unicode="r" horiz-adv-x="862"/><glyph d="M97 767q0 136 112 234.5t319 98.5q126 0 238.5-34T943 979l3-269H750l-31 135q-30 24-75.5 40T543 901q-77 0-122-34.5T376 780q0-49 43-81.5T591 641q201-40 298-117.5T986 310q0-146-125.5-238.5T530-21q-125 0-229.5 36.5T115 120l-3 243h204l40-141q26-22 71-32.5t94-10.5q89 0 135.5 32t46.5 87q0 48-47 83t-173 62q-191 39-288.5 115.5T97 767z" unicode="s" horiz-adv-x="1054"/><glyph d="M44 877v205h159v265h291v-265h190V877H494V326q0-63 26-90t70-27q30 0 52.5 2.5T693 220L718 9q-49-15-97-22.5T517-21q-151 0-232.5 83T203 325v552H44z" unicode="t" horiz-adv-x="764"/><glyph d="M33 906v176h411V427q0-118 39.5-169.5T601 206q69 0 119.5 22.5T803 293v583l-128 30v176h420V205l131-30V0H839l-19 137Q768 61 691.5 20T517-21Q346-21 249 88.5T152 429v447z" unicode="u" horiz-adv-x="1278"/><glyph d="M31 906v176h491V906l-102-19 143-484 19-102h6l21 102 141 483-104 20v176h491V906l-94-15L724 0H445L125 891z" unicode="v" horiz-adv-x="1167"/><glyph d="M39 906v176h490V906l-115-22 102-495h6l202 693h196l204-695h6l101 496-116 23v176h490V906l-109-14L1270 0h-244L825 644h-6L618 0H375L148 892z" unicode="w" horiz-adv-x="1642"/><glyph d="M32 0v175l101 16 294 356-284 342-101 17v176h487V913l-99-12 164-208 161 208-101 12v169h489V906l-98-17-278-342 293-356 102-16V0H667v168l99 12-168 218-171-219 87-11V0H32z" unicode="x" horiz-adv-x="1191"/><glyph d="M26 906v176h530V906l-121-20 148-432 15-78 6-1 171 511-122 20v176h530V906l-101-15L684-162q-47-117-125.5-196T322-437q-37 0-69.5 6T176-414l34 213q14-2 29-4t26-2q73 0 112 35.5T437-83l33 82-343 891z" unicode="y" horiz-adv-x="1212"/><glyph d="M88 0v172l515 684H338l-11-143H103v369h866V915L450 224h302l12 144h223V0H88z" unicode="z" horiz-adv-x="1070"/><glyph d="M39 518v201q91 0 134.5 54.5T217 929v203q0 171 82.5 290.5T577 1597l56-157q-86-31-120.5-110.5T478 1132V929q0-104-45-184.5T298 619q90-47 135-127.5T478 309V106q0-118 34.5-197.5T633-202l-56-158q-195 55-277.5 175T217 106v203q0 99-43.5 154T39 518z" unicode="{" horiz-adv-x="654"/><glyph d="M132-270v1726h175V-270H132z" unicode="|" horiz-adv-x="428"/><glyph d="M11-202q84 31 119 110.5T165 106v203q0 104 46 184t140 125q-94 45-140 125.5T165 929v203q0 118-35 197.5T11 1440l56 157q194-55 277-174.5t83-290.5V929q0-101 43-155.5T604 719V518q-91 0-134-55t-43-154V106q0-171-83-291T67-360z" unicode="}" horiz-adv-x="651"/><glyph d="M100 448q0 162 86.5 269.5T410 825q83 0 158.5-33.5T719 692q49-45 87-64.5t81-19.5q51 0 88 52t37 125l202-27q0-161-88.5-270.5T902 378q-85 0-157 31.5T595 511q-50 44-88 64t-82 20q-52 0-88-51t-36-122z" unicode="~" horiz-adv-x="1323"/><glyph d="M130-374v953h293v-953H130zm0 1199v257h293V825H130z" unicode="¡" horiz-adv-x="524"/><glyph d="M80 525v30q0 203 100 348.5T467 1089v229h200v-219q107-10 193-47.5t146-98.5l4-289H773l-48 169q-22 19-54 31.5T598 877q-124 0-175-90t-51-232v-30q0-145 47-233.5T584 203q78 0 125 45.5T756 370h265l3-6q3-144-98-249.5T667-14v-231H467v235Q279 26 179.5 171.5T80 525z" unicode="¢" horiz-adv-x="1092"/><glyph d="M57 588v225h155l-8 214q0 210 120.5 330T647 1477q215 0 333.5-111.5T1095 1071l-2-6H808q0 96-46 141.5T646 1252q-71 0-111-59t-40-166l10-214h356V588H515l4-85q0-78-30-150t-86-129h479l12 144h223V0H120v224h10q47 12 70.5 94.5T224 490l-4 98H57z" unicode="£" horiz-adv-x="1177"/><glyph d="M82 118l135 137q-49 76-74.5 165.5T117 608q0 101 28 193.5T226 973L82 1120l141 144 142-145q74 55 162 85t185 30q96 0 185-30.5t164-86.5l145 148 142-145-148-151q51-78 79-169.5t28-191.5q0-97-25.5-185.5T1209 259l139-141-142-145-132 134q-77-61-169.5-94T712-20q-101 0-193 32.5T352 106L223-26zm220 490q0-184 119.5-311.5T712 169q170 0 289.5 127T1121 608q0 183-119.5 310T712 1045q-171 0-290.5-127T302 608z" unicode="¤" horiz-adv-x="1432"/><glyph d="M41 1280v176h536v-176l-68-13 193-418h6l193 418-68 13v176h536v-176l-166-22-276-516h244V577H847V452h324V288H847v-83l140-30V0H400v175l155 30v83H216v164h339v125H216v165h267l-276 516z" unicode="¥" horiz-adv-x="1401"/><glyph d="M134-270v795h261v-795H134zm0 968v758h261V698H134z" unicode="¦" horiz-adv-x="513"/><glyph d="M85 536q0 88 42 157t122 114q-69 50-103.5 120.5T111 1096q0 172 141.5 276.5T631 1477q244 0 381-111t132-311l-2-6H860q0 88-60.5 145.5T631 1252q-114 0-170.5-43.5T404 1098q0-75 55.5-113.5T691 898q247-64 364-157.5T1172 475q0-91-42-159t-121-111q68-51 102.5-121.5T1146-84q0-177-140.5-277T628-461q-232 0-387 99.5T91-44l2 6 282 1q0-106 72.5-152T628-235q107 0 166.5 41.5T854-85 793.5 22.5 564 113q-245 64-362 157.5T85 536zm292 26q0-81 55-122t232-93q34-10 68.5-20t69.5-21q39 22 60.5 59t21.5 85q0 71-62 116t-231 97q-40 10-74 21t-65 22q-38-22-56.5-59T377 562z" unicode="§" horiz-adv-x="1243"/><glyph d="M144 1252v204h267v-204H144zm500 0v204h267v-204H644z" unicode="¨" horiz-adv-x="1031"/><glyph d="M74 729q0 315 207 531t503 216q295 0 502.5-216T1494 729q0-316-208-533T784-21q-296 0-503 217T74 729zm122 0q0-264 171.5-444.5T784 104q244 0 415.5 180.5T1371 729q0 263-171.5 442.5T784 1351q-246 0-417-179.5T196 729zm225-60v119q0 173 94.5 280T770 1175q157 0 245.5-79.5T1100 867l-2-6H950q0 94-45 136.5T770 1040q-94 0-144-69t-50-182V669q0-115 50-183.5T770 417q90 0 134.5 41.5T949 596h148l2-6q4-151-84-229.5T770 282q-160 0-254.5 106T421 669z" unicode="©" horiz-adv-x="1566"/><glyph d="M94 920q0 111 84.5 171t246.5 60h137v51q0 62-29.5 94.5T446 1329q-66 0-102-26t-36-73l-165 13-1 6q-6 98 79 163t225 65q134 0 212.5-71t78.5-205V887q0-51 6-95t20-86H586q-8 21-13 44.5t-8 49.5q-33-47-88.5-77.5T343 692q-119 0-184 61T94 920zm175 4q0-43 29-65.5t88-22.5q51 0 105 30t71 65v103H426q-74 0-115.5-32T269 924z" unicode="ª" horiz-adv-x="867"/><glyph d="M4 116zm0 390v19l280 390h187L231 515l240-399H284zm395 0v19l280 390h187L626 515l240-399H679z" unicode="«" horiz-adv-x="953"/><glyph d="M114 634v171h835V374H749v260H114z" unicode="¬" horiz-adv-x="1098"/><glyph d="M131 510v225h564V510H131zm0 0z" unicode="­" horiz-adv-x="815"/><glyph d="M74 729q0 315 207 531t503 216q295 0 502.5-216T1494 729q0-316-208-533T784-21q-296 0-503 217T74 729zm122 0q0-264 171.5-444.5T784 104q244 0 415.5 180.5T1371 729q0 263-171.5 442.5T784 1351q-246 0-417-179.5T196 729zm293-413v850h281q151 0 238-68t87-194q0-58-29-101.5T981 728q58-30 84.5-84.5T1092 515v-56q0-41 3.5-73.5T1109 332v-16H954q-9 21-11 61.5t-2 82.5v54q0 71-33.5 105T798 653H640V316H489zm151 471h136q71 0 120 30t49 86q0 72-39 101t-136 29H640V787z" unicode="®" horiz-adv-x="1566"/><glyph d="M146 1292v165h731v-165H146z" unicode="¯" horiz-adv-x="1008"/><glyph d="M106 1203q0 112 80 193t192 81q110 0 189-81t79-193q0-114-78.5-192.5T378 932q-113 0-192.5 79T106 1203zm147 0q0-53 36.5-88.5T378 1079t87 35 35 89-35.5 91-86.5 37q-52 0-88.5-37t-36.5-91z" unicode="°" horiz-adv-x="745"/><glyph d="M66 715v232h333v363h256V947h327V715H655V332H399v383H66zM119 1v228h834V1H119z" unicode="±" horiz-adv-x="1040"/><glyph d="M101 1223q-6 106 82.5 181t236.5 75q144 0 222.5-65t78.5-183q0-82-53.5-144.5T490 921l-109-93 2-6h346V667H106v155l310 252q60 50 77.5 83.5T511 1232q0 39-23.5 65.5T415 1324q-55 0-83-30t-28-77H103z" unicode="²" horiz-adv-x="823"/><glyph d="M88 893l2 6h200q0-42 31.5-65.5T413 810q56 0 90 24t34 68q0 50-35 77t-101 27H289v133h112q62 0 91.5 24.5T522 1234q0 38-28 63.5t-84 25.5q-51 0-79-22t-28-53H103l-2 6q-6 101 82 162.5t222 61.5q151 0 239.5-59.5T733 1249q0-55-35.5-100.5T601 1078q71-24 108.5-71.5T747 891q0-112-89.5-174T415 655q-145 0-239 62.5T88 893z" unicode="³" horiz-adv-x="833"/><glyph d="M82 1212l199 266h309l2-6-276-260H82z" unicode="´" horiz-adv-x="644"/><glyph d="M55 906v176h447V462q0-149 44.5-202.5T681 206q76 0 126 27.5t78 80.5v562l-156 30v176h447V205l141-30V0H905l-6 68Q855 24 798.5 1.5T674-21q-51 0-94 10.5T502 22v-438H211V876z" unicode="µ" horiz-adv-x="1347"/><glyph d="M54 988q0 207 129.5 337.5T546 1456h375V205l155-30V0H473v175l156 30v315h-83q-233 0-362.5 129.5T54 988zm867 262v206h155v-176z" unicode="¶" horiz-adv-x="1127"/><glyph d="M145 568v260h292V568H145z" unicode="·" horiz-adv-x="553"/><glyph d="M83-136L114 6h219l-11-57q64-11 107-52t43-121q0-107-91.5-171T121-459l-7 161q51 0 81 20.5t30 62.5q0 41-32 57.5T83-136z" unicode="¸" horiz-adv-x="500"/><glyph d="M102 1295v159l337 23V665H229v630H102z" unicode="¹" horiz-adv-x="536"/><glyph d="M109 1025v117q0 148 94 241.5t252 93.5 252.5-93.5T802 1142v-117q0-149-94-241.5T457 691q-159 0-253.5 92.5T109 1025zm175 0q0-85 44-136.5T457 837q82 0 126 51.5t44 136.5v117q0 83-44.5 135T455 1329q-84 0-127.5-52T284 1142v-117z" unicode="º" horiz-adv-x="914"/><glyph d="M64 151l239 399L64 950h187l280-390v-19L251 151H64zm0 0zm406 0l239 399-239 400h187l280-390v-19L657 151H470z" unicode="»" horiz-adv-x="973"/><glyph d="M117 0zm0 1294v159l337 23V664H244v630H117zM240 192l711 1138 142-75L382 117zm464 73l423 534v2h211V296h101V139h-101V0h-211v139H717zm215 31h208v257l-6 2-13-20z" unicode="¼" horiz-adv-x="1413"/><glyph d="M102 0zm0 1294v159l337 23V664H229v630H102zM238 192l711 1138 142-75L380 117zm586 364q-6 106 82.5 181t236.5 75q144 0 222.5-65t78.5-183q0-82-53.5-144.5T1213 254l-109-93 2-6h346V0H829v155l310 252q60 50 77.5 83.5T1234 565q0 39-23.5 65.5T1138 657q-55 0-83-30t-28-77H826z" unicode="½" horiz-adv-x="1457"/><glyph d="M73 0zm6 894l2 6h200q0-42 31.5-65.5T404 811q56 0 90 24t34 68q0 50-35 77t-101 27H280v133h112q62 0 91.5 24.5T513 1235q0 38-28 63.5t-84 25.5q-51 0-79-22t-28-53H94l-2 6q-6 101 82 162.5t222 61.5q151 0 239.5-59.5T724 1250q0-55-35.5-100.5T592 1079q71-24 108.5-71.5T738 892q0-112-89.5-174T406 656q-145 0-239 62.5T79 894zm377-702l711 1138 142-75L598 117zm435 73l423 534v2h211V296h101V139h-101V0h-211v139H904zm215 31h208v257l-6 2-13-20z" unicode="¾" horiz-adv-x="1635"/><glyph d="M45 27q0 125 74 233t187 183q60 45 79.5 92.5T405 668h291q-2-141-42.5-206.5T494 304q-72-58-114.5-125.5T337 29q0-90 48.5-142T525-165q73 0 124 43T703 6h283l2-6q2-191-127.5-292.5T525-394q-226 0-353 113T45 27zm358 804v251h294V831H403z" unicode="¿" horiz-adv-x="945"/><glyph d="M41 0v175l104 15 443 1266h299l440-1266 104-15V0H935v175l101 18-64 200H500l-64-200 101-18V0H41zm0 0zm335 1828l2 6h310l196-266H648zM569 608h334l-164 513h-6z" unicode="À"/><glyph d="M41 0v175l104 15 443 1266h299l440-1266 104-15V0H935v175l101 18-64 200H500l-64-200 101-18V0H41zm0 0zm514 1560l199 266h309l2-6-276-260H555zm14-952h334l-164 513h-6z" unicode="Á"/><glyph d="M41 0v175l104 15 443 1266h299l440-1266 104-15V0H935v175l101 18-64 200H500l-64-200 101-18V0H41zm0 0zm323 1581v26l282 240h169l287-243v-23H885l-155 146-154-146H364zm205-973h334l-164 513h-6z" unicode="Â"/><glyph d="M41 0v175l104 15 443 1266h299l440-1266 104-15V0H935v175l101 18-64 200H500l-64-200 101-18V0H41zm0 0zm305 1624q0 94 59.5 163.5T555 1857q56 0 151.5-43.5T854 1770q35 0 60.5 32t25.5 79l155-45q0-96-59.5-163.5T885 1605q-70 0-158.5 43.5T586 1692q-36 0-60.5-32.5T501 1582zM569 608h334l-164 513h-6z" unicode="Ã"/><glyph d="M41 0v175l104 15 443 1266h299l440-1266 104-15V0H935v175l101 18-64 200H500l-64-200 101-18V0H41zm0 0zm293 1601v204h267v-204H334zm235-993h334l-164 513h-6zm265 993v204h267v-204H834z" unicode="Ä"/><glyph d="M41 0v175l104 15 443 1266h299l440-1266 104-15V0H935v175l101 18-64 200H500l-64-200 101-18V0H41zm0 0zm478 1745q0 83 61.5 139.5T732 1941q88 0 148.5-56.5T941 1745q0-84-60.5-138T732 1553q-91 0-152 54t-61 138zm50-1137h334l-164 513h-6zm65 1137q0-43 28-70.5t70-27.5q41 0 67 27.5t26 70.5q0 44-26 72t-67 28q-42 0-70-28.5t-28-71.5z" unicode="Å"/><glyph d="M66 0v175l136 20 678 1261h1017v-369h-223l-11 141h-362l16-366h499V635h-490l17-408h381l12 141h222V0H906v175l146 28-6 151H616l-83-165 84-14V0H66zm664 582h306l-23 554-5 1z" unicode="Æ" horiz-adv-x="2047"/><glyph d="M52 0zm0 703v49q0 317 186 521t481 204q169 0 305-61.5t225-162.5V965h-217l-30 194q-43 43-108.5 68T739 1252q-190 0-292.5-138T344 754v-51q0-222 102-361t288-139q86 0 157.5 25t110.5 68l30 194h217V202q-88-102-224.5-162.5T719-21q-293 0-480 203T52 703zm507-841L590 4h219l-11-57q64-11 107-52t43-121q0-107-91.5-171T597-461l-7 161q51 0 81 20.5t30 62.5q0 41-32 57.5T559-138z" unicode="Ç" horiz-adv-x="1327"/><glyph d="M56 0v175l155 30v1045l-155 30v176h1150v-399H982l-13 174H503V865h493V640H503V224h470l13 174h222V0H56zm0 0zm231 1828l2 6h310l196-266H559z" unicode="È" horiz-adv-x="1308"/><glyph d="M56 0v175l155 30v1045l-155 30v176h1150v-399H982l-13 174H503V865h493V640H503V224h470l13 174h222V0H56zm0 0zm410 1560l199 266h309l2-6-276-260H466z" unicode="É" horiz-adv-x="1308"/><glyph d="M56 0v175l155 30v1045l-155 30v176h1150v-399H982l-13 174H503V865h493V640H503V224h470l13 174h222V0H56zm0 0zm219 1581v26l282 240h169l287-243v-23H796l-155 146-154-146H275z" unicode="Ê" horiz-adv-x="1308"/><glyph d="M56 0v175l155 30v1045l-155 30v176h1150v-399H982l-13 174H503V865h493V640H503V224h470l13 174h222V0H56zm0 0zm189 1601v204h267v-204H245zm500 0v204h267v-204H745z" unicode="Ë" horiz-adv-x="1308"/><glyph d="M-14 1827l2 6h310l196-266H258zM0 0zm55 0v175l156 30v1045l-156 30v176h603v-176l-156-30V205l156-30V0H55z" unicode="Ì" horiz-adv-x="713"/><glyph d="M55 0v175l156 30v1045l-156 30v176h603v-176l-156-30V205l156-30V0H55zm0 0zm109 1559l199 266h309l2-6-276-260H164z" unicode="Í" horiz-adv-x="713"/><glyph d="M-26 1580v26l282 240h169l287-243v-23H495l-155 146-154-146H-26zM0 0zm55 0v175l156 30v1045l-156 30v176h603v-176l-156-30V205l156-30V0H55z" unicode="Î" horiz-adv-x="713"/><glyph d="M-56 1600v204h267v-204H-56zM0 0zm55 0v175l156 30v1045l-156 30v176h603v-176l-156-30V205l156-30V0H55zm389 1600v204h267v-204H444z" unicode="Ï" horiz-adv-x="713"/><glyph d="M46 665v155h195v430l-155 30v176h655q267 0 440-170.5T1354 848V607q0-268-173-437.5T741 0H86v175l155 30v460H46zm487-441h193q157 0 246 106t89 277v243q0 169-89 275t-246 106H533V820h214V665H533V224z" unicode="Ð" horiz-adv-x="1441"/><glyph d="M56 0v175l155 30v1045l-155 30v176h447l588-980 6 1v773l-156 30v176h603v-176l-156-30V0h-291L509 980l-6-1V205l156-30V0H56zm0 0zm345 1624q0 94 59.5 163.5T610 1857q56 0 151.5-43.5T909 1770q35 0 60.5 32t25.5 79l155-45q0-96-59.5-163.5T940 1605q-70 0-158.5 43.5T641 1692q-36 0-60.5-32.5T556 1582z" unicode="Ñ" horiz-adv-x="1582"/><glyph d="M67 0zm0 717v22q0 318 181 528t476 210q296 0 479.5-210T1387 739v-22q0-320-183-529T725-21q-295 0-476.5 209T67 717zm292 0q0-230 91.5-370.5T725 206q185 0 278 140.5t93 370.5v24q0 226-94 367t-278 141-274.5-140T359 741v-24zm13 1110l2 6h310l196-266H644z" unicode="Ò" horiz-adv-x="1448"/><glyph d="M67 0zm0 717v22q0 318 181 528t476 210q296 0 479.5-210T1387 739v-22q0-320-183-529T725-21q-295 0-476.5 209T67 717zm292 0q0-230 91.5-370.5T725 206q185 0 278 140.5t93 370.5v24q0 226-94 367t-278 141-274.5-140T359 741v-24zm192 842l199 266h309l2-6-276-260H551z" unicode="Ó" horiz-adv-x="1448"/><glyph d="M67 0zm0 717v22q0 318 181 528t476 210q296 0 479.5-210T1387 739v-22q0-320-183-529T725-21q-295 0-476.5 209T67 717zm292 0q0-230 91.5-370.5T725 206q185 0 278 140.5t93 370.5v24q0 226-94 367t-278 141-274.5-140T359 741v-24zm1 863v26l282 240h169l287-243v-23H881l-155 146-154-146H360z" unicode="Ô" horiz-adv-x="1448"/><glyph d="M67 0zm0 717v22q0 318 181 528t476 210q296 0 479.5-210T1387 739v-22q0-320-183-529T725-21q-295 0-476.5 209T67 717zm275 906q0 94 59.5 163.5T551 1856q56 0 151.5-43.5T850 1769q35 0 60.5 32t25.5 79l155-45q0-96-59.5-163.5T881 1604q-70 0-158.5 43.5T582 1691q-36 0-60.5-32.5T497 1581zm17-906q0-230 91.5-370.5T725 206q185 0 278 140.5t93 370.5v24q0 226-94 367t-278 141-274.5-140T359 741v-24z" unicode="Õ" horiz-adv-x="1448"/><glyph d="M67 0zm0 717v22q0 318 181 528t476 210q296 0 479.5-210T1387 739v-22q0-320-183-529T725-21q-295 0-476.5 209T67 717zm263 883v204h267v-204H330zm29-883q0-230 91.5-370.5T725 206q185 0 278 140.5t93 370.5v24q0 226-94 367t-278 141-274.5-140T359 741v-24zm471 883v204h267v-204H830z" unicode="Ö" horiz-adv-x="1448"/><glyph d="M61 371l309 315-309 315 171 164 304-310 304 310 171-164-309-315 309-315-171-164-304 310-304-310z" unicode="×" horiz-adv-x="1068"/><glyph d="M72 717v22q0 318 181 528t476 210q83 0 159-18.5t144-53.5l66 113h144l-106-181q122-101 189-256.5t67-341.5v-22q0-320-183-529T730-21q-94 0-178 22.5T397 68L302-95H158l139 239Q189 244 130.5 392T72 717zm292 0q0-100 17-184.5T433 389l6-1 473 812q-39 23-85 36t-98 13q-184 0-274.5-140T364 741v-24zm155-440q41-35 93.5-53T730 206q185 0 278 140.5t93 370.5v24q0 112-24 206t-70 156l-6 1z" unicode="Ø" horiz-adv-x="1400"/><glyph d="M39 0zm0 1280v176h603v-176l-156-30V490q0-144 77.5-215.5T776 203q137 0 215 71t78 216v760l-155 30v176h603v-176l-156-30V490q0-245-161.5-378T776-21q-261 0-421.5 133T194 490v760zm384 548l2 6h310l196-266H695z" unicode="Ù" horiz-adv-x="1547"/><glyph d="M39 0zm0 1280v176h603v-176l-156-30V490q0-144 77.5-215.5T776 203q137 0 215 71t78 216v760l-155 30v176h603v-176l-156-30V490q0-245-161.5-378T776-21q-261 0-421.5 133T194 490v760zm563 280l199 266h309l2-6-276-260H602z" unicode="Ú" horiz-adv-x="1547"/><glyph d="M39 0zm0 1280v176h603v-176l-156-30V490q0-144 77.5-215.5T776 203q137 0 215 71t78 216v760l-155 30v176h603v-176l-156-30V490q0-245-161.5-378T776-21q-261 0-421.5 133T194 490v760zm372 301v26l282 240h169l287-243v-23H932l-155 146-154-146H411z" unicode="Û" horiz-adv-x="1547"/><glyph d="M39 0zm0 1280v176h603v-176l-156-30V490q0-144 77.5-215.5T776 203q137 0 215 71t78 216v760l-155 30v176h603v-176l-156-30V490q0-245-161.5-378T776-21q-261 0-421.5 133T194 490v760zm342 321v204h267v-204H381zm500 0v204h267v-204H881z" unicode="Ü" horiz-adv-x="1547"/><glyph d="M36 0zm0 1280v176h551v-176l-119-17 226-478h6l226 478-118 17v176h551v-176l-124-20-396-748V205l156-30V0H392v175l156 30v322l-389 733zm501 280l199 266h309l2-6-276-260H537z" unicode="Ý" horiz-adv-x="1398"/><glyph d="M67 0v175l156 30v1045l-156 30v176h604v-176l-156-30v-64h221q254 0 396-124t142-324q0-201-142-325T736 289H515v-84l156-30V0H67zm448 514h221q123 0 184.5 63.5T982 736t-61.5 160T736 961H515V514z" unicode="Þ" horiz-adv-x="1306"/><glyph d="M39 0v175l155 30v896q0 226 129 349t352 123q181 0 299.5-95.5T1093 1206q0-108-53-205.5T987 835q0-56 149.5-197.5T1286 356q0-189-115-283T839-21q-77 0-151.5 15T576 35l54 223q36-22 89.5-38.5T833 203q76 0 119 38t43 103q0 71-150 205.5T695 826q0 90 55 190t55 175q0 71-39.5 114.5T656 1349q-76 0-123-67.5T486 1097V0H39z" unicode="ß" horiz-adv-x="1321"/><glyph d="M74 0zm0 301q0 152 122 235t358 83h149v106q0 78-45 121t-133 43q-50 0-89-11.5T373 850l-19-116H134l1 240q80 54 183.5 91t225.5 37q201 0 326.5-98.5T996 723V276q0-25 .5-47t3.5-42l89-12V0H752q-12 27-21 55.5T717 113q-52-60-126.5-97T420-21q-159 0-252.5 86.5T74 301zm145 1203l2 6h310l196-266H491zM365 312q0-55 35.5-86t98.5-31q66 0 120 28.5t84 71.5v165H554q-93 0-141-43.5T365 312z" unicode="à" horiz-adv-x="1125"/><glyph d="M74 0zm0 301q0 152 122 235t358 83h149v106q0 78-45 121t-133 43q-50 0-89-11.5T373 850l-19-116H134l1 240q80 54 183.5 91t225.5 37q201 0 326.5-98.5T996 723V276q0-25 .5-47t3.5-42l89-12V0H752q-12 27-21 55.5T717 113q-52-60-126.5-97T420-21q-159 0-252.5 86.5T74 301zm291 11q0-55 35.5-86t98.5-31q66 0 120 28.5t84 71.5v165H554q-93 0-141-43.5T365 312zm33 924l199 266h309l2-6-276-260H398z" unicode="á" horiz-adv-x="1125"/><glyph d="M74 0zm0 301q0 152 122 235t358 83h149v106q0 78-45 121t-133 43q-50 0-89-11.5T373 850l-19-116H134l1 240q80 54 183.5 91t225.5 37q201 0 326.5-98.5T996 723V276q0-25 .5-47t3.5-42l89-12V0H752q-12 27-21 55.5T717 113q-52-60-126.5-97T420-21q-159 0-252.5 86.5T74 301zm133 956v26l282 240h169l287-243v-23H728l-155 146-154-146H207zm158-945q0-55 35.5-86t98.5-31q66 0 120 28.5t84 71.5v165H554q-93 0-141-43.5T365 312z" unicode="â" horiz-adv-x="1125"/><glyph d="M74 0zm0 301q0 152 122 235t358 83h149v106q0 78-45 121t-133 43q-50 0-89-11.5T373 850l-19-116H134l1 240q80 54 183.5 91t225.5 37q201 0 326.5-98.5T996 723V276q0-25 .5-47t3.5-42l89-12V0H752q-12 27-21 55.5T717 113q-52-60-126.5-97T420-21q-159 0-252.5 86.5T74 301zm115 999q0 94 59.5 163.5T398 1533q56 0 151.5-43.5T697 1446q35 0 60.5 32t25.5 79l155-45q0-96-59.5-163.5T728 1281q-70 0-158.5 43.5T429 1368q-36 0-60.5-32.5T344 1258zm176-988q0-55 35.5-86t98.5-31q66 0 120 28.5t84 71.5v165H554q-93 0-141-43.5T365 312z" unicode="ã" horiz-adv-x="1125"/><glyph d="M74 0zm0 301q0 152 122 235t358 83h149v106q0 78-45 121t-133 43q-50 0-89-11.5T373 850l-19-116H134l1 240q80 54 183.5 91t225.5 37q201 0 326.5-98.5T996 723V276q0-25 .5-47t3.5-42l89-12V0H752q-12 27-21 55.5T717 113q-52-60-126.5-97T420-21q-159 0-252.5 86.5T74 301zm103 976v204h267v-204H177zm188-965q0-55 35.5-86t98.5-31q66 0 120 28.5t84 71.5v165H554q-93 0-141-43.5T365 312zm312 965v204h267v-204H677z" unicode="ä" horiz-adv-x="1125"/><glyph d="M74 0zm0 301q0 152 122 235t358 83h149v106q0 78-45 121t-133 43q-50 0-89-11.5T373 850l-19-116H134l1 240q80 54 183.5 91t225.5 37q201 0 326.5-98.5T996 723V276q0-25 .5-47t3.5-42l89-12V0H752q-12 27-21 55.5T717 113q-52-60-126.5-97T420-21q-159 0-252.5 86.5T74 301zm288 1120q0 83 61.5 139.5T575 1617q88 0 148.5-56.5T784 1421q0-84-60.5-138T575 1229q-91 0-152 54t-61 138zm3-1109q0-55 35.5-86t98.5-31q66 0 120 28.5t84 71.5v165H554q-93 0-141-43.5T365 312zm112 1109q0-43 28-70.5t70-27.5q41 0 67 27.5t26 70.5q0 44-26 72t-67 28q-42 0-70-28.5t-28-71.5z" unicode="å" horiz-adv-x="1125"/><glyph d="M73 317q0 159 127 245t370 86h181v59q0 79-41 124.5T595 877q-81 0-127-37.5T422 746l-283 18-2 6q-6 144 121.5 238t339.5 94q102 0 186-27.5T927 995q61 52 142.5 79.5T1250 1102q212 0 333-132t121-358V454h-650l-2-6q4-112 66-178.5t186-66.5q92 0 154 20t140 61l77-184q-62-48-169-84.5T1273-21q-129 0-229.5 40.5T876 136Q816 68 714.5 23.5T474-21q-192 0-296.5 90.5T73 317zm292-4q0-59 41.5-93.5T530 185q58 0 121 30.5T751 288v176H572q-98 0-152.5-44T365 313zm689 336l2-5h362v28q0 94-42.5 149.5T1250 877q-95 0-142-61.5T1054 649z" unicode="æ" horiz-adv-x="1784"/><glyph d="M67 0zm0 525v30q0 239 134.5 393T585 1102q131 0 235-39t173-110l4-289H760l-48 169q-22 19-54 31.5T585 877q-124 0-175-90t-51-232v-30q0-145 47-233.5T571 203q78 0 125 45.5T743 370h264l3-6q4-164-123-274.5T571-21q-242 0-373 153T67 525zm339-663L437 4h219l-11-57q64-11 107-52t43-121q0-107-91.5-171T444-461l-7 161q51 0 81 20.5t30 62.5q0 41-32 57.5T406-138z" unicode="ç" horiz-adv-x="1079"/><glyph d="M67 0zm0 510v40q0 241 132.5 397T555 1102q219 0 340-132t121-357V454H370l-2-6q8-107 71.5-176T612 203q97 0 161 19.5T913 284l79-180q-67-53-173.5-89T581-21q-234 0-374 150T67 510zm118 995l2 6h310l196-266H457zm184-853l3-5h358v26q0 93-43.5 148.5T555 877q-81 0-128-62t-58-163z" unicode="è" horiz-adv-x="1091"/><glyph d="M67 0zm0 510v40q0 241 132.5 397T555 1102q219 0 340-132t121-357V454H370l-2-6q8-107 71.5-176T612 203q97 0 161 19.5T913 284l79-180q-67-53-173.5-89T581-21q-234 0-374 150T67 510zm297 727l199 266h309l2-6-276-260H364zm5-585l3-5h358v26q0 93-43.5 148.5T555 877q-81 0-128-62t-58-163z" unicode="é" horiz-adv-x="1091"/><glyph d="M67 0zm0 510v40q0 241 132.5 397T555 1102q219 0 340-132t121-357V454H370l-2-6q8-107 71.5-176T612 203q97 0 161 19.5T913 284l79-180q-67-53-173.5-89T581-21q-234 0-374 150T67 510zm106 748v26l282 240h169l287-243v-23H694l-155 146-154-146H173zm196-606l3-5h358v26q0 93-43.5 148.5T555 877q-81 0-128-62t-58-163z" unicode="ê" horiz-adv-x="1091"/><glyph d="M67 0zm0 510v40q0 241 132.5 397T555 1102q219 0 340-132t121-357V454H370l-2-6q8-107 71.5-176T612 203q97 0 161 19.5T913 284l79-180q-67-53-173.5-89T581-21q-234 0-374 150T67 510zm77 768v204h267v-204H144zm225-626l3-5h358v26q0 93-43.5 148.5T555 877q-81 0-128-62t-58-163zm275 626v204h267v-204H644z" unicode="ë" horiz-adv-x="1091"/><glyph d="M7 0zm0 1506l2 6h310l196-266H279zm63-600v176h448V205l140-30V0H85v175l141 30v671z" unicode="ì" horiz-adv-x="686"/><glyph d="M70 0zm0 906v176h448V205l140-30V0H85v175l141 30v671zm115 332l199 266h309l2-6-276-260H185z" unicode="í" horiz-adv-x="686"/><glyph d="M-5 1259v26l282 240h169l287-243v-23H516l-155 146-154-146H-5zM0 0zm70 906v176h448V205l140-30V0H85v175l141 30v671z" unicode="î" horiz-adv-x="686"/><glyph d="M-35 1279v204h267v-204H-35zM0 0zm70 906v176h448V205l140-30V0H85v175l141 30v671zm395 373v204h267v-204H465z" unicode="ï" horiz-adv-x="686"/><glyph d="M60 468q0 226 134 362.5T559 967q75 0 143-22t118-61l4 4q-20 75-59 140t-92 118l-231-128-78 113 190 105q-35 19-71.5 34.5T409 1299l92 218q85-21 163-56t146-84l208 116 77-113-177-98q110-117 170-274.5t60-346.5v-76q0-267-157.5-436.5T598-21q-238 0-388 140.5T60 468zm291 0q0-111 68.5-188T602 203q117 0 185.5 107.5T856 585v78q-34 40-98.5 66T605 755q-121 0-187.5-79T351 468z" unicode="ð" horiz-adv-x="1217"/><glyph d="M32 0zm0 906v176h427l13-155q54 83 133 129t177 46q164 0 256-103t92-323V205l140-30V0H712v175l125 30v470q0 109-44 154.5T660 875q-58 0-104-23.5T479 785V205l118-30V0H47v175l140 30v671zm204 394q0 94 59.5 163.5T445 1533q56 0 151.5-43.5T744 1446q35 0 60.5 32t25.5 79l155-45q0-96-59.5-163.5T775 1281q-70 0-158.5 43.5T476 1368q-36 0-60.5-32.5T391 1258z" unicode="ñ" horiz-adv-x="1300"/><glyph d="M63 0zm0 530v21q0 242 135.5 396.5T573 1102q240 0 375.5-154T1084 551v-21q0-244-135.5-397.5T575-21q-241 0-376.5 153.5T63 530zm156 976l2 6h310l196-266H491zm136-976q0-148 52-237.5T575 203q113 0 165.5 90T793 530v21q0 144-53 235t-167 91-166-91-52-235v-21z" unicode="ò" horiz-adv-x="1148"/><glyph d="M63 0zm0 530v21q0 242 135.5 396.5T573 1102q240 0 375.5-154T1084 551v-21q0-244-135.5-397.5T575-21q-241 0-376.5 153.5T63 530zm292 0q0-148 52-237.5T575 203q113 0 165.5 90T793 530v21q0 144-53 235t-167 91-166-91-52-235v-21zm43 708l199 266h309l2-6-276-260H398z" unicode="ó" horiz-adv-x="1148"/><glyph d="M63 0zm0 530v21q0 242 135.5 396.5T573 1102q240 0 375.5-154T1084 551v-21q0-244-135.5-397.5T575-21q-241 0-376.5 153.5T63 530zm144 729v26l282 240h169l287-243v-23H728l-155 146-154-146H207zm148-729q0-148 52-237.5T575 203q113 0 165.5 90T793 530v21q0 144-53 235t-167 91-166-91-52-235v-21z" unicode="ô" horiz-adv-x="1148"/><glyph d="M63 0zm0 530v21q0 242 135.5 396.5T573 1102q240 0 375.5-154T1084 551v-21q0-244-135.5-397.5T575-21q-241 0-376.5 153.5T63 530zm126 772q0 94 59.5 163.5T398 1535q56 0 151.5-43.5T697 1448q35 0 60.5 32t25.5 79l155-45q0-96-59.5-163.5T728 1283q-70 0-158.5 43.5T429 1370q-36 0-60.5-32.5T344 1260zm166-772q0-148 52-237.5T575 203q113 0 165.5 90T793 530v21q0 144-53 235t-167 91-166-91-52-235v-21z" unicode="õ" horiz-adv-x="1148"/><glyph d="M63 0zm0 530v21q0 242 135.5 396.5T573 1102q240 0 375.5-154T1084 551v-21q0-244-135.5-397.5T575-21q-241 0-376.5 153.5T63 530zm114 749v204h267v-204H177zm178-749q0-148 52-237.5T575 203q113 0 165.5 90T793 530v21q0 144-53 235t-167 91-166-91-52-235v-21zm322 749v204h267v-204H677z" unicode="ö" horiz-adv-x="1148"/><glyph d="M56 573v227h1028V573H56zm369-409v233h292V164H425zm0 809v233h292V973H425z" unicode="÷" horiz-adv-x="1133"/><glyph d="M76 530v21q0 242 135.5 396.5T586 1102q45 0 87-6.5t83-17.5l67 137h162l-98-201q101-72 155.5-192.5T1097 551v-21q0-244-135.5-397.5T588-21q-53 0-101 8t-91 23l-74-151H160L268 80q-94 72-143 188.5T76 530zm292 0q0-55 6.5-101t20.5-77l5-1 253 516q-16 4-33 7t-34 3q-114 0-166-91t-52-235v-21zm131-309q18-9 40.5-13.5T588 203q113 0 165.5 90T806 530v21q0 62-10 115.5T767 756h-6z" unicode="ø" horiz-adv-x="1178"/><glyph d="M33 0zm0 906v176h411V427q0-118 39.5-169.5T601 206q69 0 119.5 22.5T803 293v583l-128 30v176h420V205l131-30V0H839l-19 137Q768 61 691.5 20T517-21Q346-21 249 88.5T152 429v447zm219 600l2 6h310l196-266H524z" unicode="ù" horiz-adv-x="1278"/><glyph d="M33 0zm0 906v176h411V427q0-118 39.5-169.5T601 206q69 0 119.5 22.5T803 293v583l-128 30v176h420V205l131-30V0H839l-19 137Q768 61 691.5 20T517-21Q346-21 249 88.5T152 429v447zm398 332l199 266h309l2-6-276-260H431z" unicode="ú" horiz-adv-x="1278"/><glyph d="M33 0zm0 906v176h411V427q0-118 39.5-169.5T601 206q69 0 119.5 22.5T803 293v583l-128 30v176h420V205l131-30V0H839l-19 137Q768 61 691.5 20T517-21Q346-21 249 88.5T152 429v447zm207 353v26l282 240h169l287-243v-23H761l-155 146-154-146H240z" unicode="û" horiz-adv-x="1278"/><glyph d="M33 0zm0 906v176h411V427q0-118 39.5-169.5T601 206q69 0 119.5 22.5T803 293v583l-128 30v176h420V205l131-30V0H839l-19 137Q768 61 691.5 20T517-21Q346-21 249 88.5T152 429v447zm177 373v204h267v-204H210zm500 0v204h267v-204H710z" unicode="ü" horiz-adv-x="1278"/><glyph d="M26 0zm0 906v176h530V906l-121-20 148-432 15-78 6-1 171 511-122 20v176h530V906l-101-15L684-162q-47-117-125.5-196T322-437q-37 0-69.5 6T176-414l34 213q14-2 29-4t26-2q73 0 112 35.5T437-83l33 82-343 891zm388 317l199 266h309l2-6-276-260H414z" unicode="ý" horiz-adv-x="1212"/><glyph d="M34 1384v176h447V969q47 64 112 98.5t150 34.5q201 0 312-157t111-413v-21q0-240-111-386T745-21q-85 0-151 31.5T481 103v-313l141-30v-176H49v176l141 30v1564zM481 297q27-46 73.5-70T669 203q106 0 155.5 83T874 511v21q0 153-51 248t-156 95q-66 0-112.5-27T481 771V297z" unicode="þ" horiz-adv-x="1246"/><glyph d="M26 0zm0 906v176h530V906l-121-20 148-432 15-78 6-1 171 511-122 20v176h530V906l-101-15L684-162q-47-117-125.5-196T322-437q-37 0-69.5 6T176-414l34 213q14-2 29-4t26-2q73 0 112 35.5T437-83l33 82-343 891zm167 358v204h267v-204H193zm500 0v204h267v-204H693z" unicode="ÿ" horiz-adv-x="1212"/><glyph d="M41 0v175l104 15 443 1266h299l440-1266 104-15V0H935v175l101 18-64 200H500l-64-200 101-18V0H41zm0 0zm312 1617v165h731v-165H353zM569 608h334l-164 513h-6z" unicode="Ā"/><glyph d="M74 0zm0 301q0 152 122 235t358 83h149v106q0 78-45 121t-133 43q-50 0-89-11.5T373 850l-19-116H134l1 240q80 54 183.5 91t225.5 37q201 0 326.5-98.5T996 723V276q0-25 .5-47t3.5-42l89-12V0H752q-12 27-21 55.5T717 113q-52-60-126.5-97T420-21q-159 0-252.5 86.5T74 301zm122 992v165h731v-165H196zm169-981q0-55 35.5-86t98.5-31q66 0 120 28.5t84 71.5v165H554q-93 0-141-43.5T365 312z" unicode="ā" horiz-adv-x="1125"/><glyph d="M41 0v175l104 15 443 1266h299l440-1266 104-15V0H935v175l101 18-64 200H500l-64-200 101-18V0H41zm0 0zm342 1877l2 6h198q0-58 34-96t107-38q71 0 105 37.5t34 96.5h199l2-6q5-127-88.5-207.5T724 1589q-159 0-253 80.5T383 1877zM569 608h334l-164 513h-6z" unicode="Ă"/><glyph d="M74 0zm0 301q0 152 122 235t358 83h149v106q0 78-45 121t-133 43q-50 0-89-11.5T373 850l-19-116H134l1 240q80 54 183.5 91t225.5 37q201 0 326.5-98.5T996 723V276q0-25 .5-47t3.5-42l89-12V0H752q-12 27-21 55.5T717 113q-52-60-126.5-97T420-21q-159 0-252.5 86.5T74 301zm152 1252l2 6h198q0-58 34-96t107-38q71 0 105 37.5t34 96.5h199l2-6q5-127-88.5-207.5T567 1265q-159 0-253 80.5T226 1553zM365 312q0-55 35.5-86t98.5-31q66 0 120 28.5t84 71.5v165H554q-93 0-141-43.5T365 312z" unicode="ă" horiz-adv-x="1125"/><glyph d="M41 0v175l104 15 443 1266h299l440-1266 104-15V0H935v175l101 18-64 200H500l-64-200 101-18V0H41zm0 0zm528 608h334l-164 513h-6zm541-818q0 77 46 146.5T1300 60l132-60q-53-53-78-90t-25-86q0-27 16.5-48.5T1414-246q28 0 49.5 6t44.5 14l35-154q-36-19-80-31.5T1358-424q-109 0-178.5 56.5T1110-210z" unicode="Ą"/><glyph d="M74 0zm0 301q0 152 122 235t358 83h149v106q0 78-45 121t-133 43q-50 0-89-11.5T373 850l-19-116H134l1 240q80 54 183.5 91t225.5 37q201 0 326.5-98.5T996 723V276q0-25 .5-47t3.5-42l89-12V0H752q-12 27-21 55.5T717 113q-52-60-126.5-97T420-21q-159 0-252.5 86.5T74 301zm291 11q0-55 35.5-86t98.5-31q66 0 120 28.5t84 71.5v165H554q-93 0-141-43.5T365 312zm402-522q0 77 46 146.5T957 60l132-60q-53-53-78-90t-25-86q0-27 16.5-48.5T1071-246q28 0 49.5 6t44.5 14l35-154q-36-19-80-31.5T1015-424q-109 0-178.5 56.5T767-210z" unicode="ą" horiz-adv-x="1125"/><glyph d="M52 0zm0 703v49q0 317 186 521t481 204q169 0 305-61.5t225-162.5V965h-217l-30 194q-43 43-108.5 68T739 1252q-190 0-292.5-138T344 754v-51q0-222 102-361t288-139q86 0 157.5 25t110.5 68l30 194h217V202q-88-102-224.5-162.5T719-21q-293 0-480 203T52 703zm490 864l199 266h309l2-6-276-260H542z" unicode="Ć" horiz-adv-x="1327"/><glyph d="M67 0zm0 525v30q0 239 134.5 393T585 1102q131 0 235-39t173-110l4-289H760l-48 169q-22 19-54 31.5T585 877q-124 0-175-90t-51-232v-30q0-145 47-233.5T571 203q78 0 125 45.5T743 370h264l3-6q4-164-123-274.5T571-21q-242 0-373 153T67 525zm332 711l199 266h309l2-6-276-260H399z" unicode="ć" horiz-adv-x="1079"/><glyph d="M52 0zm0 703v49q0 317 186 521t481 204q169 0 305-61.5t225-162.5V965h-217l-30 194q-43 43-108.5 68T739 1252q-190 0-292.5-138T344 754v-51q0-222 102-361t288-139q86 0 157.5 25t110.5 68l30 194h217V202q-88-102-224.5-162.5T719-21q-293 0-480 203T52 703zm299 885v26l282 240h169l287-243v-23H872l-155 146-154-146H351z" unicode="Ĉ" horiz-adv-x="1327"/><glyph d="M67 0zm0 525v30q0 239 134.5 393T585 1102q131 0 235-39t173-110l4-289H760l-48 169q-22 19-54 31.5T585 877q-124 0-175-90t-51-232v-30q0-145 47-233.5T571 203q78 0 125 45.5T743 370h264l3-6q4-164-123-274.5T571-21q-242 0-373 153T67 525zm141 732v26l282 240h169l287-243v-23H729l-155 146-154-146H208z" unicode="ĉ" horiz-adv-x="1079"/><glyph d="M52 0zm0 703v49q0 317 186 521t481 204q169 0 305-61.5t225-162.5V965h-217l-30 194q-43 43-108.5 68T739 1252q-190 0-292.5-138T344 754v-51q0-222 102-361t288-139q86 0 157.5 25t110.5 68l30 194h217V202q-88-102-224.5-162.5T719-21q-293 0-480 203T52 703zm500 905v241h305v-241H552z" unicode="Ċ" horiz-adv-x="1327"/><glyph d="M67 0zm0 525v30q0 239 134.5 393T585 1102q131 0 235-39t173-110l4-289H760l-48 169q-22 19-54 31.5T585 877q-124 0-175-90t-51-232v-30q0-145 47-233.5T571 203q78 0 125 45.5T743 370h264l3-6q4-164-123-274.5T571-21q-242 0-373 153T67 525zm342 752v241h305v-241H409z" unicode="ċ" horiz-adv-x="1079"/><glyph d="M52 0zm0 703v49q0 317 186 521t481 204q169 0 305-61.5t225-162.5V965h-217l-30 194q-43 43-108.5 68T739 1252q-190 0-292.5-138T344 754v-51q0-222 102-361t288-139q86 0 157.5 25t110.5 68l30 194h217V202q-88-102-224.5-162.5T719-21q-293 0-480 203T52 703zm266 1155v16h249l132-140 132 140h248v-17l-280-255H599z" unicode="Č" horiz-adv-x="1327"/><glyph d="M67 0zm0 525v30q0 239 134.5 393T585 1102q131 0 235-39t173-110l4-289H760l-48 169q-22 19-54 31.5T585 877q-124 0-175-90t-51-232v-30q0-145 47-233.5T571 203q78 0 125 45.5T743 370h264l3-6q4-164-123-274.5T571-21q-242 0-373 153T67 525zm108 1002v16h249l132-140 132 140h248v-17l-280-255H456z" unicode="č" horiz-adv-x="1079"/><glyph d="M56 0v175l155 30v1045l-155 30v176h655q267 0 440-170.5T1324 848V607q0-268-173-437.5T711 0H56zm0 0zm173 1851v16h249l132-140 132 140h248v-17l-280-255H510zM503 224h193q157 0 246 106t89 277v243q0 169-89 275t-246 106H503V224z" unicode="Ď" horiz-adv-x="1411"/><glyph d="M67 0zm0 511v21q0 256 111 413t312 157q81 0 146-35.5T750 966v388l-156 30v176h448V205l140-30V0H789l-22 132Q716 57 646.5 18T488-21q-200 0-310.5 146T67 511zm292 0q0-142 47.5-223.5T562 206q64 0 111 26t77 75v459q-30 52-76.5 80.5T564 875q-107 0-156-95t-49-248v-21zm745 610q40 71 60.5 141.5T1185 1426v133h213v-120q0-105-42.5-214.5T1248 1043z" unicode="ď" horiz-adv-x="1362"/><glyph d="M46 665v155h195v430l-155 30v176h655q267 0 440-170.5T1354 848V607q0-268-173-437.5T741 0H86v175l155 30v460H46zm487-441h193q157 0 246 106t89 277v243q0 169-89 275t-246 106H533V820h214V665H533V224z" unicode="Đ" horiz-adv-x="1441"/><glyph d="M67 511v21q0 256 111 413t312 157q81 0 146-35.5T750 966v166H539v155h211v67l-156 30v176h448v-273h198v-155h-198V205l140-30V0H789l-22 132Q716 57 646.5 18T488-21q-200 0-310.5 146T67 511zm292 0q0-142 47.5-223.5T562 206q64 0 111 26t77 75v459q-30 52-76.5 80.5T564 875q-107 0-156-95t-49-248v-21z" unicode="đ" horiz-adv-x="1242"/><glyph d="M56 0v175l155 30v1045l-155 30v176h1150v-399H982l-13 174H503V865h493V640H503V224h470l13 174h222V0H56zm0 0zm208 1617v165h731v-165H264z" unicode="Ē" horiz-adv-x="1308"/><glyph d="M67 0zm0 510v40q0 241 132.5 397T555 1102q219 0 340-132t121-357V454H370l-2-6q8-107 71.5-176T612 203q97 0 161 19.5T913 284l79-180q-67-53-173.5-89T581-21q-234 0-374 150T67 510zm95 784v165h731v-165H162zm207-642l3-5h358v26q0 93-43.5 148.5T555 877q-81 0-128-62t-58-163z" unicode="ē" horiz-adv-x="1091"/><glyph d="M56 0v175l155 30v1045l-155 30v176h1150v-399H982l-13 174H503V865h493V640H503V224h470l13 174h222V0H56zm0 0zm238 1877l2 6h198q0-58 34-96t107-38q71 0 105 37.5t34 96.5h199l2-6q5-127-88.5-207.5T635 1589q-159 0-253 80.5T294 1877z" unicode="Ĕ" horiz-adv-x="1308"/><glyph d="M67 0zm0 510v40q0 241 132.5 397T555 1102q219 0 340-132t121-357V454H370l-2-6q8-107 71.5-176T612 203q97 0 161 19.5T913 284l79-180q-67-53-173.5-89T581-21q-234 0-374 150T67 510zm125 1044l2 6h198q0-58 34-96t107-38q71 0 105 37.5t34 96.5h199l2-6q5-127-88.5-207.5T533 1266q-159 0-253 80.5T192 1554zm177-902l3-5h358v26q0 93-43.5 148.5T555 877q-81 0-128-62t-58-163z" unicode="ĕ" horiz-adv-x="1091"/><glyph d="M56 0v175l155 30v1045l-155 30v176h1150v-399H982l-13 174H503V865h493V640H503V224h470l13 174h222V0H56zm0 0zm420 1601v241h305v-241H476z" unicode="Ė" horiz-adv-x="1308"/><glyph d="M67 0zm0 510v40q0 241 132.5 397T555 1102q219 0 340-132t121-357V454H370l-2-6q8-107 71.5-176T612 203q97 0 161 19.5T913 284l79-180q-67-53-173.5-89T581-21q-234 0-374 150T67 510zm302 142l3-5h358v26q0 93-43.5 148.5T555 877q-81 0-128-62t-58-163zm5 626v241h305v-241H374z" unicode="ė" horiz-adv-x="1091"/><glyph d="M56 0v175l155 30v1045l-155 30v176h1150v-399H982l-13 174H503V865h493V640H503V224h470l13 174h222V0H56zm0 0zm366-200q0 77 46 146.5T612 70l132-60q-53-53-78-90t-25-86q0-27 16.5-48.5T726-236q28 0 49.5 6t44.5 14l35-154q-36-19-80-31.5T670-414q-109 0-178.5 56.5T422-200z" unicode="Ę" horiz-adv-x="1308"/><glyph d="M67 0zm0 510v40q0 241 132.5 397T555 1102q219 0 340-132t121-357V454H370l-2-6q8-107 71.5-176T612 203q97 0 161 19.5T913 284l79-180q-67-53-173.5-89T581-21q-234 0-374 150T67 510zm302 142l3-5h358v26q0 93-43.5 148.5T555 877q-81 0-128-62t-58-163zm190-804q0 77 46 146.5T749 118l132-60q-53-53-78-90t-25-86q0-27 16.5-48.5T863-188q28 0 49.5 6t44.5 14l35-154q-36-19-80-31.5T807-366q-109 0-178.5 56.5T559-152z" unicode="ę" horiz-adv-x="1091"/><glyph d="M56 0v175l155 30v1045l-155 30v176h1150v-399H982l-13 174H503V865h493V640H503V224h470l13 174h222V0H56zm0 0zm186 1851v16h249l132-140 132 140h248v-17l-280-255H523z" unicode="Ě" horiz-adv-x="1308"/><glyph d="M67 0zm0 510v40q0 241 132.5 397T555 1102q219 0 340-132t121-357V454H370l-2-6q8-107 71.5-176T612 203q97 0 161 19.5T913 284l79-180q-67-53-173.5-89T581-21q-234 0-374 150T67 510zm73 1018v16h249l132-140 132 140h248v-17l-280-255H421zm229-876l3-5h358v26q0 93-43.5 148.5T555 877q-81 0-128-62t-58-163z" unicode="ě" horiz-adv-x="1091"/><glyph d="M47 0zm0 690v50q0 327 182.5 532T706 1477q171 0 312.5-54.5T1254 1275V982h-216l-41 195q-40 34-105.5 54.5T741 1252q-191 0-297-141T338 742v-52q0-222 104-354.5T742 203q88 0 142.5 15t85.5 35v247l-208 16v205h501V162q-71-70-207-126.5T712-21q-295 0-480 197.5T47 690zm295 890v26l282 240h169l287-243v-23H863l-155 146-154-146H342z" unicode="Ĝ" horiz-adv-x="1353"/><glyph d="M81 0zm0 511v21q0 256 111.5 413T505 1102q91 0 160-40.5T783 946l21 136h254V32q0-214-134.5-341.5T554-437q-82 0-174 22.5T210-353l54 205q70-30 140-47.5T552-213q107 0 160 65t53 181v71q-48-61-113-93T503-21q-199 0-310.5 146.5T81 511zm116 748v26l282 240h169l287-243v-23H718l-155 146-154-146H197zm176-748q0-142 48-223.5T577 206q67 0 113.5 24.5T765 302v470q-28 49-74.5 76T579 875q-107 0-156.5-95T373 532v-21z" unicode="ĝ" horiz-adv-x="1170"/><glyph d="M47 0zm0 690v50q0 327 182.5 532T706 1477q171 0 312.5-54.5T1254 1275V982h-216l-41 195q-40 34-105.5 54.5T741 1252q-191 0-297-141T338 742v-52q0-222 104-354.5T742 203q88 0 142.5 15t85.5 35v247l-208 16v205h501V162q-71-70-207-126.5T712-21q-295 0-480 197.5T47 690zm314 1186l2 6h198q0-58 34-96t107-38q71 0 105 37.5t34 96.5h199l2-6q5-127-88.5-207.5T702 1588q-159 0-253 80.5T361 1876z" unicode="Ğ" horiz-adv-x="1353"/><glyph d="M81 0zm0 511v21q0 256 111.5 413T505 1102q91 0 160-40.5T783 946l21 136h254V32q0-214-134.5-341.5T554-437q-82 0-174 22.5T210-353l54 205q70-30 140-47.5T552-213q107 0 160 65t53 181v71q-48-61-113-93T503-21q-199 0-310.5 146.5T81 511zm135 1044l2 6h198q0-58 34-96t107-38q71 0 105 37.5t34 96.5h199l2-6q5-127-88.5-207.5T557 1267q-159 0-253 80.5T216 1555zM373 511q0-142 48-223.5T577 206q67 0 113.5 24.5T765 302v470q-28 49-74.5 76T579 875q-107 0-156.5-95T373 532v-21z" unicode="ğ" horiz-adv-x="1170"/><glyph d="M47 0zm0 690v50q0 327 182.5 532T706 1477q171 0 312.5-54.5T1254 1275V982h-216l-41 195q-40 34-105.5 54.5T741 1252q-191 0-297-141T338 742v-52q0-222 104-354.5T742 203q88 0 142.5 15t85.5 35v247l-208 16v205h501V162q-71-70-207-126.5T712-21q-295 0-480 197.5T47 690zm496 910v241h305v-241H543z" unicode="Ġ" horiz-adv-x="1353"/><glyph d="M81 0zm0 511v21q0 256 111.5 413T505 1102q91 0 160-40.5T783 946l21 136h254V32q0-214-134.5-341.5T554-437q-82 0-174 22.5T210-353l54 205q70-30 140-47.5T552-213q107 0 160 65t53 181v71q-48-61-113-93T503-21q-199 0-310.5 146.5T81 511zm292 0q0-142 48-223.5T577 206q67 0 113.5 24.5T765 302v470q-28 49-74.5 76T579 875q-107 0-156.5-95T373 532v-21zm25 768v241h305v-241H398z" unicode="ġ" horiz-adv-x="1170"/><glyph d="M47 0zm0 690v50q0 327 182.5 532T706 1477q171 0 312.5-54.5T1254 1275V982h-216l-41 195q-40 34-105.5 54.5T741 1252q-191 0-297-141T338 742v-52q0-222 104-354.5T742 203q88 0 142.5 15t85.5 35v247l-208 16v205h501V162q-71-70-207-126.5T712-21q-295 0-480 197.5T47 690zM516-536q40 71 60.5 141.5T597-231v133h213v-120q0-105-42.5-214.5T660-614z" unicode="Ģ" horiz-adv-x="1353"/><glyph d="M81 0zm0 511v21q0 256 111.5 413T505 1102q91 0 160-40.5T783 946l21 136h254V32q0-214-134.5-341.5T554-437q-82 0-174 22.5T210-353l54 205q70-30 140-47.5T552-213q107 0 160 65t53 181v71q-48-61-113-93T503-21q-199 0-310.5 146.5T81 511zm292 0q0-142 48-223.5T577 206q67 0 113.5 24.5T765 302v470q-28 49-74.5 76T579 875q-107 0-156.5-95T373 532v-21zm62 741v175l114 260h160l-36-270v-165H435z" unicode="ģ" horiz-adv-x="1170"/><glyph d="M56 0v175l155 30v1045l-155 30v176h603v-176l-156-30V830h594v420l-156 30v176h603v-176l-156-30V205l156-30V0H941v175l156 30v400H503V205l156-30V0H56zm0 0zm378 1580v26l282 240h169l287-243v-23H955l-155 146-154-146H434z" unicode="Ĥ" horiz-adv-x="1601"/><glyph d="M32 0zm0 1384v176h447V944q51 75 125 116.5t164 41.5q170 0 266.5-112.5T1131 642V205l140-30V0H713v175l126 30v439q0 126-44.5 178.5T662 875q-61 0-106.5-22T479 791V205l126-30V0H47v175l141 30v1149zm192 249v26l282 240h169l287-243v-23H745l-155 146-154-146H224z" unicode="ĥ" horiz-adv-x="1302"/><glyph d="M38 0v175l155 30v753H71v152h122v140l-155 30v176h603v-176l-156-30v-140h594v140l-156 30v176h603v-176l-156-30v-140h123V958h-123V205l156-30V0H923v175l156 30v400H485V205l156-30V0H38zm447 830h594v128H485V830z" unicode="Ħ" horiz-adv-x="1567"/><glyph d="M9 1120v155h209v79l-156 30v176h447v-285h201v-155H509V944q51 75 125 116.5t164 41.5q170 0 266.5-112.5T1161 642V205l140-30V0H743v175l126 30v439q0 126-44.5 178.5T692 875q-61 0-106.5-22T509 791V205l126-30V0H77v175l141 30v915H9z" unicode="ħ" horiz-adv-x="1332"/><glyph d="M-44 1623q0 94 59.5 163.5T165 1856q56 0 151.5-43.5T464 1769q35 0 60.5 32t25.5 79l155-45q0-96-59.5-163.5T495 1604q-70 0-158.5 43.5T196 1691q-36 0-60.5-32.5T111 1581zM0 0zm55 0v175l156 30v1045l-156 30v176h603v-176l-156-30V205l156-30V0H55z" unicode="Ĩ" horiz-adv-x="713"/><glyph d="M-23 1302q0 94 59.5 163.5T186 1535q56 0 151.5-43.5T485 1448q35 0 60.5 32t25.5 79l155-45q0-96-59.5-163.5T516 1283q-70 0-158.5 43.5T217 1370q-36 0-60.5-32.5T132 1260zM0 0zm70 906v176h448V205l140-30V0H85v175l141 30v671z" unicode="ĩ" horiz-adv-x="686"/><glyph d="M-37 1616v165h731v-165H-37zM0 0zm55 0v175l156 30v1045l-156 30v176h603v-176l-156-30V205l156-30V0H55z" unicode="Ī" horiz-adv-x="713"/><glyph d="M-16 1295v165h731v-165H-16zM0 0zm70 906v176h448V205l140-30V0H85v175l141 30v671z" unicode="ī" horiz-adv-x="686"/><glyph d="M-7 1876l2 6h198q0-58 34-96t107-38q71 0 105 37.5t34 96.5h199l2-6q5-127-88.5-207.5T334 1588q-159 0-253 80.5T-7 1876zM0 0zm55 0v175l156 30v1045l-156 30v176h603v-176l-156-30V205l156-30V0H55z" unicode="Ĭ" horiz-adv-x="713"/><glyph d="M8 0zm6 1555l2 6h198q0-58 34-96t107-38q71 0 105 37.5t34 96.5h199l2-6q5-127-88.5-207.5T355 1267q-159 0-253 80.5T14 1555zm56-649v176h448V205l140-30V0H85v175l141 30v671z" unicode="ĭ" horiz-adv-x="686"/><glyph d="M55 0v175l156 30v1045l-156 30v176h603v-176l-156-30V205l156-30V0H55zm0 0zm281-210q0 77 46 146.5T526 60L658 0q-53-53-78-90t-25-86q0-27 16.5-48.5T640-246q28 0 49.5 6t44.5 14l35-154q-36-19-80-31.5T584-424q-109 0-178.5 56.5T336-210z" unicode="Į" horiz-adv-x="713"/><glyph d="M39 0zm0 906v176h448V205l140-30V0H54v175l141 30v671zm156 435v219h292v-219H195zM305-210q0 77 46 146.5T495 60L627 0q-53-53-78-90t-25-86q0-27 16.5-48.5T609-246q28 0 49.5 6t44.5 14l35-154q-36-19-80-31.5T553-424q-109 0-178.5 56.5T305-210z" unicode="į" horiz-adv-x="660"/><glyph d="M55 0v175l156 30v1045l-156 30v176h603v-176l-156-30V205l156-30V0H55zm0 0zm119 1600v241h305v-241H174z" unicode="İ" horiz-adv-x="713"/><glyph d="M70 906v176h448V205l140-30V0H85v175l141 30v671z" unicode="ı" horiz-adv-x="686"/><glyph d="M55 0v175l156 30v1045l-156 30v176h603v-176l-156-30V205l156-30V0H55zm0 0zm693 417l2 6h284q0-115 55-167.5t148-52.5q81 0 137.5 62.5T1431 437v813l-156 30v176h603v-176l-156-30V437q0-211-137.5-334.5T1237-21q-228 0-361 111T748 417z" unicode="Ĳ" horiz-adv-x="1905"/><glyph d="M39 0zm0 906v176h448V205l140-30V0H54v175l141 30v671zm156 435v219h292v-219H195zM627-420l14 223q22-6 45-9t50-3q59 0 91.5 41.5T860-40v916l-156 30v176h448V-40q0-190-101-293.5T771-437q-41 0-74.5 4T627-420zm227 1763v217h292v-217H854z" unicode="ĳ" horiz-adv-x="1259"/><glyph d="M30 0zm5 417l2 6h284q0-115 55-167.5T524 203q81 0 137.5 62.5T718 437v813l-156 30v176h603v-176l-156-30V437q0-211-137.5-334.5T524-21Q296-21 163 90T35 417zm466 1160v26l282 240h169l287-243v-23h-217l-155 146-154-146H501z" unicode="Ĵ" horiz-adv-x="1192"/><glyph d="M-76 1245v26l282 240h169l287-243v-23H445l-155 146-154-146H-76zm57-1665l15 221q21-6 46-9.5t52-3.5q57 0 89 45t32 127v916L59 906v176h447V-40q0-191-100.5-294T125-437q-41 0-74.5 4T-19-420zM0 0z" unicode="ĵ" horiz-adv-x="621"/><glyph d="M56 0v175l155 30v1045l-155 30v176h595v-176l-148-30V861h127l280 407-86 12v176h577v-176l-158-27-358-478 402-575 146-25V0H856v175l90 12-280 421H503V205l148-30V0H56zm0 0zm477-524q40 71 60.5 141.5T614-219v133h213v-120q0-105-42.5-214.5T677-602z" unicode="Ķ" horiz-adv-x="1464"/><glyph d="M32 0zm0 1384v176h447V656h65l168 237-95 13v176h532V906l-128-29-195-268 273-411 111-23V0H710v175l60 10-166 268H479V205l126-30V0H47v175l141 30v1149zM462-532q40 71 60.5 141.5T543-227v133h213v-120q0-105-42.5-214.5T606-610z" unicode="ķ" horiz-adv-x="1249"/><glyph d="M42 906v176h437V662h95l162 231-96 13v176h531V906l-127-29-214-274 269-405 111-23V0H886L604 453H479V205l126-30V0H47v175l141 30v671z" unicode="ĸ" horiz-adv-x="1270"/><glyph d="M56 0v175l155 30v1045l-155 30v176h603v-176l-156-30V224h411l14 183h223V0H56zm0 0zm100 1559l199 266h309l2-6-276-260H156z" unicode="Ĺ" horiz-adv-x="1200"/><glyph d="M32 0zm0 1384v176h448V205l141-30V0H47v175l141 30v1149zm123 239l199 266h309l2-6-276-260H155z" unicode="ĺ" horiz-adv-x="653"/><glyph d="M56 0v175l155 30v1045l-155 30v176h603v-176l-156-30V224h411l14 183h223V0H56zm0 0zm403-523q40 71 60.5 141.5T540-218v133h213v-120q0-105-42.5-214.5T603-601z" unicode="Ļ" horiz-adv-x="1200"/><glyph d="M32 0zm0 1384v176h448V205l141-30V0H47v175l141 30v1149zM145-527q40 71 60.5 141.5T226-222v133h213v-120q0-105-42.5-214.5T289-605z" unicode="ļ" horiz-adv-x="653"/><glyph d="M56 0v175l155 30v1045l-155 30v176h603v-176l-156-30V224h411l14 183h223V0H56zm0 0zm613 1017q40 71 60.5 141.5T750 1322v133h213v-120q0-105-42.5-214.5T813 939z" unicode="Ľ" horiz-adv-x="1200"/><glyph d="M32 0zm0 1384v176h448V205l141-30V0H47v175l141 30v1149zm485-263q40 71 60.5 141.5T598 1426v133h213v-120q0-105-42.5-214.5T661 1043z" unicode="ľ" horiz-adv-x="803"/><glyph d="M56 0v175l155 30v1045l-155 30v176h603v-176l-156-30V224h411l14 183h223V0H56zm0 0zm571 691v241h305V691H627z" unicode="Ŀ" horiz-adv-x="1200"/><glyph d="M32 0zm0 1384v176h448V205l141-30V0H47v175l141 30v1149zm524-732v241h305V652H556z" unicode="ŀ" horiz-adv-x="873"/><glyph d="M56 0v175l155 30v406L73 572v195l138 39v444l-155 30v176h603v-176l-156-30V890l220 64V759l-220-64V224h411l14 183h223V0H56z" unicode="Ł" horiz-adv-x="1192"/><glyph d="M25 1384v176h448V905l146 49V759l-146-49V205l141-30V0H40v175l141 30v409L54 572v195l127 42v545z" unicode="ł" horiz-adv-x="653"/><glyph d="M56 0v175l155 30v1045l-155 30v176h447l588-980 6 1v773l-156 30v176h603v-176l-156-30V0h-291L509 980l-6-1V205l156-30V0H56zm0 0zm554 1560l199 266h309l2-6-276-260H610z" unicode="Ń" horiz-adv-x="1582"/><glyph d="M32 0zm0 906v176h427l13-155q54 83 133 129t177 46q164 0 256-103t92-323V205l140-30V0H712v175l125 30v470q0 109-44 154.5T660 875q-58 0-104-23.5T479 785V205l118-30V0H47v175l140 30v671zm413 330l199 266h309l2-6-276-260H445z" unicode="ń" horiz-adv-x="1300"/><glyph d="M56 0v175l155 30v1045l-155 30v176h447l588-980 6 1v773l-156 30v176h603v-176l-156-30V0h-291L509 980l-6-1V205l156-30V0H56zm0 0zm541-523q40 71 60.5 141.5T678-218v133h213v-120q0-105-42.5-214.5T741-601z" unicode="Ņ" horiz-adv-x="1582"/><glyph d="M32 0zm0 906v176h427l13-155q54 83 133 129t177 46q164 0 256-103t92-323V205l140-30V0H712v175l125 30v470q0 109-44 154.5T660 875q-58 0-104-23.5T479 785V205l118-30V0H47v175l140 30v671zM459-525q40 71 60.5 141.5T540-220v133h213v-120q0-105-42.5-214.5T603-603z" unicode="ņ" horiz-adv-x="1300"/><glyph d="M56 0v175l155 30v1045l-155 30v176h447l588-980 6 1v773l-156 30v176h603v-176l-156-30V0h-291L509 980l-6-1V205l156-30V0H56zm0 0zm330 1851v16h249l132-140 132 140h248v-17l-280-255H667z" unicode="Ň" horiz-adv-x="1582"/><glyph d="M32 0zm0 906v176h427l13-155q54 83 133 129t177 46q164 0 256-103t92-323V205l140-30V0H712v175l125 30v470q0 109-44 154.5T660 875q-58 0-104-23.5T479 785V205l118-30V0H47v175l140 30v671zm189 621v16h249l132-140 132 140h248v-17l-280-255H502z" unicode="ň" horiz-adv-x="1300"/><glyph d="M-82 1120q40 71 60.5 141.5T-1 1425v133h213v-120q0-105-42.5-214.5T62 1042zM0 0zm32 906v176h427l13-155q54 83 133 129t177 46q164 0 256-103t92-323V205l140-30V0H712v175l125 30v470q0 109-44 154.5T660 875q-58 0-104-23.5T479 785V205l118-30V0H47v175l140 30v671z" unicode="ŉ" horiz-adv-x="1300"/><glyph d="M68 0v175l156 30v1045l-156 30v176h448l587-981 6 1v774l-155 30v176h602v-176l-155-30V-40q0-190-101-293.5T1019-437q-41 0-74 4t-70 13l14 221q23-6 47.5-9.5T988-212q57 0 89 45t32 127V0L522 982l-6-1V205l155-30V0H68z" unicode="Ŋ" horiz-adv-x="1584"/><glyph d="M78 906v176h426l14-152q53 81 132 126.5t176 45.5q163 0 255-106t92-333V-40q0-190-101-293.5T792-437q-41 0-75 4t-70 13l14 224q22-5 47-8.5t53-3.5q58 0 89 43t31 125v702q0 116-40.5 164.5T719 875q-64 0-113-23.5T525 786V205l140-30V0H93v175l140 30v671z" unicode="ŋ" horiz-adv-x="1282"/><glyph d="M67 0zm0 717v22q0 318 181 528t476 210q296 0 479.5-210T1387 739v-22q0-320-183-529T725-21q-295 0-476.5 209T67 717zm282 899v165h731v-165H349zm10-899q0-230 91.5-370.5T725 206q185 0 278 140.5t93 370.5v24q0 226-94 367t-278 141-274.5-140T359 741v-24z" unicode="Ō" horiz-adv-x="1448"/><glyph d="M63 0zm0 530v21q0 242 135.5 396.5T573 1102q240 0 375.5-154T1084 551v-21q0-244-135.5-397.5T575-21q-241 0-376.5 153.5T63 530zm133 765v165h731v-165H196zm159-765q0-148 52-237.5T575 203q113 0 165.5 90T793 530v21q0 144-53 235t-167 91-166-91-52-235v-21z" unicode="ō" horiz-adv-x="1148"/><glyph d="M67 0zm0 717v22q0 318 181 528t476 210q296 0 479.5-210T1387 739v-22q0-320-183-529T725-21q-295 0-476.5 209T67 717zm292 0q0-230 91.5-370.5T725 206q185 0 278 140.5t93 370.5v24q0 226-94 367t-278 141-274.5-140T359 741v-24zm20 1159l2 6h198q0-58 34-96t107-38q71 0 105 37.5t34 96.5h199l2-6q5-127-88.5-207.5T720 1588q-159 0-253 80.5T379 1876z" unicode="Ŏ" horiz-adv-x="1448"/><glyph d="M63 0zm0 530v21q0 242 135.5 396.5T573 1102q240 0 375.5-154T1084 551v-21q0-244-135.5-397.5T575-21q-241 0-376.5 153.5T63 530zm163 1025l2 6h198q0-58 34-96t107-38q71 0 105 37.5t34 96.5h199l2-6q5-127-88.5-207.5T567 1267q-159 0-253 80.5T226 1555zM355 530q0-148 52-237.5T575 203q113 0 165.5 90T793 530v21q0 144-53 235t-167 91-166-91-52-235v-21z" unicode="ŏ" horiz-adv-x="1148"/><glyph d="M67 0zm0 717v22q0 318 181 528t476 210q296 0 479.5-210T1387 739v-22q0-320-183-529T725-21q-295 0-476.5 209T67 717zm292 0q0-230 91.5-370.5T725 206q185 0 278 140.5t93 370.5v24q0 226-94 367t-278 141-274.5-140T359 741v-24zm6 883l199 266h260l2-5-240-261H365zm347 5l240 261h263l2-6-285-260H714z" unicode="Ő" horiz-adv-x="1448"/><glyph d="M63 0zm0 530v21q0 242 135.5 396.5T573 1102q240 0 375.5-154T1084 551v-21q0-244-135.5-397.5T575-21q-241 0-376.5 153.5T63 530zm149 749l199 266h260l2-5-240-261H212zm143-749q0-148 52-237.5T575 203q113 0 165.5 90T793 530v21q0 144-53 235t-167 91-166-91-52-235v-21zm204 754l240 261h263l2-6-285-260H561z" unicode="ő" horiz-adv-x="1148"/><glyph d="M103 576v304q0 265 167.5 431T708 1477q69 0 140-6t150-15h936v-399h-224l-13 174h-466V865h493V640h-493V224h470l13 174h222V0H998q-92-10-156.5-15.5T710-21q-270 0-438.5 166T103 576zm291 0q0-182 84-277t232-95q58 0 115.5 4.5T939 222v1011q-59 8-116.5 13.5T708 1252q-148 0-231-94.5T394 882V576z" unicode="Œ" horiz-adv-x="1996"/><glyph d="M92 530v21q0 242 135.5 396.5T602 1102q115 0 208.5-38.5T971 955q64 71 152.5 109t196.5 38q219 0 340-132t121-357V454h-647l-2-6q8-107 71.5-176t173.5-69q97 0 161 19.5t139 61.5l80-180q-66-53-173-89t-238-36q-117 0-211.5 38T973 127Q907 55 813.5 17T604-21q-241 0-376.5 153.5T92 530zm292 0q0-148 52-237.5T604 203q113 0 165.5 90T822 530v21q0 144-53 235t-167 91-166-91-52-235v-21zm750 122l2-5h359v26q0 93-43.5 148.5T1320 877q-81 0-128-62t-58-163z" unicode="œ" horiz-adv-x="1875"/><glyph d="M56 0v175l155 30v1045l-155 30v176h654q248 0 389-113.5t141-313.5q0-110-59-191t-173-131q129-38 185.5-126.5T1250 361v-74q0-48 19-74.5t63-31.5l36-5V0h-151q-143 0-201 77t-58 199v83q0 106-56.5 166.5T742 589H503V205l156-30V0H56zm0 0zm437 1560l199 266h309l2-6-276-260H493zm10-746h202q122 0 183 52t61 150-60.5 156.5T710 1231H503V814z" unicode="Ŕ" horiz-adv-x="1408"/><glyph d="M70 0zm0 906v176h427l13-158q38 84 98 131t139 47q23 0 48.5-3.5t42.5-8.5l-31-266-120 3q-64 0-106-25t-64-71V205l140-30V0H85v175l140 30v671zm226 332l199 266h309l2-6-276-260H296z" unicode="ŕ" horiz-adv-x="862"/><glyph d="M56 0v175l155 30v1045l-155 30v176h654q248 0 389-113.5t141-313.5q0-110-59-191t-173-131q129-38 185.5-126.5T1250 361v-74q0-48 19-74.5t63-31.5l36-5V0h-151q-143 0-201 77t-58 199v83q0 106-56.5 166.5T742 589H503V205l156-30V0H56zm0 0zm447 814h202q122 0 183 52t61 150-60.5 156.5T710 1231H503V814zm67-1343q40 71 60.5 141.5T651-224v133h213v-120q0-105-42.5-214.5T714-607z" unicode="Ŗ" horiz-adv-x="1408"/><glyph d="M70 0zm0 906v176h427l13-158q38 84 98 131t139 47q23 0 48.5-3.5t42.5-8.5l-31-266-120 3q-64 0-106-25t-64-71V205l140-30V0H85v175l140 30v671zm74-1429q40 71 60.5 141.5T225-218v133h213v-120q0-105-42.5-214.5T288-601z" unicode="ŗ" horiz-adv-x="862"/><glyph d="M56 0v175l155 30v1045l-155 30v176h654q248 0 389-113.5t141-313.5q0-110-59-191t-173-131q129-38 185.5-126.5T1250 361v-74q0-48 19-74.5t63-31.5l36-5V0h-151q-143 0-201 77t-58 199v83q0 106-56.5 166.5T742 589H503V205l156-30V0H56zm0 0zm213 1851v16h249l132-140 132 140h248v-17l-280-255H550zM503 814h202q122 0 183 52t61 150-60.5 156.5T710 1231H503V814z" unicode="Ř" horiz-adv-x="1408"/><glyph d="M70 0zm0 906v176h427l13-158q38 84 98 131t139 47q23 0 48.5-3.5t42.5-8.5l-31-266-120 3q-64 0-106-25t-64-71V205l140-30V0H85v175l140 30v671zm2 623v16h249l132-140 132 140h248v-17l-280-255H353z" unicode="ř" horiz-adv-x="862"/><glyph d="M97 0zm0 1071q0 177 150 289.5T624 1476q168 0 306-51t232-136V991H943l-38 200q-38 24-111 42t-155 18q-120 0-185.5-50.5T388 1070q0-74 68.5-121.5T693 848q241-67 365.5-177T1183 382q0-187-148-295T645-21q-173 0-312.5 55T100 186v304h226l31-207q44-36 119.5-59.5T645 200q120 0 182.5 49T890 380q0 84-59.5 135T622 611q-259 75-392 178T97 1071zm360 488l199 266h309l2-6-276-260H457z" unicode="Ś" horiz-adv-x="1242"/><glyph d="M97 0zm0 767q0 136 112 234.5t319 98.5q126 0 238.5-34T943 979l3-269H750l-31 135q-30 24-75.5 40T543 901q-77 0-122-34.5T376 780q0-49 43-81.5T591 641q201-40 298-117.5T986 310q0-146-125.5-238.5T530-21q-125 0-229.5 36.5T115 120l-3 243h204l40-141q26-22 71-32.5t94-10.5q89 0 135.5 32t46.5 87q0 48-47 83t-173 62q-191 39-288.5 115.5T97 767zm261 472l199 266h309l2-6-276-260H358z" unicode="ś" horiz-adv-x="1054"/><glyph d="M97 0zm0 1071q0 177 150 289.5T624 1476q168 0 306-51t232-136V991H943l-38 200q-38 24-111 42t-155 18q-120 0-185.5-50.5T388 1070q0-74 68.5-121.5T693 848q241-67 365.5-177T1183 382q0-187-148-295T645-21q-173 0-312.5 55T100 186v304h226l31-207q44-36 119.5-59.5T645 200q120 0 182.5 49T890 380q0 84-59.5 135T622 611q-259 75-392 178T97 1071zm169 509v26l282 240h169l287-243v-23H787l-155 146-154-146H266z" unicode="Ŝ" horiz-adv-x="1242"/><glyph d="M97 0zm0 767q0 136 112 234.5t319 98.5q126 0 238.5-34T943 979l3-269H750l-31 135q-30 24-75.5 40T543 901q-77 0-122-34.5T376 780q0-49 43-81.5T591 641q201-40 298-117.5T986 310q0-146-125.5-238.5T530-21q-125 0-229.5 36.5T115 120l-3 243h204l40-141q26-22 71-32.5t94-10.5q89 0 135.5 32t46.5 87q0 48-47 83t-173 62q-191 39-288.5 115.5T97 767zm70 493v26l282 240h169l287-243v-23H688l-155 146-154-146H167z" unicode="ŝ" horiz-adv-x="1054"/><glyph d="M97 0zm0 1071q0 177 150 289.5T624 1476q168 0 306-51t232-136V991H943l-38 200q-38 24-111 42t-155 18q-120 0-185.5-50.5T388 1070q0-74 68.5-121.5T693 848q241-67 365.5-177T1183 382q0-187-148-295T645-21q-173 0-312.5 55T100 186v304h226l31-207q44-36 119.5-59.5T645 200q120 0 182.5 49T890 380q0 84-59.5 135T622 611q-259 75-392 178T97 1071zM492-138L523 4h219l-11-57q64-11 107-52t43-121q0-107-91.5-171T530-461l-7 161q51 0 81 20.5t30 62.5q0 41-32 57.5T492-138z" unicode="Ş" horiz-adv-x="1242"/><glyph d="M97 0zm0 767q0 136 112 234.5t319 98.5q126 0 238.5-34T943 979l3-269H750l-31 135q-30 24-75.5 40T543 901q-77 0-122-34.5T376 780q0-49 43-81.5T591 641q201-40 298-117.5T986 310q0-146-125.5-238.5T530-21q-125 0-229.5 36.5T115 120l-3 243h204l40-141q26-22 71-32.5t94-10.5q89 0 135.5 32t46.5 87q0 48-47 83t-173 62q-191 39-288.5 115.5T97 767zm278-905L406 4h219l-11-57q64-11 107-52t43-121q0-107-91.5-171T413-461l-7 161q51 0 81 20.5t30 62.5q0 41-32 57.5T375-138z" unicode="ş" horiz-adv-x="1054"/><glyph d="M97 0zm0 1071q0 177 150 289.5T624 1476q168 0 306-51t232-136V991H943l-38 200q-38 24-111 42t-155 18q-120 0-185.5-50.5T388 1070q0-74 68.5-121.5T693 848q241-67 365.5-177T1183 382q0-187-148-295T645-21q-173 0-312.5 55T100 186v304h226l31-207q44-36 119.5-59.5T645 200q120 0 182.5 49T890 380q0 84-59.5 135T622 611q-259 75-392 178T97 1071zm136 779v16h249l132-140 132 140h248v-17l-280-255H514z" unicode="Š" horiz-adv-x="1242"/><glyph d="M97 0zm0 767q0 136 112 234.5t319 98.5q126 0 238.5-34T943 979l3-269H750l-31 135q-30 24-75.5 40T543 901q-77 0-122-34.5T376 780q0-49 43-81.5T591 641q201-40 298-117.5T986 310q0-146-125.5-238.5T530-21q-125 0-229.5 36.5T115 120l-3 243h204l40-141q26-22 71-32.5t94-10.5q89 0 135.5 32t46.5 87q0 48-47 83t-173 62q-191 39-288.5 115.5T97 767zm37 763v16h249l132-140 132 140h248v-17l-280-255H415z" unicode="š" horiz-adv-x="1054"/><glyph d="M40 0zm0 1068v388h1298v-388h-224l-12 163H834V205l156-30V0H386v175l156 30v1026H275l-12-163H40zM538-130l31 142h219l-11-57q64-11 107-52t43-121q0-107-91.5-171T576-453l-7 161q51 0 81 20.5t30 62.5q0 41-32 57.5T538-130z" unicode="Ţ" horiz-adv-x="1377"/><glyph d="M44 0zm0 877v205h159v265h291v-265h190V877H494V326q0-63 26-90t70-27q30 0 52.5 2.5T693 220L718 9q-49-15-97-22.5T517-21q-151 0-232.5 83T203 325v552H44zM317-136L348 6h219l-11-57q64-11 107-52t43-121q0-107-91.5-171T355-459l-7 161q51 0 81 20.5t30 62.5q0 41-32 57.5T317-136z" unicode="ţ" horiz-adv-x="764"/><glyph d="M40 0zm0 1068v388h1298v-388h-224l-12 163H834V205l156-30V0H386v175l156 30v1026H275l-12-163H40zm251 782v16h249l132-140 132 140h248v-17l-280-255H572z" unicode="Ť" horiz-adv-x="1377"/><glyph d="M44 0zm0 877v205h159v265h291v-265h190V877H494V326q0-63 26-90t70-27q30 0 52.5 2.5T693 220L718 9q-49-15-97-22.5T517-21q-151 0-232.5 83T203 325v552H44zm563 296q40 71 60.5 141.5T688 1478v133h213v-120q0-105-42.5-214.5T751 1095z" unicode="ť" horiz-adv-x="804"/><glyph d="M40 1068v388h1298v-388h-224l-12 163H834V858h207V703H834V205l156-30V0H386v175l156 30v498H340v155h202v373H275l-12-163H40z" unicode="Ŧ" horiz-adv-x="1377"/><glyph d="M2 569v155h201v153H44v205h159v265h291v-265h190V877H494V724h209V569H494V326q0-63 26-90t70-27q30 0 52.5 2.5T693 220L718 9q-49-15-97-22.5T517-21q-151 0-232.5 83T203 325v244H2z" unicode="ŧ" horiz-adv-x="764"/><glyph d="M39 0zm0 1280v176h603v-176l-156-30V490q0-144 77.5-215.5T776 203q137 0 215 71t78 216v760l-155 30v176h603v-176l-156-30V490q0-245-161.5-378T776-21q-261 0-421.5 133T194 490v760zm354 344q0 94 59.5 163.5T602 1857q56 0 151.5-43.5T901 1770q35 0 60.5 32t25.5 79l155-45q0-96-59.5-163.5T932 1605q-70 0-158.5 43.5T633 1692q-36 0-60.5-32.5T548 1582z" unicode="Ũ" horiz-adv-x="1547"/><glyph d="M33 0zm0 906v176h411V427q0-118 39.5-169.5T601 206q69 0 119.5 22.5T803 293v583l-128 30v176h420V205l131-30V0H839l-19 137Q768 61 691.5 20T517-21Q346-21 249 88.5T152 429v447zm189 396q0 94 59.5 163.5T431 1535q56 0 151.5-43.5T730 1448q35 0 60.5 32t25.5 79l155-45q0-96-59.5-163.5T761 1283q-70 0-158.5 43.5T462 1370q-36 0-60.5-32.5T377 1260z" unicode="ũ" horiz-adv-x="1278"/><glyph d="M39 0zm0 1280v176h603v-176l-156-30V490q0-144 77.5-215.5T776 203q137 0 215 71t78 216v760l-155 30v176h603v-176l-156-30V490q0-245-161.5-378T776-21q-261 0-421.5 133T194 490v760zm361 337v165h731v-165H400z" unicode="Ū" horiz-adv-x="1547"/><glyph d="M33 0zm0 906v176h411V427q0-118 39.5-169.5T601 206q69 0 119.5 22.5T803 293v583l-128 30v176h420V205l131-30V0H839l-19 137Q768 61 691.5 20T517-21Q346-21 249 88.5T152 429v447zm196 389v165h731v-165H229z" unicode="ū" horiz-adv-x="1278"/><glyph d="M39 0zm0 1280v176h603v-176l-156-30V490q0-144 77.5-215.5T776 203q137 0 215 71t78 216v760l-155 30v176h603v-176l-156-30V490q0-245-161.5-378T776-21q-261 0-421.5 133T194 490v760zm391 597l2 6h198q0-58 34-96t107-38q71 0 105 37.5t34 96.5h199l2-6q5-127-88.5-207.5T771 1589q-159 0-253 80.5T430 1877z" unicode="Ŭ" horiz-adv-x="1547"/><glyph d="M33 0zm0 906v176h411V427q0-118 39.5-169.5T601 206q69 0 119.5 22.5T803 293v583l-128 30v176h420V205l131-30V0H839l-19 137Q768 61 691.5 20T517-21Q346-21 249 88.5T152 429v447zm226 649l2 6h198q0-58 34-96t107-38q71 0 105 37.5t34 96.5h199l2-6q5-127-88.5-207.5T600 1267q-159 0-253 80.5T259 1555z" unicode="ŭ" horiz-adv-x="1278"/><glyph d="M39 0zm0 1280v176h603v-176l-156-30V490q0-144 77.5-215.5T776 203q137 0 215 71t78 216v760l-155 30v176h603v-176l-156-30V490q0-245-161.5-378T776-21q-261 0-421.5 133T194 490v760zm527 465q0 83 61.5 139.5T779 1941q88 0 148.5-56.5T988 1745q0-84-60.5-138T779 1553q-91 0-152 54t-61 138zm115 0q0-43 28-70.5t70-27.5q41 0 67 27.5t26 70.5q0 44-26 72t-67 28q-42 0-70-28.5t-28-71.5z" unicode="Ů" horiz-adv-x="1547"/><glyph d="M33 0zm0 906v176h411V427q0-118 39.5-169.5T601 206q69 0 119.5 22.5T803 293v583l-128 30v176h420V205l131-30V0H839l-19 137Q768 61 691.5 20T517-21Q346-21 249 88.5T152 429v447zm362 517q0 83 61.5 139.5T608 1619q88 0 148.5-56.5T817 1423q0-84-60.5-138T608 1231q-91 0-152 54t-61 138zm115 0q0-43 28-70.5t70-27.5q41 0 67 27.5t26 70.5q0 44-26 72t-67 28q-42 0-70-28.5t-28-71.5z" unicode="ů" horiz-adv-x="1278"/><glyph d="M39 0zm0 1280v176h603v-176l-156-30V490q0-144 77.5-215.5T776 203q137 0 215 71t78 216v760l-155 30v176h603v-176l-156-30V490q0-245-161.5-378T776-21q-261 0-421.5 133T194 490v760zm377 321l199 266h260l2-5-240-261H416zm347 5l240 261h263l2-6-285-260H765z" unicode="Ű" horiz-adv-x="1547"/><glyph d="M33 0zm0 906v176h411V427q0-118 39.5-169.5T601 206q69 0 119.5 22.5T803 293v583l-128 30v176h420V205l131-30V0H839l-19 137Q768 61 691.5 20T517-21Q346-21 249 88.5T152 429v447zm212 373l199 266h260l2-5-240-261H245zm347 5l240 261h263l2-6-285-260H594z" unicode="ű" horiz-adv-x="1278"/><glyph d="M39 0zm0 1280v176h603v-176l-156-30V490q0-144 77.5-215.5T776 203q137 0 215 71t78 216v760l-155 30v176h603v-176l-156-30V490q0-245-161.5-378T776-21q-261 0-421.5 133T194 490v760zM552-212q0 77 46 146.5T742 58L874-2q-53-53-78-90t-25-86q0-27 16.5-48.5T856-248q28 0 49.5 6t44.5 14l35-154q-36-19-80-31.5T800-426q-109 0-178.5 56.5T552-212z" unicode="Ų" horiz-adv-x="1547"/><glyph d="M33 0zm0 906v176h411V427q0-118 39.5-169.5T601 206q69 0 119.5 22.5T803 293v583l-128 30v176h420V205l131-30V0H839l-19 137Q768 61 691.5 20T517-21Q346-21 249 88.5T152 429v447zM904-210q0 77 46 146.5T1094 60l132-60q-53-53-78-90t-25-86q0-27 16.5-48.5T1208-246q28 0 49.5 6t44.5 14l35-154q-36-19-80-31.5T1152-424q-109 0-178.5 56.5T904-210z" unicode="ų" horiz-adv-x="1278"/><glyph d="M29 0zm0 1280v176h536v-176l-133-23 167-798 6-1 273 998h215l275-998 6 1 166 798-133 23v176h535v-176l-120-15L1527 0h-271L989 961h-6L716 0H445L148 1265zm567 301v26l282 240h169l287-243v-23h-217l-155 146-154-146H596z" unicode="Ŵ" horiz-adv-x="1972"/><glyph d="M39 0zm0 906v176h490V906l-115-22 102-495h6l202 693h196l204-695h6l101 496-116 23v176h490V906l-109-14L1270 0h-244L825 644h-6L618 0H375L148 892zm410 353v26l282 240h169l287-243v-23H970l-155 146-154-146H449z" unicode="ŵ" horiz-adv-x="1642"/><glyph d="M36 0zm0 1280v176h551v-176l-119-17 226-478h6l226 478-118 17v176h551v-176l-124-20-396-748V205l156-30V0H392v175l156 30v322l-389 733zm310 301v26l282 240h169l287-243v-23H867l-155 146-154-146H346z" unicode="Ŷ" horiz-adv-x="1398"/><glyph d="M26 0zm0 906v176h530V906l-121-20 148-432 15-78 6-1 171 511-122 20v176h530V906l-101-15L684-162q-47-117-125.5-196T322-437q-37 0-69.5 6T176-414l34 213q14-2 29-4t26-2q73 0 112 35.5T437-83l33 82-343 891zm197 339v26l282 240h169l287-243v-23H744l-155 146-154-146H223z" unicode="ŷ" horiz-adv-x="1212"/><glyph d="M36 0zm0 1280v176h551v-176l-119-17 226-478h6l226 478-118 17v176h551v-176l-124-20-396-748V205l156-30V0H392v175l156 30v322l-389 733zm280 321v204h267v-204H316zm500 0v204h267v-204H816z" unicode="Ÿ" horiz-adv-x="1398"/><glyph d="M74 0v152l710 1079H321l-23-176H75l22 401h1046v-146L430 224h507l24 176h222L1161 0H74zm0 0zm364 1561l199 266h309l2-6-276-260H438z" unicode="Ź" horiz-adv-x="1226"/><glyph d="M88 0v172l515 684H338l-11-143H103v369h866V915L450 224h302l12 144h223V0H88zm0 0zm278 1238l199 266h309l2-6-276-260H366z" unicode="ź" horiz-adv-x="1070"/><glyph d="M74 0v152l710 1079H321l-23-176H75l22 401h1046v-146L430 224h507l24 176h222L1161 0H74zm0 0zm374 1602v241h305v-241H448z" unicode="Ż" horiz-adv-x="1226"/><glyph d="M88 0v172l515 684H338l-11-143H103v369h866V915L450 224h302l12 144h223V0H88zm0 0zm288 1279v241h305v-241H376z" unicode="ż" horiz-adv-x="1070"/><glyph d="M74 0v152l710 1079H321l-23-176H75l22 401h1046v-146L430 224h507l24 176h222L1161 0H74zm0 0zm140 1852v16h249l132-140 132 140h248v-17l-280-255H495z" unicode="Ž" horiz-adv-x="1226"/><glyph d="M88 0v172l515 684H338l-11-143H103v369h866V915L450 224h302l12 144h223V0H88zm0 0zm54 1529v16h249l132-140 132 140h248v-17l-280-255H423z" unicode="ž" horiz-adv-x="1070"/><glyph d="M44 0v175l140 30v997q0 182 105 280.5t295 98.5q37 0 75.5-5.5T744 1560l-24-215q-28 5-48.5 8t-48.5 3q-71 0-109-40.5T476 1202V205l155-30V0H44z" unicode="ſ" horiz-adv-x="753"/><glyph d="M-19-420l15 221q21-6 46-9.5t52-3.5q57 0 88.5 45T214-40v917H54v205h160v120q0 182 105 280.5t296 98.5q37 0 74.5-5.5T775 1560l-25-217q-23 4-46.5 7t-52.5 3q-71 0-107.5-39T507 1202v-120h207V877H507l-1-917q0-190-101-293.5T124-437q-40 0-73.5 4T-19-420z" unicode="ƒ" horiz-adv-x="797"/><glyph d="M71 717v22q0 318 181 528t476 210q130 0 241.5-44t197.5-124q47 27 67 92t20 169h195q0-147-43-246.5T1275 1176q56-92 86-203t30-234v-22q0-320-183-529T729-21q-295 0-476.5 209T71 717zm292 0q0-230 91.5-370.5T729 206q185 0 278 140.5t93 370.5v24q0 226-94 367t-278 141-274.5-140T363 741v-24z" unicode="Ơ" horiz-adv-x="1490"/><glyph d="M78 530v21q0 242 135.5 396.5T588 1102q114 0 206.5-38T954 957q39 29 55 85t16 143h175q0-128-40.5-214.5T1035 842q31-64 47.5-137.5T1099 551v-21q0-244-135.5-397.5T590-21q-241 0-376.5 153.5T78 530zm292 0q0-148 52-237.5T590 203q113 0 165.5 90T808 530v21q0 144-53 235t-167 91-166-91-52-235v-21z" unicode="ơ" horiz-adv-x="1270"/><glyph d="M34 1280v176h603v-176l-155-30V490q0-144 77-215.5T771 203q137 0 215 71t78 216v760l-155 30v176h448v-278l6-1q128 2 167.5 76.5T1570 1492h189l2-5q3-229-89-348t-315-127V490q0-245-162-378T771-21q-261 0-421.5 133T189 490v760z" unicode="Ư" horiz-adv-x="1774"/><glyph d="M45 906v176h411V427q0-118 39.5-169.5T613 206q69 0 119.5 22.5T815 293v583l-128 30v176h420V958l6-1q65 11 86 62t21 157h171q0-167-65-256.5T1107 809V205l131-30V0H851l-19 137Q780 61 703.5 20T529-21Q358-21 261 88.5T164 429v447z" unicode="ư" horiz-adv-x="1373"/><glyph d="M-109 1514v16h249l132-140 132 140h248v-17l-280-255H172zm90-1934l15 221q21-6 46-9.5t52-3.5q57 0 89 45t32 127v916L59 906v176h447V-40q0-191-100.5-294T125-437q-41 0-74.5 4T-19-420zM0 0z" unicode="ǰ" horiz-adv-x="621"/><glyph d="M41 0v175l104 15 443 1266h299l440-1266 104-15V0H935v175l101 18-64 200H500l-64-200 101-18V0H41zm0 0zm491 1584q0 78 58.5 131t144.5 53q84 0 141.5-53t57.5-131q0-80-57.5-131T735 1402q-86 0-144.5 51.5T532 1584zm37-976h334l-164 513h-6zm76 976q0-39 25.5-63.5T735 1496q37 0 61.5 24.5T821 1584t-24.5 64.5T735 1674q-39 0-64.5-25.5T645 1584zm22 230l183 200h254l2-6-263-199H669z" unicode="Ǻ"/><glyph d="M74 0zm0 301q0 152 122 235t358 83h149v106q0 78-45 121t-133 43q-50 0-89-11.5T373 850l-19-116H134l1 240q80 54 183.5 91t225.5 37q201 0 326.5-98.5T996 723V276q0-25 .5-47t3.5-42l89-12V0H752q-12 27-21 55.5T717 113q-52-60-126.5-97T420-21q-159 0-252.5 86.5T74 301zm291 11q0-55 35.5-86t98.5-31q66 0 120 28.5t84 71.5v165H554q-93 0-141-43.5T365 312zm10 949q0 78 58.5 131t144.5 53q84 0 141.5-53t57.5-131q0-80-57.5-131T578 1079q-86 0-144.5 51.5T375 1261zm113 0q0-39 25.5-63.5T578 1173q37 0 61.5 24.5T664 1261t-24.5 64.5T578 1351q-39 0-64.5-25.5T488 1261zm22 230l183 200h254l2-6-263-199H512z" unicode="ǻ" horiz-adv-x="1125"/><glyph d="M66 0v175l136 20 678 1261h1017v-369h-223l-11 141h-362l16-366h499V635h-490l17-408h381l12 141h222V0H906v175l146 28-6 151H616l-83-165 84-14V0H66zm0 0zm664 582h306l-23 554-5 1zm196 977l199 266h309l2-6-276-260H926z" unicode="Ǽ" horiz-adv-x="2047"/><glyph d="M73 0zm0 317q0 159 127 245t370 86h181v59q0 79-41 124.5T595 877q-81 0-127-37.5T422 746l-283 18-2 6q-6 144 121.5 238t339.5 94q102 0 186-27.5T927 995q61 52 142.5 79.5T1250 1102q212 0 333-132t121-358V454h-650l-2-6q4-112 66-178.5t186-66.5q92 0 154 20t140 61l77-184q-62-48-169-84.5T1273-21q-129 0-229.5 40.5T876 136Q816 68 714.5 23.5T474-21q-192 0-296.5 90.5T73 317zm292-4q0-59 41.5-93.5T530 185q58 0 121 30.5T751 288v176H572q-98 0-152.5-44T365 313zm326 924l199 266h309l2-6-276-260H691zm363-588l2-5h362v28q0 94-42.5 149.5T1250 877q-95 0-142-61.5T1054 649z" unicode="ǽ" horiz-adv-x="1784"/><glyph d="M72 0zm0 717v22q0 318 181 528t476 210q83 0 159-18.5t144-53.5l66 113h144l-106-181q122-101 189-256.5t67-341.5v-22q0-320-183-529T730-21q-94 0-178 22.5T397 68L302-95H158l139 239Q189 244 130.5 392T72 717zm292 0q0-100 17-184.5T433 389l6-1 473 812q-39 23-85 36t-98 13q-184 0-274.5-140T364 741v-24zm155-440q41-35 93.5-53T730 206q185 0 278 140.5t93 370.5v24q0 112-24 206t-70 156l-6 1zm18 1282l199 266h309l2-6-276-260H537z" unicode="Ǿ" horiz-adv-x="1400"/><glyph d="M76 0zm0 530v21q0 242 135.5 396.5T586 1102q45 0 87-6.5t83-17.5l67 137h162l-98-201q101-72 155.5-192.5T1097 551v-21q0-244-135.5-397.5T588-21q-53 0-101 8t-91 23l-74-151H160L268 80q-94 72-143 188.5T76 530zm292 0q0-55 6.5-101t20.5-77l5-1 253 516q-16 4-33 7t-34 3q-114 0-166-91t-52-235v-21zm2 703l199 266h309l2-6-276-260H370zM499 221q18-9 40.5-13.5T588 203q113 0 165.5 90T806 530v21q0 62-10 115.5T767 756h-6z" unicode="ǿ" horiz-adv-x="1178"/><glyph d="M97 0zm0 1071q0 177 150 289.5T624 1476q168 0 306-51t232-136V991H943l-38 200q-38 24-111 42t-155 18q-120 0-185.5-50.5T388 1070q0-74 68.5-121.5T693 848q241-67 365.5-177T1183 382q0-187-148-295T645-21q-173 0-312.5 55T100 186v304h226l31-207q44-36 119.5-59.5T645 200q120 0 182.5 49T890 380q0 84-59.5 135T622 611q-259 75-392 178T97 1071zM458-536q40 71 60.5 141.5T539-231v133h213v-120q0-105-42.5-214.5T602-614z" unicode="Ș" horiz-adv-x="1242"/><glyph d="M97 0zm0 767q0 136 112 234.5t319 98.5q126 0 238.5-34T943 979l3-269H750l-31 135q-30 24-75.5 40T543 901q-77 0-122-34.5T376 780q0-49 43-81.5T591 641q201-40 298-117.5T986 310q0-146-125.5-238.5T530-21q-125 0-229.5 36.5T115 120l-3 243h204l40-141q26-22 71-32.5t94-10.5q89 0 135.5 32t46.5 87q0 48-47 83t-173 62q-191 39-288.5 115.5T97 767zM341-536q40 71 60.5 141.5T422-231v133h213v-120q0-105-42.5-214.5T485-614z" unicode="ș" horiz-adv-x="1054"/><glyph d="M40 0zm0 1068v388h1298v-388h-224l-12 163H834V205l156-30V0H386v175l156 30v1026H275l-12-163H40zM504-527q40 71 60.5 141.5T585-222v133h213v-120q0-105-42.5-214.5T648-605z" unicode="Ț" horiz-adv-x="1377"/><glyph d="M44 0zm0 877v205h159v265h291v-265h190V877H494V326q0-63 26-90t70-27q30 0 52.5 2.5T693 220L718 9q-49-15-97-22.5T517-21q-151 0-232.5 83T203 325v552H44zM283-533q40 71 60.5 141.5T364-228v133h213v-120q0-105-42.5-214.5T427-611z" unicode="ț" horiz-adv-x="764"/><glyph d="M90 1252v26l282 240h169l287-243v-23H611l-155 146-154-146H90z" unicode="ˆ" horiz-adv-x="890"/><glyph d="M114 1298q0 83 61.5 139.5T327 1494q88 0 148.5-56.5T536 1298q0-84-60.5-138T327 1106q-91 0-152 54t-61 138zm115 0q0-43 28-70.5t70-27.5q41 0 67 27.5t26 70.5q0 44-26 72t-67 28q-42 0-70-28.5t-28-71.5z" unicode="˚" horiz-adv-x="654"/><glyph d="M108 1272q0 94 59.5 163.5T317 1505q56 0 151.5-43.5T616 1418q35 0 60.5 32t25.5 79l155-45q0-96-59.5-163.5T647 1253q-70 0-158.5 43.5T348 1340q-36 0-60.5-32.5T263 1230z" unicode="˜" horiz-adv-x="950"/><glyph d="M56 0v175l155 30v1045l-155 30v176h1150v-399H982l-13 174H503V865h493V640H503V224h470l13 174h222V0H56zm0 0zm231 1828l2 6h310l196-266H559z" unicode="Ѐ" horiz-adv-x="1308"/><glyph d="M56 0v175l155 30v1045l-155 30v176h1150v-399H982l-13 174H503V865h493V640H503V224h470l13 174h222V0H56zm0 0zm189 1601v204h267v-204H245zm500 0v204h267v-204H745z" unicode="Ё" horiz-adv-x="1308"/><glyph d="M47 1087v369h1243v-369h-224l-12 144H769V860q69 16 129.5 25t116.5 9q248 0 393-116.5T1553 441q0-199-128-327.5T1023-12l-5 2-1 205q144 0 194.5 65t50.5 168q-1 112-65 175t-182 63q-67 0-126.5-6T769 643V205l128-30V0H321v175l155 30v1026H281l-11-144H47z" unicode="Ђ" horiz-adv-x="1602"/><glyph d="M65 0v175l155 30v1045l-155 30v176h1104v-369H945l-12 144H512V205l156-30V0H65zm0 0zm372 1560l199 266h309l2-6-276-260H437z" unicode="Ѓ" horiz-adv-x="1223"/><glyph d="M17 704v49q0 317 186 521t481 204q169 0 305-61.5t225-162.5V966H997l-30 194q-43 43-108.5 68T704 1253q-169 0-269.5-111T318 850l3-6h529V618H321l-3-6q15-184 114.5-296T699 204q86 0 157.5 25T967 297l30 194h217V203q-88-102-224.5-162.5T684-20q-293 0-480 203T17 704z" unicode="Є" horiz-adv-x="1300"/><glyph d="M97 1071q0 177 150 289.5T624 1476q168 0 306-51t232-136V991H943l-38 200q-38 24-111 42t-155 18q-120 0-185.5-50.5T388 1070q0-74 68.5-121.5T693 848q241-67 365.5-177T1183 382q0-187-148-295T645-21q-173 0-312.5 55T100 186v304h226l31-207q44-36 119.5-59.5T645 200q120 0 182.5 49T890 380q0 84-59.5 135T622 611q-259 75-392 178T97 1071z" unicode="Ѕ" horiz-adv-x="1242"/><glyph d="M55 0v175l156 30v1045l-156 30v176h603v-176l-156-30V205l156-30V0H55zm0 0z" unicode="І" horiz-adv-x="713"/><glyph d="M-56 1600v204h267v-204H-56zM0 0zm55 0v175l156 30v1045l-156 30v176h603v-176l-156-30V205l156-30V0H55zm389 1600v204h267v-204H444z" unicode="Ї" horiz-adv-x="713"/><glyph d="M30 0zm5 417l2 6h284q0-115 55-167.5T524 203q81 0 137.5 62.5T718 437v813l-156 30v176h603v-176l-156-30V437q0-211-137.5-334.5T524-21Q296-21 163 90T35 417z" unicode="Ј" horiz-adv-x="1192"/><glyph d="M46 0v224h40q150 0 204.5 123.5T345 793v457l-156 30v176h1281v-176l-155-30V947h250q250 0 398-132.5T2111 474q0-210-148-342T1565 0h-542v1231H637V793q0-421-135.5-607T89 0H46zm1269 224h250q122 0 188.5 73t66.5 179q0 102-66.5 174T1565 722h-250V224z" unicode="Љ" horiz-adv-x="2171"/><glyph d="M65 0v175l155 30v1045l-155 30v176h603v-176l-156-30V841h593v409l-155 30v176h602v-176l-155-30V929h250q251 0 399-129t148-334q0-206-148.5-336T1647 0H950v175l155 30v411H512V205l156-30V0H65zm1332 228h250q123 0 189 69t66 171q0 99-66 167.5T1647 704h-250V228z" unicode="Њ" horiz-adv-x="2246"/><glyph d="M52 1087v369h1213v-369h-223l-12 144H764V908q59 9 119 14.5t108 5.5q267 0 414-117t147-359V206l155-30V0h-602v176l155 30v246q0 141-64 196t-205 55q-48 0-109.5-5.5T764 683V205l155-30V0H316v175l156 30v1026H286l-11-144H52z" unicode="Ћ" horiz-adv-x="1742"/><glyph d="M56 0v175l155 30v1045l-155 30v176h595v-176l-148-30V861h127l280 407-86 12v176h577v-176l-158-27-358-478 402-575 146-25V0H856v175l90 12-280 421H503V205l148-30V0H56zm0 0zm508 1502l199 266h309l2-6-276-260H564z" unicode="Ќ" horiz-adv-x="1464"/><glyph d="M69 0v175l156 30v1045l-156 30v176h603v-176l-156-30V576l6-2 587 595v81l-155 30v176h603v-176l-155-30V205l155-30V0H954v175l155 30v658l-6 2-587-596v-64l156-30V0H69zm0 0zm392 1828l2 6h310l196-266H733z" unicode="Ѝ" horiz-adv-x="1605"/><glyph d="M40 0zm0 1280v176h535v-176l-73-14 211-457 23-77h6l201 531-87 17v176h530v-176l-142-19-415-985Q765 133 679 56T433-21q-25 0-56.5 1.5T329-16l-2 223q11-2 38-3t41-1q79 0 118.5 35T591 344l22 55-418 860zm348 597l2 6h198q0-58 34-96t107-38q71 0 105 37.5t34 96.5h199l2-6q5-127-88.5-207.5T729 1589q-159 0-253 80.5T388 1877z" unicode="Ў" horiz-adv-x="1407"/><glyph d="M65 0v175l155 30v1045l-155 30v176h602v-176l-155-30V224h593v1026l-155 30v176h603v-176l-155-30V205l155-30V0H968v-360H675V0H65z" unicode="Џ" horiz-adv-x="1602"/><glyph d="M41 0v175l104 15 443 1266h299l440-1266 104-15V0H935v175l101 18-64 200H500l-64-200 101-18V0H41zm0 0zm528 608h334l-164 513h-6z" unicode="А"/><glyph d="M64 0v175l155 30v1045l-155 30v176h1104v-369H944l-12 144H515V917h250q253 0 400-123.5T1312 464q0-209-148-336.5T765 0H64zm451 224h250q123 0 189.5 68.5T1021 466q0 100-66 163t-190 63H515V224z" unicode="Б" horiz-adv-x="1368"/><glyph d="M56 0v175l155 30v1045l-155 30v176h647q257 0 401-100t144-299q0-101-53.5-180.5T1039 757q131-28 196.5-120t65.5-213q0-209-138-316.5T772 0H56zm0 0zm447 224h269q116 0 177 50.5t61 149.5q0 107-52 163.5T794 644H503V224zm0 622h210q117 0 180 48t63 140q0 101-63.5 149T703 1231H503V846z" unicode="В" horiz-adv-x="1354"/><glyph d="M65 0v175l155 30v1045l-155 30v176h1104v-369H945l-12 144H512V205l156-30V0H65zm0 0z" unicode="Г" horiz-adv-x="1223"/><glyph d="M42 224h112q78 67 136 211.5T358 860l27 392-142 28v176h1258v-176l-155-30V224h172l-27-582h-265V0H333v-358H64zm443 0h569v1007H675l-24-371q-9-221-52.5-375.5T485 224z" unicode="Д" horiz-adv-x="1575"/><glyph d="M56 0v175l155 30v1045l-155 30v176h1150v-399H982l-13 174H503V865h493V640H503V224h470l13 174h222V0H56zm0 0z" unicode="Е" horiz-adv-x="1308"/><glyph d="M39 0v175l145 21 346 595-185 298q-49 71-84 97t-77 26q-22 0-38.5-3.5T109 1200l-43 219q35 23 80.5 37t98.5 14q108 0 174-47.5T557 1254l226-393h151v389l-156 30v176h603v-176l-156-30V861h151l222 393q69 121 135 168.5t175 47.5q52 0 97-14t83-37l-41-219q-21 5-38 8.5t-37 3.5q-43 0-78-26t-82-97l-186-302 338-591 151-21V0h-557v175l58 11-216 410h-175V205l156-30V0H778v175l156 30v391H753L533 186l56-11V0H39z" unicode="Ж" horiz-adv-x="2150"/><glyph d="M58 398l2 6h284q0-85 69.5-143T592 203q123 0 195 58.5T859 411q0 115-63 168.5T608 633H431v219h177q117 0 173 54t56 151q0 85-66 140t-199 55q-86 0-151.5-25.5T316 1159l-30-181H69v275q85 100 221 162t302 62q248 0 392-108t144-308q0-100-60-183T903 748q120-43 184-129.5t64-210.5q0-201-155-315T592-21Q373-21 213 86T58 398z" unicode="З" horiz-adv-x="1221"/><glyph d="M69 0v175l156 30v1045l-156 30v176h603v-176l-156-30V576l6-2 587 595v81l-155 30v176h603v-176l-155-30V205l155-30V0H954v175l155 30v658l-6 2-587-596v-64l156-30V0H69z" unicode="И" horiz-adv-x="1605"/><glyph d="M69 0v175l156 30v1045l-156 30v176h603v-176l-156-30V576l6-2 587 595v81l-155 30v176h603v-176l-155-30V205l155-30V0H954v175l155 30v658l-6 2-587-596v-64l156-30V0H69zm0 0zm399 1877l2 6h198q0-58 34-96t107-38q71 0 105 37.5t34 96.5h199l2-6q5-127-88.5-207.5T809 1589q-159 0-253 80.5T468 1877z" unicode="Й" horiz-adv-x="1605"/><glyph d="M56 0v175l155 30v1045l-155 30v176h595v-176l-148-30V861h131l273 393q87 122 154 169t178 47q51 0 95-14t81-37l-49-219q-32 7-43.5 9.5t-31.5 2.5q-46 0-85-26t-94-97L884 777l403-577 153-25V0H863v175l83 12-272 409H503V205l148-30V0H56z" unicode="К" horiz-adv-x="1464"/><glyph d="M48 0v224h39q136 11 182 128.5T319 793l5 457-153 30v176h1301v-176l-156-30V205l156-30V0H869v175l156 30v1026H615l-4-438q-5-424-123.5-608.5T120 0H48z" unicode="Л" horiz-adv-x="1526"/><glyph d="M56 0v175l155 30v1045l-155 30v176h536L963 383h6l374 1073h538v-176l-156-30V205l156-30V0h-603v175l155 30v229l28 643-6 1L1065 0H869L481 1074l-6-1 28-639V205l156-30V0H56zm0 0z" unicode="М" horiz-adv-x="1929"/><glyph d="M56 0v175l155 30v1045l-155 30v176h603v-176l-156-30V830h594v420l-156 30v176h603v-176l-156-30V205l156-30V0H941v175l156 30v400H503V205l156-30V0H56zm0 0z" unicode="Н" horiz-adv-x="1601"/><glyph d="M67 0zm0 717v22q0 318 181 528t476 210q296 0 479.5-210T1387 739v-22q0-320-183-529T725-21q-295 0-476.5 209T67 717zm292 0q0-230 91.5-370.5T725 206q185 0 278 140.5t93 370.5v24q0 226-94 367t-278 141-274.5-140T359 741v-24z" unicode="О" horiz-adv-x="1448"/><glyph d="M65 0v175l155 30v1045l-155 30v176h1488v-176l-155-30V205l155-30V0H951v175l155 30v1026H512V205l156-30V0H65zm0 0z" unicode="П" horiz-adv-x="1602"/><glyph d="M56 0v175l155 30v1045l-155 30v176h693q250 0 394.5-128.5T1288 991q0-209-144.5-336T749 528H503V205l156-30V0H56zm0 0zm447 753h246q122 0 184.5 66.5T996 989q0 105-62.5 173.5T749 1231H503V753z" unicode="Р" horiz-adv-x="1325"/><glyph d="M52 0zm0 703v49q0 317 186 521t481 204q169 0 305-61.5t225-162.5V965h-217l-30 194q-43 43-108.5 68T739 1252q-190 0-292.5-138T344 754v-51q0-222 102-361t288-139q86 0 157.5 25t110.5 68l30 194h217V202q-88-102-224.5-162.5T719-21q-293 0-480 203T52 703z" unicode="С" horiz-adv-x="1327"/><glyph d="M40 0zm0 1068v388h1298v-388h-224l-12 163H834V205l156-30V0H386v175l156 30v1026H275l-12-163H40z" unicode="Т" horiz-adv-x="1377"/><glyph d="M40 1280v176h535v-176l-73-14 211-457 23-77h6l201 531-87 17v176h530v-176l-142-19-415-985Q765 133 679 56T433-21q-25 0-56.5 1.5T329-16l-2 223q11-2 38-3t41-1q79 0 118.5 35T591 344l22 55-418 860z" unicode="У" horiz-adv-x="1407"/><glyph d="M62 719q0 248 171.5 400.5T678 1272h7v78l-156 30v162h603v-162l-156-30v-78h3q273 0 445-151.5T1596 721q0-244-172.5-392.5T979 180h-3v-74l156-30V-86H529V76l156 30v74h-7q-274 0-445 147.5T62 719zm286 0q0-164 88-251t242-87h7v690h-7q-154 0-242-91.5T348 719zm628-338h5q153 0 241 88.5t88 251.5q0 169-88 259.5T981 1071h-5V381z" unicode="Ф" horiz-adv-x="1633"/><glyph d="M33 0v175l123 24 385 535-375 521-122 25v176h559v-176l-119-13 225-357 226 357-117 13v176h561v-176l-122-25-375-521 393-534 129-25V0H831v175l116 12-234 368-235-368 117-12V0H33zm0 0z" unicode="Х" horiz-adv-x="1438"/><glyph d="M65 0v175l155 30v1045l-155 30v176h602v-176l-155-30V224h593v1026l-155 30v176h603v-176l-155-30V223h204l-15-574h-276V0H65z" unicode="Ц" horiz-adv-x="1634"/><glyph d="M44 1280v176h603v-176l-156-30v-247q0-142 64-196t206-54q62 0 145.5 8.5T1056 786v464l-155 30v176h603v-176l-156-30V205l156-30V0H901v175l155 30v356q-67-16-149-24.5T761 528q-268 0-414.5 116T200 1003v247z" unicode="Ч" horiz-adv-x="1553"/><glyph d="M69 0v175l156 30v1045l-156 30v176h603v-176l-155-30V224h412v1026l-156 30v176h602v-176l-155-30V224h408v1026l-156 30v176h603v-176l-156-30V205l156-30V0H69z" unicode="Ш" horiz-adv-x="2114"/><glyph d="M69 0v175l156 30v1045l-156 30v176h603v-176l-155-30V224h412v1026l-156 30v176h602v-176l-155-30V224h408v1026l-156 30v176h603v-176l-156-30V224h187l-20-574h-271V0H69z" unicode="Щ" horiz-adv-x="2131"/><glyph d="M54 1088v368h1065v-176l-156-30V917h250q253 0 400-123.5T1760 464q0-209-148-336.5T1213 0H515v175l156 30v1026H288l-11-143H54zm909-864h250q123 0 189.5 68.5T1469 466q0 100-66 163t-190 63H963V224z" unicode="Ъ" horiz-adv-x="1737"/><glyph d="M48 0v175l156 30v1045l-156 30v176h448V917h250q253 0 400-123.5T1293 464q0-209-148-336.5T746 0H48zm448 224h250q123 0 189.5 68.5T1002 466q0 100-66 163t-190 63H496V224zm0 1026v206h156v-176zM1292 0v175l156 30v1045l-156 30v176h603v-176l-156-30V205l156-30V0h-603z" unicode="Ы" horiz-adv-x="1940"/><glyph d="M67 0v175l156 30v1045l-156 30v176h448V917h250q253 0 400-123.5T1312 464q0-209-148-336.5T765 0H67zm448 224h250q123 0 189.5 68.5T1021 466q0 100-66 163t-190 63H515V224zm0 1026v206h156v-176z" unicode="Ь" horiz-adv-x="1360"/><glyph d="M47 202v288h217l30-193q38-43 109.5-68T563 204q163 0 258 110.5T931 609l-2 5H420v226h509l2 5q-15 185-110 296t-263 111q-91 0-156.5-25T294 1159l-30-193H47v288q89 101 225 162t306 61q292 0 472.5-202.5T1231 752v-49q0-319-181.5-521T578-20q-170 0-306 60T47 202z" unicode="Э" horiz-adv-x="1268"/><glyph d="M19 0v175l156 30v1045l-156 30v176h603v-176l-156-30V810h139q21 292 199 479t455 187q296 0 479.5-210T1922 738v-22q0-320-183-529T1260-22q-263 0-438 168.5T611 585H466V205l156-30V0H19zm875 716q0-230 91.5-370.5T1260 205q185 0 278 140.5t93 370.5v24q0 226-94 367t-278 141-274.5-140T894 740v-24z" unicode="Ю" horiz-adv-x="1979"/><glyph d="M66 40l38 220q20-7 34.5-9.5T173 248q43 0 78.5 24.5T326 364l114 241q-151 57-226 155t-75 249q0 215 142 331t393 116h660v-176l-155-30V205l155-30V0H887v547H695L559 231Q505 116 425.5 53.5T239-9q-51 0-94.5 13T66 40zm364 957q0-112 62-174.5T674 760h213v471H674q-121 0-182.5-60.5T430 997zM731 0v175l156 30V0H731z" unicode="Я" horiz-adv-x="1377"/><glyph d="M74 0zm0 301q0 152 122 235t358 83h149v106q0 78-45 121t-133 43q-50 0-89-11.5T373 850l-19-116H134l1 240q80 54 183.5 91t225.5 37q201 0 326.5-98.5T996 723V276q0-25 .5-47t3.5-42l89-12V0H752q-12 27-21 55.5T717 113q-52-60-126.5-97T420-21q-159 0-252.5 86.5T74 301zm291 11q0-55 35.5-86t98.5-31q66 0 120 28.5t84 71.5v165H554q-93 0-141-43.5T365 312z" unicode="а" horiz-adv-x="1125"/><glyph d="M89 503v139q1 356 139 549t361 237q97 16 143.5 42.5T779 1557h226l3-6q4-194-89-257t-317-98q-112-19-178.5-88T338 916l4-5q55 49 128.5 80t153.5 31q228 0 357-140.5T1110 518v-21q0-230-135.5-374T600-21q-240 0-375.5 147T89 503zm292 0q0-134 52-217t167-83q113 0 165.5 80.5T818 497v21q0 123-53 201t-167 78q-113 0-165-78t-52-201v-15z" unicode="б" horiz-adv-x="1172"/><glyph d="M91 0v175l156 30v671L91 906v176h608q216 0 336.5-76T1156 780q0-76-50.5-135T962 555q123-24 186.5-90.5T1212 309q0-153-114.5-231T769 0H91zm447 222h231q77 0 114 28.5t37 84.5-35.5 86T769 451H538V222zm0 419h177q77 1 113 27t36 77q0 59-41 86.5T699 859H538V641z" unicode="в" horiz-adv-x="1281"/><glyph d="M60 0v175l155 30v671L60 906v176h948V701H825l-12 155H507V205l155-30V0H60z" unicode="г" horiz-adv-x="1088"/><glyph d="M49 226h94q100 104 135 204.5T317 717l2 159-153 30v176h1110V906l-156-30V224h157l-20-548H985V0H347v-324H74zm428-1h353v624H610l-1-132q-8-161-42-282.5T477 225z" unicode="д" horiz-adv-x="1348"/><glyph d="M67 0zm0 510v40q0 241 132.5 397T555 1102q219 0 340-132t121-357V454H370l-2-6q8-107 71.5-176T612 203q97 0 161 19.5T913 284l79-180q-67-53-173.5-89T581-21q-234 0-374 150T67 510zm302 142l3-5h358v26q0 93-43.5 148.5T555 877q-81 0-128-62t-58-163z" unicode="е" horiz-adv-x="1091"/><glyph d="M40 0v175l148 22 229 383-126 196q-24 37-57 59t-63 22q-21 0-30-2.5t-36-9.5l-49 202q39 24 79 38t91 14q100 0 168-47.5T521 910l144-240h114v206l-125 30v176h542V906l-126-30V670h117l144 240q58 94 126 141.5t169 47.5q50 0 90-14t80-38l-49-202q-28 7-37 9.5t-29 2.5q-31 0-64-22t-56-59l-126-196 227-383 149-22V0h-404l-207 405h-130V205l126-30V0H654v175l125 30v200H652L444 0H40z" unicode="ж" horiz-adv-x="1850"/><glyph d="M72 314l1 6h283q0-56 46-93t130-37q81 0 121 39t40 96q0 70-40 102.5T530 460H374v186h156q74 0 109 31t35 88q0 52-33.5 88T531 889q-71 0-114.5-32T373 771H90l-2 6q-6 145 118 234.5t310 89.5q208 0 328.5-82T965 786q0-73-44-133.5T799 557q90-32 137.5-95.5T984 306q0-152-129.5-239T516-20q-185 0-317.5 86T72 314z" unicode="з" horiz-adv-x="1062"/><glyph d="M85 0v175l156 30v671L85 906v176h588V906l-140-30V425l6-1 352 658h447V906l-155-30V205l155-30V0H751v175l140 30v453l-6 1L533 0H85z" unicode="и" horiz-adv-x="1417"/><glyph d="M85 0v175l156 30v671L85 906v176h588V906l-140-30V425l6-1 352 658h447V906l-155-30V205l155-30V0H751v175l140 30v453l-6 1L533 0H85zm0 0zm288 1555l2 6h198q0-58 34-96t107-38q71 0 105 37.5t34 96.5h199l2-6q5-127-88.5-207.5T714 1267q-159 0-253 80.5T373 1555z" unicode="й" horiz-adv-x="1417"/><glyph d="M91 0v175l156 30v671L91 906v176h580V906l-133-30V670h100l162 240q61 94 128 141.5t167 47.5q50 0 90-14t79-38l-49-202-37.5 10t-27.5 2q-30 0-63.5-23t-57.5-58L889 572l251-373 147-24V0H886L650 405H538V205l133-30V0H91z" unicode="к" horiz-adv-x="1330"/><glyph d="M73 230l32 1q100 0 130 82t30 308v255l-156 30v176h1155V906l-156-30V205l156-30V0H661v175l156 30v651H557V621q0-320-98.5-470.5T123 0H77z" unicode="л" horiz-adv-x="1334"/><glyph d="M91 0v175l156 30v671L91 906v176h517l276-742h6l278 742h521V906l-155-30V205l155-30V0h-557v175l110 30v439l-6 1L985 0H789L544 633l-6-1V205l111-30V0H91z" unicode="м" horiz-adv-x="1764"/><glyph d="M85 0v175l156 30v671L85 906v176h573V906l-126-30V644h356v232l-125 30v176h573V906l-156-30V205l156-30V0H763v175l125 30v215H532V205l126-30V0H85z" unicode="н" horiz-adv-x="1415"/><glyph d="M63 0zm0 530v21q0 242 135.5 396.5T573 1102q240 0 375.5-154T1084 551v-21q0-244-135.5-397.5T575-21q-241 0-376.5 153.5T63 530zm292 0q0-148 52-237.5T575 203q113 0 165.5 90T793 530v21q0 144-53 235t-167 91-166-91-52-235v-21z" unicode="о" horiz-adv-x="1148"/><glyph d="M85 0v175l156 30v671L85 906v176h1253V906l-155-30V205l155-30V0H765v175l126 30v651H532V205l126-30V0H85z" unicode="п" horiz-adv-x="1417"/><glyph d="M41 0zm0 906v176h424l14-126q48 70 115 108t156 38q201 0 312-157t111-413v-21q0-240-111-386T752-21q-85 0-151 31.5T488 103v-313l141-30v-176H56v176l141 30V876zm447-609q27-46 73.5-70T676 203q106 0 155.5 83T881 511v21q0 153-51 248t-156 95q-66 0-112.5-27T488 771V297z" unicode="р" horiz-adv-x="1240"/><glyph d="M67 525v30q0 239 134.5 393T585 1102q131 0 235-39t173-110l4-289H760l-48 169q-22 19-54 31.5T585 877q-124 0-175-90t-51-232v-30q0-145 47-233.5T571 203q78 0 125 45.5T743 370h264l3-6q4-164-123-274.5T571-21q-242 0-373 153T67 525z" unicode="с" horiz-adv-x="1079"/><glyph d="M55 713v369h1130V713H961l-12 146H764V205l155-30V0H316v175l155 30v654H290l-11-146H55z" unicode="т" horiz-adv-x="1243"/><glyph d="M26 0zm0 906v176h530V906l-121-20 148-432 15-78 6-1 171 511-122 20v176h530V906l-101-15L684-162q-47-117-125.5-196T322-437q-37 0-69.5 6T176-414l34 213q14-2 29-4t26-2q73 0 112 35.5T437-83l33 82-343 891z" unicode="у" horiz-adv-x="1212"/><glyph d="M74 511v21q0 256 104.5 413T474 1102q37 0 69.5-7t62.5-19v278l-155 30v176h447v-486q29 13 63.5 20.5t73.5 7.5q190 0 295-157t105-413v-21q0-240-104.5-386T1037-21q-39 0-73.5 7T898 5v-215l155-30v-176H451v176l155 30V4q-30-12-64-18.5T472-21q-190 0-294 146T74 511zm292 0q0-143 41.5-225.5T546 203q15 0 30 1t30 4v663q-14 3-28.5 4.5T548 877q-96 0-139-95t-43-250v-21zm532-302q14-3 29.5-4.5T961 203q95 0 138.5 83t43.5 225v21q0 153-45 249t-139 96q-18 0-33-2t-28-5V209z" unicode="ф" horiz-adv-x="1492"/><glyph d="M32 0v175l101 16 294 356-284 342-101 17v176h487V913l-99-12 164-208 161 208-101 12v169h489V906l-98-17-278-342 293-356 102-16V0H667v168l99 12-168 218-171-219 87-11V0H32zm0 0z" unicode="х" horiz-adv-x="1191"/><glyph d="M50 0v175l156 30v671L50 906v176h580V906l-133-30V224h358v652l-133 30v176h426V223h163l-20-544h-271V0H50zm1098 876v206h155V906z" unicode="ц" horiz-adv-x="1387"/><glyph d="M49 907v175h572V907l-125-30V742q0-107 47-148t159-41q37 0 73.5 4t74.5 12v307l-126 30v176h574V906l-156-30V205l156-30V0H694v175l156 30v138q-37-8-75.5-11.5T702 328q-239 0-368.5 102T204 742v135z" unicode="ч" horiz-adv-x="1375"/><glyph d="M85 0v175l156 30v671L85 906v176h603V906l-156-30V224h295v858h292V224h295v652l-156 30v176h603V906l-156-30V205l156-30V0H85z" unicode="ш" horiz-adv-x="1927"/><glyph d="M82 0v175l156 30v671L82 906v176h603V906l-156-30V224h295v858h292V224h295v652l-156 30v176h603V906l-156-30V224h170l-20-545h-271V0H82z" unicode="щ" horiz-adv-x="1942"/><glyph d="M39 714v368h879V906l-156-30V733h203q220 0 344.5-98.5T1434 372q0-168-125-270T965 0H314v175l156 30v651H274l-11-142H39zm723-491h203q90 0 134 40.5t44 106.5q0 68-43.5 110T965 522H762V223z" unicode="ъ" horiz-adv-x="1429"/><glyph d="M91 0v175l156 30v671L91 906v176h448V733h203q220 0 344.5-98.5T1211 372q0-168-125-270T742 0H91zm448 223h203q90 0 134 40.5T920 370q0 68-43.5 110T742 522H539V223zm0 653v206h156V906zm675 30v176h448V205l140-30V0h-573v175l141 30v671z" unicode="ы" horiz-adv-x="1825"/><glyph d="M91 0v175l156 30v671L91 906v176h448V733h203q220 0 344.5-98.5T1211 372q0-168-125-270T742 0H91zm448 223h203q90 0 134 40.5T920 370q0 68-43.5 110T742 522H539V223zm0 653v206h156V906z" unicode="ь" horiz-adv-x="1254"/><glyph d="M71 364l3 6h265q0-76 46-121.5T510 203q102 0 151 68.5T716 453l-3 5H438v175h274l2 5q-9 106-60.5 172.5T497 877q-44 0-83.5-13T354 833l-33-150H85l3 270q63 67 172.5 108t236.5 41q247 0 382-154t135-393v-30q0-240-131-393T510-21Q321-21 193.5 89.5T71 364z" unicode="э" horiz-adv-x="1078"/><glyph d="M71 906v176h448V663h149q30 198 161 318.5t341 120.5q240 0 375.5-154T1681 551v-21q0-244-135.5-397.5T1172-21q-217 0-349.5 125.5T665 438H519V205l140-30V0H86v175l141 30v671zm881-376q0-148 52-237.5t168-89.5q113 0 165.5 90t52.5 237v21q0 144-53 235t-167 91-166-91-52-235v-21z" unicode="ю" horiz-adv-x="1751"/><glyph d="M92 0v175l132 20 130 232q-99 44-152 121t-53 175q0 158 125.5 258.5T612 1082h632V906l-155-30V205l155-30V0H657v175l141 30v174H622L411 0H92zm348 715q0-56 43.5-97.5T607 576h191v283H612q-82 0-127-44t-45-100z" unicode="я" horiz-adv-x="1313"/><glyph d="M67 0zm0 510v40q0 241 132.5 397T555 1102q219 0 340-132t121-357V454H370l-2-6q8-107 71.5-176T612 203q97 0 161 19.5T913 284l79-180q-67-53-173.5-89T581-21q-234 0-374 150T67 510zm118 995l2 6h310l196-266H457zm184-853l3-5h358v26q0 93-43.5 148.5T555 877q-81 0-128-62t-58-163z" unicode="ѐ" horiz-adv-x="1091"/><glyph d="M67 0zm0 510v40q0 241 132.5 397T555 1102q219 0 340-132t121-357V454H370l-2-6q8-107 71.5-176T612 203q97 0 161 19.5T913 284l79-180q-67-53-173.5-89T581-21q-234 0-374 150T67 510zm77 768v204h267v-204H144zm225-626l3-5h358v26q0 93-43.5 148.5T555 877q-81 0-128-62t-58-163zm275 626v204h267v-204H644z" unicode="ё" horiz-adv-x="1091"/><glyph d="M-15 1166v139h205v69l-155 30v156h447v-255h195v-139H482V945q51 74 125 115.5t164 41.5q169 0 265.5-112.5T1133 642V-40q0-190-101-293.5T752-437q-41 0-75 4t-70 13l14 221q23-6 48-9.5t52-3.5q57 0 88.5 44.5T841-40v684q0 126-44.5 178.5T664 875q-60 0-106-21.5T482 793V205l125-30V0H50v175l140 30v961H-15z" unicode="ђ" horiz-adv-x="1303"/><glyph d="M60 0v175l155 30v671L60 906v176h948V701H825l-12 155H507V205l155-30V0H60zm0 0zm339 1245l199 266h309l2-6-276-260H399z" unicode="ѓ" horiz-adv-x="1088"/><glyph d="M82 525v30q0 239 134.5 393T600 1102q131 0 235-39t173-110l4-289H775l-48 169q-22 19-54 31.5T600 877q-110 0-162-71t-57-184l2-5h291V442H385l-2-5q7-107 55-170.5T586 203q78 0 125 45.5T758 370h264l3-6q4-164-123-274.5T586-21q-242 0-373 153T82 525z" unicode="є" horiz-adv-x="1107"/><glyph d="M97 0zm0 767q0 136 112 234.5t319 98.5q126 0 238.5-34T943 979l3-269H750l-31 135q-30 24-75.5 40T543 901q-77 0-122-34.5T376 780q0-49 43-81.5T591 641q201-40 298-117.5T986 310q0-146-125.5-238.5T530-21q-125 0-229.5 36.5T115 120l-3 243h204l40-141q26-22 71-32.5t94-10.5q89 0 135.5 32t46.5 87q0 48-47 83t-173 62q-191 39-288.5 115.5T97 767z" unicode="ѕ" horiz-adv-x="1054"/><glyph d="M39 0zm0 906v176h448V205l140-30V0H54v175l141 30v671zm156 435v219h292v-219H195z" unicode="і" horiz-adv-x="660"/><glyph d="M-35 1279v204h267v-204H-35zM0 0zm70 906v176h448V205l140-30V0H85v175l141 30v671zm395 373v204h267v-204H465z" unicode="ї" horiz-adv-x="686"/><glyph d="M-33-420l14 223q22-6 45-9t50-3q59 0 91.5 41.5T200-40v916L44 906v176h448V-40q0-190-101-293.5T111-437q-41 0-74.5 4T-33-420zM0 0zm194 1343v217h292v-217H194z" unicode="ј" horiz-adv-x="599"/><glyph d="M61 227h31q90 0 134 96t44 298v255l-155 30v176h1127V906l-155-30V720h203q218 0 343-98.5T1758 361q0-164-125-262.5T1290 0H639v175l155 30v651H562V621q0-316-106-468.5T111 0H65zm1026-5h203q90 0 133.5 39t43.5 102q0 60-43.5 96T1290 495h-203V222z" unicode="љ" horiz-adv-x="1802"/><glyph d="M85 0v175l156 30v671L85 906v176h573V906l-126-30V665h356v211l-125 30v176h573V906l-156-30V719h204q219 0 343.5-98T1852 361q0-164-125-262.5T1384 0H763v175l125 30v236H532V205l126-30V0H85zm1095 222h204q90 0 133.5 39t43.5 102q0 60-43.5 96T1384 495h-204V222z" unicode="њ" horiz-adv-x="1899"/><glyph d="M-1 1132v155h189v67l-156 30v176h447v-273h221v-155H479V944q51 75 125 116.5t164 41.5q170 0 266.5-112.5T1131 642V205l140-30V0H713v175l126 30v439q0 126-44.5 178.5T662 875q-61 0-106.5-22T479 791V205l126-30V0H47v175l141 30v927H-1z" unicode="ћ" horiz-adv-x="1302"/><glyph d="M91 0v175l156 30v671L91 906v176h580V906l-133-30V670h100l162 240q61 94 128 141.5t167 47.5q50 0 90-14t79-38l-49-202-37.5 10t-27.5 2q-30 0-63.5-23t-57.5-58L889 572l251-373 147-24V0H886L650 405H538V205l133-30V0H91zm0 0zm435 1238l199 266h309l2-6-276-260H526z" unicode="ќ" horiz-adv-x="1330"/><glyph d="M85 0v175l156 30v671L85 906v176h588V906l-140-30V425l6-1 352 658h447V906l-155-30V205l155-30V0H751v175l140 30v453l-6 1L533 0H85zm0 0zm281 1506l2 6h310l196-266H638z" unicode="ѝ" horiz-adv-x="1417"/><glyph d="M26 0zm0 906v176h530V906l-121-20 148-432 15-78 6-1 171 511-122 20v176h530V906l-101-15L684-162q-47-117-125.5-196T322-437q-37 0-69.5 6T176-414l34 213q14-2 29-4t26-2q73 0 112 35.5T437-83l33 82-343 891zm216 634l2 6h198q0-58 34-96t107-38q71 0 105 37.5t34 96.5h199l2-6q5-127-88.5-207.5T583 1252q-159 0-253 80.5T242 1540z" unicode="ў" horiz-adv-x="1212"/><glyph d="M86 0v175l155 30v671L86 906v176h572V906l-125-30V224h358v652l-126 30v176h574V906l-156-30V205l156-30V0H858v-358H567V0H86z" unicode="џ" horiz-adv-x="1417"/><glyph d="M126 449v1007h293V449q0-124 51.5-185T613 203q96 0 149.5 60.5T816 449v1007h294V449q0-124 53.5-185t146.5-61q94 0 146 60.5t52 185.5v1007h292V449q0-226-135.5-348T1310-21q-111 0-200.5 40T963 137Q904 59 813.5 19T613-21q-218 0-352.5 122.5T126 449z" unicode="Ѡ" horiz-adv-x="1884"/><glyph d="M127 435v647h292V435q0-118 38-175t110-57q82 0 126 57t44 175v647h293V435q0-119 39.5-175.5T1189 203q74 0 112.5 57t38.5 175v647h292V435q0-220-121.5-338T1189-21q-99 0-177.5 35T881 119Q827 49 746.5 14T567-21Q368-21 247.5 97T127 435z" unicode="ѡ" horiz-adv-x="1710"/><glyph d="M43 1011v155h180v84l-156 30v176h448v-290h229v-155H515v-94h250q253 0 400-123.5T1312 464q0-209-148-336.5T765 0H67v175l156 30v806H43zm472-787h250q123 0 189.5 68.5T1021 466q0 100-66 163t-190 63H515V224zm0 1026v206h156v-176z" unicode="Ѣ" horiz-adv-x="1360"/><glyph d="M88 1081v180h156v94l-155 30v176h448v-300h255v-180H537V786h203q218 0 343-108t125-283q0-177-125.5-286T740 0H89v175l155 30v876H88zm449-858h203q89 0 133 47.5T917 393q0 72-44 120.5T740 562H537V223z" unicode="ѣ" horiz-adv-x="1243"/><glyph d="M56 0v175l156 30v1045l-156 30v176h603v-176l-156-30V838h145q25 285 207 462.5t456 177.5q169 0 305-61.5t225-162.5V966h-217l-30 194q-43 43-108.5 68t-154.5 25q-171 0-271.5-112.5T945 844l3-6h490V651H945l-2-5q8-198 108.5-320T1326 204q86 0 157.5 25t110.5 68l30 194h217V203q-88-102-224.5-162.5T1311-20q-280 0-465 187T645 651H503V205l156-30V0H56z" unicode="Ѥ" horiz-adv-x="1912"/><glyph d="M66 906v176h448V632h144q21 209 153.5 339.5T1172 1102q131 0 235-39t173-110l4-289h-237l-48 169q-22 19-54 31.5t-73 12.5q-106 0-158-67t-59-173l2-5h247V452H956l-2-5q5-110 53.5-177t150.5-67q78 0 125 45.5t47 121.5h264l3-6q4-164-123-274.5T1158-21q-223 0-352 130.5T657 452H514V205l140-30V0H81v175l141 30v671z" unicode="ѥ" horiz-adv-x="1644"/><glyph d="M52 0v175l112 15 447 1266h300l444-1266 112-15V0H961v175l91 17-86 263h-90V0H631v455h-79l-86-263 92-17V0H52zm567 656h280l-137 415h-6z" unicode="Ѧ" horiz-adv-x="1493"/><glyph d="M54 0v175l84 14 338 893h300l337-893 84-14V0H887L778 318h-62V0H526v318h-54L365 0H54zm476 490h189l-64 187-27 114h-6l-28-114z" unicode="ѧ" horiz-adv-x="1250"/><glyph d="M17 0v175l156 30v1045l-156 30v176h603v-176l-156-30V657h479l282 799h300l444-1266 112-15V0h-506v175l91 17-86 263h-90V0h-245v455h-79l-86-263 92-17V0H666v175l112 15 93 264H464V205l156-30V0H17zm1216 656h280l-137 415h-6z" unicode="Ѩ" horiz-adv-x="2076"/><glyph d="M31 906v176h448V490h385l224 592h300l337-893 84-14V0h-310l-109 318h-62V0h-190v318h-54L977 0H666v175l84 14 49 130H479V205l140-30V0H46v175l141 30v671zm1111-416h189l-64 187-27 114h-6l-28-114z" unicode="ѩ" horiz-adv-x="1880"/><glyph d="M58 0v175l141 30v139q0 242 134 350.5T728 805l-261 452-174 23v176h1403v-176l-175-23-260-453q243-8 369-117t126-343V205l141-30V0h-558v175l126 30v139q0 131-58 182t-186 51h-85V205l126-30V0H719v175l126 30v372H734q-129 0-186.5-51T490 344V205l126-30V0H58zm735 1228l201-388 202 388H793z" unicode="Ѫ" horiz-adv-x="1931"/><glyph d="M71 0v175l123 30v-18l6-2q-5 202 94 304t291 120L426 883l-177 23v176h1186V906l-176-23-160-275q183-21 279-123.5t92-299.5l6 3v17l123-30V0h-415v179q0 123-44.5 171T997 398h-12V205l126-30V0H568v175l126 30v193h-21q-100 0-144-48t-44-171V0H71zm645 894l123-260h6l124 260H716z" unicode="ѫ" horiz-adv-x="1661"/><glyph d="M40 0v175l156 30v1045l-156 30v176h603v-176l-156-30V806h863l-260 451-174 23v176h1403v-176l-175-23-260-453q243-8 369-117t126-343V205l141-30V0h-558v175l126 30v139q0 131-58 182t-186 51h-85V205l126-30V0h-543v175l126 30v372h-111q-129 0-186.5-51T1113 344V205l126-30V0H681v175l141 30v139q0 70 11 128t34 106H487V205l156-30V0H40zm1376 1228l201-388 202 388h-403z" unicode="Ѭ" horiz-adv-x="2550"/><glyph d="M23 906v176h448V612h714l-158 271-177 23v176h1186V906l-176-23-160-275q183-21 279-123.5t92-299.5l6 3v17l123-30V0h-415v179q0 123-44.5 171T1598 398h-12V205l126-30V0h-543v175l126 30v193h-21q-100 0-144-48t-44-171V0H672v175l123 30v7l6-1q-5 43 4.5 95t31.5 98H471V205l140-30V0H38v175l141 30v671zm1294-12l123-260h6l124 260h-253z" unicode="ѭ" horiz-adv-x="2271"/><glyph d="M52 1024v262q76 86 194.5 133t264.5 47q233 0 369.5-100.5T1017 1075q0-118-60-201.5T787 745q133-42 204-127.5t71-209.5q0-202-138-315.5T556-21h-57q-59 0-86-25.5T386-117q0-60 42-97t102-63l-82-171q-159 36-243 131.5T120-80q0 144 94 217.5T477 211h63q106 0 168 53.5T770 404q0 110-70 166t-205 56H360v233h143q113 0 167 52t54 140q0 82-52.5 133.5T511 1241q-72 0-130.5-15.5T290 1185l-24-161H52zm131 875v16h249l132-140 132 140h248v-17l-280-255H464z" unicode="Ѯ" horiz-adv-x="1130"/><glyph d="M42 690v248q66 71 167.5 109.5T436 1086q222 0 349.5-77T913 783q0-84-47-146.5T733 537q109-33 167.5-93T959 300q0-152-126.5-236.5T494-21h-49q-67 0-97.5-25.5T317-117q0-60 37.5-97t90.5-63l-82-157q-131 42-214 135.5T65-80q0 131 86.5 197.5T392 184h56q102 0 160.5 34t58.5 91q0 67-59.5 101T434 444H328v177h113q92 0 136.5 38T622 760q0 54-45.5 87T437 881q-48 0-93.5-13.5T273 837l-25-147H42zm60 827v16h249l132-140 132 140h248v-17l-280-255H383z" unicode="ѯ" horiz-adv-x="1000"/><glyph d="M55 0zm0 1280v176h431V979q0-158 64-249.5T730 620l6 2v628l-140 30v176h572v-176l-140-30V621l6-1q115 15 175 106t60 253v477h433v-176l-141-30V979q0-260-143.5-415T1028 383V205l155-30V0H581v175l155 30v177q-250 22-395.5 177.5T195 979v271z" unicode="Ѱ" horiz-adv-x="1733"/><glyph d="M29 0zm0 1054q38 20 99.5 34t122.5 14q114 0 176.5-58T490 868V587q0-157 61.5-244.5T721 231l6 2v849h292V226l6-2q142 25 207.5 123t65.5 245q-2 117-30.5 238t-77.5 252h271q57-99 93-222t36-268q0-243-136.5-409.5T1019-14v-464H727v468Q474 24 336 172T198 590v196q0 44-17.5 62.5T127 867q-18 0-26-2t-42-10z" unicode="ѱ" horiz-adv-x="1661"/><glyph d="M72 717v22q0 318 181 528t476 210q296 0 479.5-210T1392 739v-22q0-320-183-529T730-21q-295 0-476.5 209T72 717zm300-82q10-194 100.5-311.5T730 206q168 0 259.5 117.5T1093 635l-2 5H374zm0 190l2-5h717l2 5q-12 190-105 307t-259 117q-167 0-256.5-116.5T372 825z" unicode="Ѳ" horiz-adv-x="1400"/><glyph d="M78 530v21q0 242 135.5 396.5T588 1102q240 0 375.5-154T1099 551v-21q0-244-135.5-397.5T590-21q-241 0-376.5 153.5T78 530zm301-86q8-110 60-175.5T590 203q96 0 147.5 65.5T798 444l-2 5H381zm0 190l2-5h416l2 5q-9 108-61.5 175.5T588 877q-98 0-149.5-67.5T379 634z" unicode="ѳ" horiz-adv-x="1191"/><glyph d="M39 1280v176h525v-176l-100-19 252-866 18-81h6l17 78 211 743q53 172 138 256t226 84l40-1-2-236h-28q-43 0-73.5-32t-45.5-88L887 0H588L164 1263z" unicode="Ѵ" horiz-adv-x="1410"/><glyph d="M47 906v176h522V906l-110-21 115-482 17-88h6l16 88 92 374q48 162 132 243.5t213 81.5q32 0 57-4t46-15l-24-221q-4 1-21 2.5t-30 1.5q-38 0-68.5-29.5T967 764L735 0H456L169 890z" unicode="ѵ" horiz-adv-x="1188"/><glyph d="M39 0zm0 1280v176h525v-176l-100-19 252-866 18-81h6l17 78 211 743q53 172 138 256t226 84l40-1-2-236h-28q-43 0-73.5-32t-45.5-88L887 0H588L164 1263zm79 506l2 6h279l240-261-2-5H403zm392 1l2 5h274l199-266H750z" unicode="Ѷ" horiz-adv-x="1410"/><glyph d="M20 0zm0 1544l2 6h279l240-261-2-5H305zm27-638v176h522V906l-110-21 115-482 17-88h6l16 88 92 374q48 162 132 243.5t213 81.5q32 0 57-4t46-15l-24-221q-4 1-21 2.5t-30 1.5q-38 0-68.5-29.5T967 764L735 0H456L169 890zm365 639l2 5h274l199-266H652z" unicode="ѷ" horiz-adv-x="1188"/><glyph d="M67 0zm0 717v22q0 318 181 528t476 210q296 0 479.5-210T1387 739v-22q0-320-183-529T725-21q-295 0-476.5 209T67 717zm292 0q0-230 91.5-370.5T725 206q185 0 278 140.5t93 370.5v24q0 226-94 367t-278 141-274.5-140T359 741v-24zm1115 189v176h530V906l-121-20 148-432 15-78 6-1 171 511-122 20v176h530V906l-101-15-398-1053q-47-117-125.5-196T1770-437q-37 0-69.5 6t-76.5 17l34 213q14-2 29-4t26-2q73 0 112 35.5t60 88.5l33 82-343 891z" unicode="Ѹ" horiz-adv-x="2660"/><glyph d="M63 0zm0 530v21q0 242 135.5 396.5T573 1102q240 0 375.5-154T1084 551v-21q0-244-135.5-397.5T575-21q-241 0-376.5 153.5T63 530zm292 0q0-148 52-237.5T575 203q113 0 165.5 90T793 530v21q0 144-53 235t-167 91-166-91-52-235v-21zm819 376v176h530V906l-121-20 148-432 15-78 6-1 171 511-122 20v176h530V906l-101-15-398-1053q-47-117-125.5-196T1470-437q-37 0-69.5 6t-76.5 17l34 213q14-2 29-4t26-2q73 0 112 35.5t60 88.5l33 82-343 891z" unicode="ѹ" horiz-adv-x="2360"/><glyph d="M67 717v22q0 318 181 528t476 210q296 0 479.5-210T1387 739v-22q0-320-183-529T725-21q-295 0-476.5 209T67 717zm292 0q0-230 91.5-370.5T725 206q185 0 278 140.5t93 370.5v24q0 226-94 367t-278 141-274.5-140T359 741v-24zm270 406v454h196v-454H629zm3-1259v464h195v-464H632z" unicode="Ѻ" horiz-adv-x="1449"/><glyph d="M67 530v21q0 242 135.5 396.5T577 1102q240 0 375.5-154T1088 551v-21q0-244-135.5-397.5T579-21q-241 0-376.5 153.5T67 530zm292 0q0-148 52-237.5T579 203q113 0 165.5 90T797 530v21q0 144-53 235t-167 91-166-91-52-235v-21zm140-653v454h150v-454H499zm5 886v441h151V763H504z" unicode="ѻ" horiz-adv-x="1153"/><glyph d="M113 463v508q0 231 134 357t347 122l6-2v-217q-91 0-143-65t-52-195V463q0-131 52-195.5T600 203q96 0 149.5 60.5T803 449v367h278V449q0-125 53-185.5t150-60.5q90 0 142 64.5t52 195.5v508q0 130-52 195t-142 65v217l6 2q212 4 346.5-122T1771 971V463q0-232-135-358T1284-21q-108 0-196.5 37.5T941 128Q882 54 794 16.5T600-21q-218 0-352.5 126T113 463zm537 1124v37q0 109 60.5 163t172.5 54q70 0 224-60t265-60h22v-134h-23q-129 0-286.5 60T886 1707q-49 0-76-25.5t-27-76.5v-18H650zm164-240l58 108-1 147h182v-129l-158-181z" unicode="Ѽ" horiz-adv-x="1838"/><glyph d="M85 436v205q0 218 127 336.5T541 1093l6-3V873q-80 0-125-58t-45-174V436q0-117 37-175t103-58q69 0 108.5 57.5T665 435v169h277V435q0-117 39-174.5t109-57.5q65 0 102.5 58t37.5 175v205q0 116-45.5 174T1060 873v217l6 3q201 3 328.5-115.5T1522 641V436q0-219-119.5-338T1090-21q-91 0-164.5 36T803 122Q753 51 680 15T517-21Q323-21 204 98T85 436zm436 804v37q0 109 60.5 163t172.5 54q70 0 224.5-60t265.5-60h21v-134h-23q-128 0-286 60t-199 60q-48 0-75.5-25.5T654 1258v-18H521zm164-227l59 109-1 133h182v-115L767 958z" unicode="ѽ" horiz-adv-x="1576"/><glyph d="M126 449q0-225 134.5-347.5T613-21q110 0 200.5 40T963 137q57-78 146.5-118T1310-21q219 0 354.5 122T1800 449v1007h-292V449q0-125-52-185.5T1310 203q-93 0-146.5 61T1110 449v1007H816V449q0-125-53.5-185.5T613 203q-91 0-142.5 61T419 449v1007H126V449zm392 1238v112h886l1-112h-362v-127H862v127H518z" unicode="Ѿ" horiz-adv-x="1884"/><glyph d="M127 435q0-220 120.5-338T567-21q99 0 179.5 35T881 119q52-70 130.5-105T1189-21q200 0 321.5 118T1632 435v647h-292V435q0-118-38.5-175T1189 203q-80 0-119.5 56.5T1030 435v647H737V435q0-118-44-175t-126-57q-72 0-110 57t-38 175v647H127V435zm360 910v112h824l6-112H980v-127H800v127H487z" unicode="ѿ" horiz-adv-x="1700"/><glyph d="M102 583v289q0 267 154 436t408 169q258 0 400-129.5T1202 981l-2-6H916q0 141-60.5 209T664 1252q-130 0-200-105t-70-273V583q0-169 70-274.5T664 203h188v-569H561v354Q350 21 226 183T102 583z" unicode="Ҁ" horiz-adv-x="1247"/><glyph d="M87 525v30q0 237 131.5 392T587 1102q198 0 319.5-114T1024 688l-2-6H756q0 83-45 139t-124 56q-112 0-160-91t-48-231v-30q0-143 48-232.5T588 203h189v-570H486v355Q294 20 190.5 167T87 525z" unicode="ҁ" horiz-adv-x="1065"/><glyph d="M18 569l71 128 293-171 202 360-290 171 73 130 291-171 185 326h172L787 937l293-171-76-127-288 170-204-360 289-172-72-128-291 170L257 0H82l225 398z" unicode="҂" horiz-adv-x="1100"/><glyph d="M138 1187l1 238h546l-1 108 177-1v-220H315v-126z" unicode="҃" horiz-adv-x="980"/><glyph d="M130 1303v134h22q113 0 271 60t231 60q113 0 175.5-54t62.5-163v-37H756v18q0 51-29 76.5t-77 25.5q-43 0-204.5-60T154 1303h-24z" unicode="҄" horiz-adv-x="1034"/><glyph d="M103 1500v141h190l-1-159 58-109-81-68z" unicode="҅" horiz-adv-x="465"/><glyph d="M109 1373l59 109-1 159h189v-141l-165-195z" unicode="҆" horiz-adv-x="464"/><glyph d="M33 493q-5 78 51.5 130T237 675t152.5-51.5T442 493l-2-6H336q0 44-24 72.5T237 588q-50 0-73.5-29T140 487H35zM199-26q-5 78 51.5 130T403 156t153-51.5T609-26l-2-6H502q0 44-24 72.5T403 69q-50 0-73-29t-23-72H201zm10 1022q-5 79 51.5 130.5T414 1178q96 0 152.5-51.5T619 996l-2-6H513q0 43-24.5 72t-74.5 29-73.5-29-23.5-72H211zm573 277q-5 79 51 130.5t153 51.5q96 0 152.5-51.5T1191 1273l-2-6h-104q0 43-24.5 72t-74.5 29-73.5-29-23.5-72H784zm5-1583q-5 80 51 131t153 51q96 0 152.5-51t52.5-131l-2-6h-104q0 44-24.5 72.5T991-215t-73.5-28.5T894-316H789zm576 284q-5 78 51.5 130t152.5 52 152.5-51.5T1772-26l-2-6h-104q0 44-24 72.5T1567 69q-50 0-73.5-29T1470-32h-105zm10 1022q-5 78 51.5 130t152.5 52 153-51.5 53-130.5l-2-6h-105q0 44-24 72.5t-75 28.5q-50 0-73-29t-23-72h-106zm187-503q-5 78 51.5 130t152.5 52 152.5-51.5T1969 493l-2-6h-104q0 44-24 72.5t-75 28.5q-50 0-73.5-29t-23.5-72h-105z" unicode="҈" horiz-adv-x="1986"/><glyph d="M28 545v98l346-71V433l-13-12zM223-80l294 200 97-99-2-17-320-153zm86 1268l65 69 198-299-98-98-17 2zM848-413l70 353h137l11-14-122-339h-96zm0 1553l122 338h96l-70-352H860zm450-138l2 16 321 153 68-68q-37-23-294-200zm41-940l97 99 17-2 149-325-66-71zm199 430v139l13 12 333-124v-98z" unicode="҉" horiz-adv-x="1915"/><glyph d="M69 0v175l156 30v1045l-156 30v176h603v-176l-156-30V576l6-2 587 595v81l-155 30v176h603v-176l-155-30V205l155-30V0H954v175l155 30v658l-6 2-587-596v-64l156-30V0H69zm0 0zm399 1877l2 6h198q0-58 34-96t107-38q71 0 105 37.5t34 96.5h199l2-6q5-127-88.5-207.5T809 1589q-159 0-253 80.5T468 1877zM1492-336q39 70 60 144.5T1573-25v218h262l-1-204q0-102-57.5-216T1636-414z" unicode="Ҋ" horiz-adv-x="1605"/><glyph d="M85 0v175l156 30v671L85 906v176h588V906l-140-30V425l6-1 352 658h447V906l-155-30V205l155-30V0H751v175l140 30v453l-6 1L533 0H85zm0 0zm288 1555l2 6h198q0-58 34-96t107-38q71 0 105 37.5t34 96.5h199l2-6q5-127-88.5-207.5T714 1267q-159 0-253 80.5T373 1555zm900-1891q39 70 60 144.5T1354-25v218h262l-1-204q0-102-57.5-216T1417-414z" unicode="ҋ" horiz-adv-x="1417"/><glyph d="M43 1011v155h180v84l-156 30v176h448v-290h229v-155H515v-94h250q253 0 400-123.5T1312 464q0-209-148-336.5T765 0H67v175l156 30v806H43zm472-787h250q123 0 189.5 68.5T1021 466q0 100-66 163t-190 63H515V224zm0 1026v206h156v-176z" unicode="Ҍ" horiz-adv-x="1360"/><glyph d="M44 1167v181h186v66l-155 30v175h447v-271h225v-181H522V786h204q218 0 343-108t125-283q0-177-125.5-286T726 0H75v175l155 30v962H44zm478-944h204q89 0 133 47.5T903 393q0 72-44 120.5T726 562H522V223z" unicode="ҍ" horiz-adv-x="1233"/><glyph d="M18 0v175l155 30v1045l-155 30v176h693q250 0 394.5-128.5T1250 991q0-209-144.5-336T711 528H465V205l156-30V0H18zm447 753h246q122 0 184.5 66.5T958 989q0 105-62.5 173.5T711 1231H465V753zm234 163l101 93 438-481-101-92z" unicode="Ҏ" horiz-adv-x="1358"/><glyph d="M-12 906v176h424l14-126q48 70 115 108t156 38q201 0 312-157t111-413v-21q0-240-111-386T699-21q-85 0-151 31.5T435 103v-313l141-30v-176H3v176l141 30V876zm447-609q27-46 73.5-70T623 203q106 0 155.5 83T828 511v21q0 153-51 248t-156 95q-66 0-112.5-27T435 771V297zm166 92l103 91 386-452-105-92z" unicode="ҏ" horiz-adv-x="1273"/><glyph d="M60 0v175l156 30v1045l-156 30v176h839l44 368h222v-593H508V205l156-30V0H60z" unicode="Ґ" horiz-adv-x="1220"/><glyph d="M57 0v175l156 30v671L57 906v176h709l27 221h207V856H504V205l156-30V0H57z" unicode="ґ" horiz-adv-x="1087"/><glyph d="M33 674v155h187v421l-155 30v176h1104v-369H945l-12 144H512V829h222V674H512V205l156-30V0H65v175l155 30v469H33z" unicode="Ғ" horiz-adv-x="1223"/><glyph d="M60 0v175l155 30V0H60zm0 906v176h948V701H825l-12 155H507V609h212V455H507V205l155-30V0H215v455H63v154h152v267z" unicode="ғ" horiz-adv-x="1088"/><glyph d="M65 0v175l155 30v1045l-155 30v176h1104v-369H945l-12 144H512V836h163q278 0 440.5-150.5T1278 250q0-250-131-416.5T739-329l-6 2v206q150 0 201.5 103T987 237q0 184-80 277t-232 93H512V205l156-30V0H65z" unicode="Ҕ" horiz-adv-x="1323"/><glyph d="M57 0v175l156 30v671L57 906v176h948V701H823l-12 155H504V641h68q256 0 411-125.5T1138 155q2-133-94-268T766-308L644-119Q744-73 795-7.5T846 155q0 126-72.5 192T572 413h-68V205l156-30V0H57z" unicode="ҕ" horiz-adv-x="1179"/><glyph d="M39 0v175l145 21 346 595-185 298q-49 71-84 97t-77 26q-22 0-38.5-3.5T109 1200l-43 219q35 23 80.5 37t98.5 14q108 0 174-47.5T557 1254l226-393h151v389l-156 30v176h603v-176l-156-30V861h151l222 393q69 121 135 168.5t175 47.5q52 0 97-14t83-37l-41-219q-21 5-38 8.5t-37 3.5q-43 0-78-26t-82-97l-186-302 338-591 151-21V0h-557v175l58 11-216 410h-175V205l156-30V0H778v175l156 30v391H753L533 186l56-11V0H39zm0 0zm1783 162h292v-523h-292v523z" unicode="Җ" horiz-adv-x="2150"/><glyph d="M40 0v175l148 22 229 383-126 196q-24 37-57 59t-63 22q-21 0-30-2.5t-36-9.5l-49 202q39 24 79 38t91 14q100 0 168-47.5T521 910l144-240h114v206l-125 30v176h542V906l-126-30V670h117l144 240q58 94 126 141.5t169 47.5q50 0 90-14t80-38l-49-202q-28 7-37 9.5t-29 2.5q-31 0-64-22t-56-59l-126-196 227-383 149-22V0h-404l-207 405h-130V205l126-30V0H654v175l125 30v200H652L444 0H40zm0 0zm1478 162h292v-523h-292v523z" unicode="җ" horiz-adv-x="1850"/><glyph d="M53 0zm5 398l2 6h284q0-85 69.5-143T592 203q123 0 195 58.5T859 411q0 115-63 168.5T608 633H431v219h177q117 0 173 54t56 151q0 85-66 140t-199 55q-86 0-151.5-25.5T316 1159l-30-181H69v275q85 100 221 162t302 62q248 0 392-108t144-308q0-100-60-183T903 748q120-43 184-129.5t64-210.5q0-201-155-315T592-21Q373-21 213 86T58 398zm399-238h292v-523H457v523z" unicode="Ҙ" horiz-adv-x="1221"/><glyph d="M66 0zm6 314l1 6h283q0-56 46-93t130-37q81 0 121 39t40 96q0 70-40 102.5T530 460H374v186h156q74 0 109 31t35 88q0 52-33.5 88T531 889q-71 0-114.5-32T373 771H90l-2 6q-6 145 118 234.5t310 89.5q208 0 328.5-82T965 786q0-73-44-133.5T799 557q90-32 137.5-95.5T984 306q0-152-129.5-239T516-20q-185 0-317.5 86T72 314zm320-160h292v-523H392v523z" unicode="ҙ" horiz-adv-x="1062"/><glyph d="M56 0v175l155 30v1045l-155 30v176h595v-176l-148-30V861h127l280 407-86 12v176h577v-176l-158-27-358-478 402-575 146-25V0H856v175l90 12-280 421H503V205l148-30V0H56zm0 0zm1084 162h292v-523h-292v523z" unicode="Қ" horiz-adv-x="1464"/><glyph d="M91 0v175l156 30v671L91 906v176h580V906l-133-30V670h100l162 240q61 94 128 141.5t167 47.5q50 0 90-14t79-38l-49-202-37.5 10t-27.5 2q-30 0-63.5-23t-57.5-58L889 572l251-373 147-24V0H886L650 405H538V205l133-30V0H91zm0 0zm903 162h292v-523H994v523z" unicode="қ" horiz-adv-x="1330"/><glyph d="M67 0v175l156 30v1045l-156 30v176h589v-176l-141-30V861h83v252h167V861h33l205 393q69 121 137 168.5t178 47.5q52 0 97-14t81-37l-49-219q-21 5-37.5 8.5t-36.5 3.5q-44 0-78.5-25.5T1211 1089l-170-290 321-605 126-19V0h-395L822 596h-57V375H598v221h-83V205l141-30V0H67z" unicode="Ҝ" horiz-adv-x="1543"/><glyph d="M84 0v175l155 30v671L84 906v176h565V926l-118-30V670h108v172h122V670h34l125 240q52 93 121 141t171 48q51 0 91.5-13.5t77.5-37.5l-49-203-37.5 10t-27.5 2q-32 0-62.5-20t-55.5-61l-116-198 207-383 128-20V0H972L807 405h-46V253H639v152H531V185l118-30V0H84z" unicode="ҝ" horiz-adv-x="1445"/><glyph d="M7 1005v155h224v90l-155 30v176h595v-176l-148-30v-90h185v-155H523V861h127l280 407-86 12v176h577v-176l-158-27-358-478 402-575 146-25V0H876v175l90 12-280 421H523V205l148-30V0H76v175l155 30v800H7z" unicode="Ҟ" horiz-adv-x="1484"/><glyph d="M-8 1128v155h216v71l-156 30v176h447v-277h194v-155H499V656h65l168 237-95 13v176h532V906l-128-29-195-268 273-411 111-23V0H730v175l60 10-166 268H499V205l126-30V0H67v175l141 30v923H-8z" unicode="ҟ" horiz-adv-x="1269"/><glyph d="M35 1088v368h994v-176l-148-30V861h131l273 393q87 122 154 169t178 47q51 0 95-14t81-37l-49-219q-32 7-43.5 9.5t-31.5 2.5q-46 0-85-26t-94-97l-228-312 403-577 153-25V0h-577v175l83 12-272 409H881V205l148-30V0H434v175l155 30v1025H269l-11-142H35z" unicode="Ҡ" horiz-adv-x="1914"/><glyph d="M71 714v368h923V906l-133-30V670h100l162 240q61 94 128 141.5t167 47.5q50 0 90-14t79-38l-49-202-37.5 10t-27.5 2q-30 0-63.5-23t-57.5-58l-140-204 251-373 147-24V0h-401L973 405H861V205l133-30V0H414v175l156 30v651H305l-11-142H71z" unicode="ҡ" horiz-adv-x="1677"/><glyph d="M56 0v175l155 30v1045l-155 30v176h603v-176l-156-30V830h594v420l-156 30v176h603v-176l-156-30V205l156-30V0H941v175l156 30v400H503V205l156-30V0H56zm0 0zm1194 162h292v-523h-292v523z" unicode="Ң" horiz-adv-x="1601"/><glyph d="M85 0v175l156 30v671L85 906v176h573V906l-126-30V644h356v232l-125 30v176h573V906l-156-30V205l156-30V0H763v175l125 30v215H532V205l126-30V0H85zm0 0zm958 162h292v-523h-292v523z" unicode="ң" horiz-adv-x="1415"/><glyph d="M45 0v175l155 30v1045l-155 30v176h603v-176l-156-30V830h594v420l-156 30v176h1046v-368h-224l-12 143h-363V205l156-30V0H930v175l156 30v400H492V205l156-30V0H45z" unicode="Ҥ" horiz-adv-x="2060"/><glyph d="M45 0v175l156 30v671L45 906v176h573V906l-126-30V644h356v232l-125 30v176h817V714h-223l-12 143h-165V205l156-30V0H723v175l125 30v215H492V205l126-30V0H45z" unicode="ҥ" horiz-adv-x="1593"/><glyph d="M65 0v175l155 30v1045l-155 30v176h1488v-176l-155-30V834h100q278 0 440.5-150.5T2101 248q0-249-131-416t-408-163l-6 2v206q150 0 201.5 103t52.5 255q0 184-80 277t-232 93h-100V205l155-30V0H951v175l155 30v1026H512V205l156-30V0H65z" unicode="Ҧ" horiz-adv-x="2168"/><glyph d="M82 0v175l156 30v671L82 906v176h1253V906l-155-30V670h42q266 0 426-125t160-361q2-134-94-269t-277-195L1314-91q99 45 150.5 111.5T1517 184q0 126-78 192t-217 66h-42V205l155-30V0H762v175l126 30v651H529V205l126-30V0H82z" unicode="ҧ" horiz-adv-x="1893"/><glyph d="M89 664v200q0 263 142.5 437T599 1470l6-2v-226q-97 0-153-105.5T396 866V664q0-200 103.5-325.5T781 213q20 0 37.5 1t34.5 4q-104 97-159.5 226.5T638 726v201q0 235 118.5 392t308.5 157q204 0 330.5-164.5T1522 887V704q0-141-45.5-265T1347 219q42-9 88.5-13.5t97.5-4.5V-18q-113 0-216 17.5T1124 52q-76-36-162.5-54.5T781-21q-307 0-499.5 195.5T89 664zm825 60q0-120 44.5-219.5T1088 341h6q64 61 100 155.5t36 207.5v212q0 171-42 248.5t-123 77.5q-73 0-112-78.5T914 929V724z" unicode="Ҩ" horiz-adv-x="1605"/><glyph d="M94 534v93q0 205 118.5 339T518 1096l6-2V869q-57-7-89.5-72T402 629v-95q0-141 69-229t181-79l5 3q-49 54-74 134t-25 173v149q0 180 94.5 298.5T901 1102q159 0 258-131t99-329V499q0-100-35-188t-100-156q35-7 74-10.5t81-3.5V-24q-100 0-186.5 13T932 28Q872 4 804-8.5T664-21q-253 0-411.5 157.5T94 534zm679-11q0-71 23.5-131T865 289h6q45 35 70.5 94T967 513v145q0 90-26.5 149.5T873 863h-6q-42 4-68-50t-26-137V523z" unicode="ҩ" horiz-adv-x="1347"/><glyph d="M52 0zm0 703v49q0 317 186 521t481 204q169 0 305-61.5t225-162.5V965h-217l-30 194q-43 43-108.5 68T739 1252q-190 0-292.5-138T344 754v-51q0-222 102-361t288-139q86 0 157.5 25t110.5 68l30 194h217V202q-88-102-224.5-162.5T719-21q-293 0-480 203T52 703zm517-543h292v-523H569v523z" unicode="Ҫ" horiz-adv-x="1327"/><glyph d="M67 0zm0 525v30q0 239 134.5 393T585 1102q131 0 235-39t173-110l4-289H760l-48 169q-22 19-54 31.5T585 877q-124 0-175-90t-51-232v-30q0-145 47-233.5T571 203q78 0 125 45.5T743 370h264l3-6q4-164-123-274.5T571-21q-242 0-373 153T67 525zm349-365h292v-523H416v523z" unicode="ҫ" horiz-adv-x="1079"/><glyph d="M40 0zm0 1068v388h1298v-388h-224l-12 163H834V205l156-30V0H386v175l156 30v1026H275l-12-163H40zm657-906h292v-523H697v523z" unicode="Ҭ" horiz-adv-x="1377"/><glyph d="M55 0zm0 713v369h1130V713H961l-12 146H764V205l155-30V0H316v175l155 30v654H290l-11-146H55zm571-551h292v-523H626v523z" unicode="ҭ" horiz-adv-x="1243"/><glyph d="M36 0zm0 1280v176h551v-176l-119-17 226-478h6l226 478-118 17v176h551v-176l-124-20-396-748V205l156-30V0H392v175l156 30v322l-389 733z" unicode="Ү" horiz-adv-x="1398"/><glyph d="M26 0zm0 1073q25 8 70.5 14t81.5 6q105 0 147-32t73-128l161-530 10-61h6l13 61 126 482-109 21v176h491V906l-91-14L708 14v-431H416V56L182 786q-12 40-33.5 55T87 856q-9 0-22-1.5T49 852z" unicode="ү" horiz-adv-x="1113"/><glyph d="M36 1280v176h551v-176l-119-17 226-478h6l226 478-118 17v176h551v-176l-124-20-327-617h141V488H839V205l156-30V0H392v175l156 30v283H348v155h139l-328 617z" unicode="Ұ" horiz-adv-x="1398"/><glyph d="M26 1073q25 8 70.5 14t81.5 6q105 0 147-32t73-128l161-530 10-61h6l13 61 126 482-109 21v176h491V906l-91-14-243-716h147V21H710l-2-6v-432H416V21H208v155h170L182 786q-12 40-33.5 55T87 856q-9 0-22-1.5T49 852z" unicode="ұ" horiz-adv-x="1113"/><glyph d="M33 0v175l123 24 385 535-375 521-122 25v176h559v-176l-119-13 225-357 226 357-117 13v176h561v-176l-122-25-375-521 393-534 129-25V0H831v175l116 12-234 368-235-368 117-12V0H33zm0 0zm1078 162h292v-523h-292v523z" unicode="Ҳ" horiz-adv-x="1438"/><glyph d="M32 0v175l101 16 294 356-284 342-101 17v176h487V913l-99-12 164-208 161 208-101 12v169h489V906l-98-17-278-342 293-356 102-16V0H667v168l99 12-168 218-171-219 87-11V0H32zm0 0zm837 162h292v-523H869v523z" unicode="ҳ" horiz-adv-x="1191"/><glyph d="M28 1088v368h1089v-368H893l-11 142H762V224h593v1026l-155 30v176h603v-176l-155-30V223h204l-15-574h-276V0H315v175l155 30v1025H262l-11-142H28z" unicode="Ҵ" horiz-adv-x="1825"/><glyph d="M24 713v369h993V713H824l-11 143H682V224h455v858h448V906l-155-30V223h163l-20-544h-271V0H235v175l155 30v651H258l-11-143H24z" unicode="ҵ" horiz-adv-x="1711"/><glyph d="M44 0zm0 1280v176h603v-176l-156-30v-247q0-142 64-196t206-54q62 0 145.5 8.5T1056 786v464l-155 30v176h603v-176l-156-30V205l156-30V0H901v175l155 30v356q-67-16-149-24.5T761 528q-268 0-414.5 116T200 1003v247zM1211 162h292v-523h-292v523z" unicode="Ҷ" horiz-adv-x="1553"/><glyph d="M49 0zm0 907v175h572V907l-125-30V742q0-107 47-148t159-41q37 0 73.5 4t74.5 12v307l-126 30v176h574V906l-156-30V205l156-30V0H694v175l156 30v138q-37-8-75.5-11.5T702 328q-239 0-368.5 102T204 742v135zm956-745h292v-523h-292v523z" unicode="ҷ" horiz-adv-x="1375"/><glyph d="M44 1280v176h603v-176l-156-30v-247q0-142 64-196t206-54q62 0 145.5 8.5T1056 786v464l-155 30v176h603v-176l-156-30V205l156-30V0H901v175l155 30v356q-67-16-149-24.5T761 528q-268 0-414.5 116T200 1003v247zm602-989v756h167V291H646z" unicode="Ҹ" horiz-adv-x="1554"/><glyph d="M65 907v175h572V907l-125-30V742q0-107 47-148t159-41q37 0 73.5 4t74.5 12v307l-126 30v176h574V906l-156-30V205l156-30V0H710v175l156 30v138q-37-8-75.5-11.5T718 328q-239 0-368.5 102T220 742v135zm532-668v519h167V239H597z" unicode="ҹ" horiz-adv-x="1375"/><glyph d="M53 0v176l156 30v1045l-156 30v175h603v-175l-155-30V895q66 14 148.5 23.5T796 928q267 0 414-116.5T1357 453V206l156-30V0H910v176l156 30v247q0 141-64.5 195.5T796 703q-62 0-145.5-9.5T501 670V206l155-30V0H53z" unicode="Һ" horiz-adv-x="1570"/><glyph d="M32 0zm0 1384v176h447V944q51 75 125 116.5t164 41.5q170 0 266.5-112.5T1131 642V205l140-30V0H713v175l126 30v439q0 126-44.5 178.5T662 875q-61 0-106.5-22T479 791V205l126-30V0H47v175l141 30v1149z" unicode="һ" horiz-adv-x="1302"/><glyph d="M43 1082h198q0-83 31-138.5t93-77.5q1 266 170.5 438T957 1475q273 0 419-182.5T1522 793V643H657v-36q0-176 88-282.5T1028 218q112 0 201 19t162 47l49-225q-51-28-158.5-55T1028-23q-320 0-491.5 172.5T365 607v57q-155 24-238.5 134T43 1082zm618-214l3-5h566v31q0 153-65.5 246T957 1233q-144 0-222-104t-74-261z" unicode="Ҽ" horiz-adv-x="1573"/><glyph d="M-13 865h183q0-59 17.5-103t52.5-72q36 187 161.5 299.5T715 1102q219 0 340-132t121-357V454H530l-2-6q8-107 71.5-176T772 203q97 0 161 19.5t140 61.5l79-180q-67-53-173.5-89T741-21q-228 0-367.5 143T227 488Q110 526 48.5 623.5T-13 865zm542-213l3-5h358v26q0 93-43.5 148.5T715 877q-81 0-128-62t-58-163z" unicode="ҽ" horiz-adv-x="1346"/><glyph d="M43 0zm0 1082h198q0-83 31-138.5t93-77.5q1 266 170.5 438T957 1475q273 0 419-182.5T1522 793V643H657v-36q0-176 88-282.5T1028 218q112 0 201 19t162 47l49-225q-51-28-158.5-55T1028-23q-320 0-491.5 172.5T365 607v57q-155 24-238.5 134T43 1082zm618-214l3-5h566v31q0 153-65.5 246T957 1233q-144 0-222-104t-74-261zm140-706h292v-523H801v523z" unicode="Ҿ" horiz-adv-x="1573"/><glyph d="M-13 865h183q0-59 17.5-103t52.5-72q36 187 161.5 299.5T715 1102q219 0 340-132t121-357V454H530l-2-6q8-107 71.5-176T772 203q97 0 161 19.5t140 61.5l79-180q-67-53-173.5-89T741-21q-228 0-367.5 143T227 488Q110 526 48.5 623.5T-13 865zM0 0zm529 652l3-5h358v26q0 93-43.5 148.5T715 877q-81 0-128-62t-58-163zm48-483h292v-523H577v523z" unicode="ҿ" horiz-adv-x="1346"/><glyph d="M55 0v175l156 30v1045l-156 30v176h603v-176l-156-30V205l156-30V0H55zm0 0z" unicode="Ӏ" horiz-adv-x="713"/><glyph d="M39 0v175l145 21 346 595-185 298q-49 71-84 97t-77 26q-22 0-38.5-3.5T109 1200l-43 219q35 23 80.5 37t98.5 14q108 0 174-47.5T557 1254l226-393h151v389l-156 30v176h603v-176l-156-30V861h151l222 393q69 121 135 168.5t175 47.5q52 0 97-14t83-37l-41-219q-21 5-38 8.5t-37 3.5q-43 0-78-26t-82-97l-186-302 338-591 151-21V0h-557v175l58 11-216 410h-175V205l156-30V0H778v175l156 30v391H753L533 186l56-11V0H39zm0 0zm691 1876l2 6h198q0-58 34-96t107-38q71 0 105 37.5t34 96.5h199l2-6q5-127-88.5-207.5T1071 1588q-159 0-253 80.5T730 1876z" unicode="Ӂ" horiz-adv-x="2150"/><glyph d="M40 0v175l148 22 229 383-126 196q-24 37-57 59t-63 22q-21 0-30-2.5t-36-9.5l-49 202q39 24 79 38t91 14q100 0 168-47.5T521 910l144-240h114v206l-125 30v176h542V906l-126-30V670h117l144 240q58 94 126 141.5t169 47.5q50 0 90-14t80-38l-49-202q-28 7-37 9.5t-29 2.5q-31 0-64-22t-56-59l-126-196 227-383 149-22V0h-404l-207 405h-130V205l126-30V0H654v175l125 30v200H652L444 0H40zm0 0zm532 1555l2 6h198q0-58 34-96t107-38q71 0 105 37.5t34 96.5h199l2-6q5-127-88.5-207.5T913 1267q-159 0-253 80.5T572 1555z" unicode="ӂ" horiz-adv-x="1850"/><glyph d="M68 0v175l156 30v1045l-156 30v176h603v-176l-155-30V863h102l371 593h384v-176l-167-26-304-429q223-32 350.5-179.5T1380 247q0-248-131-415T841-331l-6 2-1 205q150 0 202 103t52 255q0 184-80 277.5T777 605H516V205l155-30V0H68z" unicode="Ӄ" horiz-adv-x="1460"/><glyph d="M39 0v175l156 30v671L39 906v176h595V906l-148-30V670h88l238 412h354V906l-147-24-182-279q162-46 253-158t91-287q2-132-93.5-264T810-297L688-108Q787-64 838 0t52 158q0 125-77 186t-217 61H486V205l156-30V0H39z" unicode="ӄ" horiz-adv-x="1229"/><glyph d="M48 0v224h39q136 11 182 128.5T319 793l5 457-153 30v176h1301v-176l-156-30V205l156-30V0H869v175l156 30v1026H615l-4-438q-5-424-123.5-608.5T120 0H48zm0 0zm1359-336q39 70 60 144.5T1488-25v218h262l-1-204q0-102-57.5-216T1551-414z" unicode="Ӆ" horiz-adv-x="1526"/><glyph d="M73 0zm0 230l32 1q100 0 130 82t30 308v255l-156 30v176h1155V906l-156-30V205l156-30V0H661v175l156 30v651H557V621q0-320-98.5-470.5T123 0H77zm1126-566q39 70 60 144.5T1280-25v218h262l-1-204q0-102-57.5-216T1343-414z" unicode="ӆ" horiz-adv-x="1334"/><glyph d="M65 0v175l155 30v1045l-155 30v176h603v-176l-156-30V830h594v420l-156 30v176h603v-176l-156-30V-40q0-190-101-293.5T1015-437q-40 0-74 4t-70 13l14 221q23-6 48-9.5t52-3.5q57 0 89 45t32 127v645H512V205l156-30V0H65z" unicode="Ӈ" horiz-adv-x="1583"/><glyph d="M84 0v175l155 30v671L84 906v176h587V906l-140-30V644h355v232l-140 30v176h588V906l-155-30V-40q0-190-101-293.5T797-437q-40 0-74 4t-70 13l14 221q23-6 47.5-9.5T766-212q57 0 88.5 44.5T886-40v460H531V205l155-30V0H84z" unicode="ӈ" horiz-adv-x="1381"/><glyph d="M56 0v175l155 30v1045l-155 30v176h603v-176l-156-30V830h594v420l-156 30v176h603v-176l-156-30V205l156-30V0H941v175l156 30v400H503V205l156-30V0H56zm0 0zm1422-336q39 70 60 144.5T1559-25v218h262l-1-204q0-102-57.5-216T1622-414z" unicode="Ӊ" horiz-adv-x="1601"/><glyph d="M85 0v175l156 30v671L85 906v176h573V906l-126-30V644h356v232l-125 30v176h573V906l-156-30V205l156-30V0H763v175l125 30v215H532V205l126-30V0H85zm0 0zm1186-336q39 70 60 144.5T1352-25v218h262l-1-204q0-102-57.5-216T1415-414z" unicode="ӊ" horiz-adv-x="1415"/><glyph d="M44 0zm0 1280v176h603v-176l-156-30v-247q0-142 64-196t206-54q62 0 145.5 8.5T1056 786v464l-155 30v176h603v-176l-156-30V205l156-30V0H901v175l155 30v356q-67-16-149-24.5T761 528q-268 0-414.5 116T200 1003v247zM901 162h292v-523H901v523z" unicode="Ӌ" horiz-adv-x="1553"/><glyph d="M49 0zm0 907v175h572V907l-125-30V742q0-107 47-148t159-41q37 0 73.5 4t74.5 12v307l-126 30v176h574V906l-156-30V205l156-30V0H694v175l156 30v138q-37-8-75.5-11.5T702 328q-239 0-368.5 102T204 742v135zm654-745h292v-523H703v523z" unicode="ӌ" horiz-adv-x="1375"/><glyph d="M56 0v175l155 30v1045l-155 30v176h536L963 383h6l374 1073h538v-176l-156-30V205l156-30V0h-603v175l155 30v229l28 643-6 1L1065 0H869L481 1074l-6-1 28-639V205l156-30V0H56zm0 0zm1760-336q39 70 60 144.5T1897-25v218h262l-1-204q0-102-57.5-216T1960-414z" unicode="Ӎ" horiz-adv-x="1929"/><glyph d="M91 0v175l156 30v671L91 906v176h517l276-742h6l278 742h521V906l-155-30V205l155-30V0h-557v175l110 30v439l-6 1L985 0H789L544 633l-6-1V205l111-30V0H91zm0 0zm1533-336q39 70 60 144.5T1705-25v218h262l-1-204q0-102-57.5-216T1768-414z" unicode="ӎ" horiz-adv-x="1764"/><glyph d="M55 0v175l156 30v1045l-156 30v176h603v-176l-156-30V205l156-30V0H55zm0 0z" unicode="ӏ" horiz-adv-x="713"/><glyph d="M41 0v175l104 15 443 1266h299l440-1266 104-15V0H935v175l101 18-64 200H500l-64-200 101-18V0H41zm0 0zm342 1877l2 6h198q0-58 34-96t107-38q71 0 105 37.5t34 96.5h199l2-6q5-127-88.5-207.5T724 1589q-159 0-253 80.5T383 1877zM569 608h334l-164 513h-6z" unicode="Ӑ"/><glyph d="M74 0zm0 301q0 152 122 235t358 83h149v106q0 78-45 121t-133 43q-50 0-89-11.5T373 850l-19-116H134l1 240q80 54 183.5 91t225.5 37q201 0 326.5-98.5T996 723V276q0-25 .5-47t3.5-42l89-12V0H752q-12 27-21 55.5T717 113q-52-60-126.5-97T420-21q-159 0-252.5 86.5T74 301zm152 1252l2 6h198q0-58 34-96t107-38q71 0 105 37.5t34 96.5h199l2-6q5-127-88.5-207.5T567 1265q-159 0-253 80.5T226 1553zM365 312q0-55 35.5-86t98.5-31q66 0 120 28.5t84 71.5v165H554q-93 0-141-43.5T365 312z" unicode="ӑ" horiz-adv-x="1125"/><glyph d="M41 0v175l104 15 443 1266h299l440-1266 104-15V0H935v175l101 18-64 200H500l-64-200 101-18V0H41zm0 0zm293 1601v204h267v-204H334zm235-993h334l-164 513h-6zm265 993v204h267v-204H834z" unicode="Ӓ"/><glyph d="M74 0zm0 301q0 152 122 235t358 83h149v106q0 78-45 121t-133 43q-50 0-89-11.5T373 850l-19-116H134l1 240q80 54 183.5 91t225.5 37q201 0 326.5-98.5T996 723V276q0-25 .5-47t3.5-42l89-12V0H752q-12 27-21 55.5T717 113q-52-60-126.5-97T420-21q-159 0-252.5 86.5T74 301zm103 976v204h267v-204H177zm188-965q0-55 35.5-86t98.5-31q66 0 120 28.5t84 71.5v165H554q-93 0-141-43.5T365 312zm312 965v204h267v-204H677z" unicode="ӓ" horiz-adv-x="1125"/><glyph d="M66 0v175l136 20 678 1261h1017v-369h-223l-11 141h-362l16-366h499V635h-490l17-408h381l12 141h222V0H906v175l146 28-6 151H616l-83-165 84-14V0H66zm0 0zm664 582h306l-23 554-5 1z" unicode="Ӕ" horiz-adv-x="2047"/><glyph d="M73 0zm0 317q0 159 127 245t370 86h181v59q0 79-41 124.5T595 877q-81 0-127-37.5T422 746l-283 18-2 6q-6 144 121.5 238t339.5 94q102 0 186-27.5T927 995q61 52 142.5 79.5T1250 1102q212 0 333-132t121-358V454h-650l-2-6q4-112 66-178.5t186-66.5q92 0 154 20t140 61l77-184q-62-48-169-84.5T1273-21q-129 0-229.5 40.5T876 136Q816 68 714.5 23.5T474-21q-192 0-296.5 90.5T73 317zm292-4q0-59 41.5-93.5T530 185q58 0 121 30.5T751 288v176H572q-98 0-152.5-44T365 313zm689 336l2-5h362v28q0 94-42.5 149.5T1250 877q-95 0-142-61.5T1054 649z" unicode="ӕ" horiz-adv-x="1784"/><glyph d="M56 0v175l155 30v1045l-155 30v176h1150v-399H982l-13 174H503V865h493V640H503V224h470l13 174h222V0H56zm0 0zm238 1877l2 6h198q0-58 34-96t107-38q71 0 105 37.5t34 96.5h199l2-6q5-127-88.5-207.5T635 1589q-159 0-253 80.5T294 1877z" unicode="Ӗ" horiz-adv-x="1308"/><glyph d="M67 0zm0 510v40q0 241 132.5 397T555 1102q219 0 340-132t121-357V454H370l-2-6q8-107 71.5-176T612 203q97 0 161 19.5T913 284l79-180q-67-53-173.5-89T581-21q-234 0-374 150T67 510zm125 1044l2 6h198q0-58 34-96t107-38q71 0 105 37.5t34 96.5h199l2-6q5-127-88.5-207.5T533 1266q-159 0-253 80.5T192 1554zm177-902l3-5h358v26q0 93-43.5 148.5T555 877q-81 0-128-62t-58-163z" unicode="ӗ" horiz-adv-x="1091"/><glyph d="M69 660v150h948l3 6q3 186-95 302.5T614 1235q-119 0-213-19.5T230 1169l-49 225q55 28 166.5 55.5T614 1477q338 0 520-183.5T1316 807V645q0-292-177.5-479.5T699-21q-305 0-467.5 181.5T69 660zm292-101q0-154 80.5-246.5T699 220q143 0 226 102t92 263l-2 5H361v-31z" unicode="Ә" horiz-adv-x="1400"/><glyph d="M92 0zm0 469v159h646l2 6q-8 106-71.5 175.5T496 879q-98 0-162-20t-138-61l-80 180q66 53 173 89.5t238 36.5q234 0 374-150.5T1041 572v-40q0-243-132.5-397.5T554-19q-221 0-341.5 131.5T92 469zm287-60q0-94 43-149t132-55q80 0 126.5 61.5T739 430l-3 5H379v-26z" unicode="ә" horiz-adv-x="1119"/><glyph d="M69 0zm0 660v150h948l3 6q3 186-95 302.5T614 1235q-119 0-213-19.5T230 1169l-49 225q55 28 166.5 55.5T614 1477q338 0 520-183.5T1316 807V645q0-292-177.5-479.5T699-21q-305 0-467.5 181.5T69 660zm204 901v204h267v-204H273zm88-1002q0-154 80.5-246.5T699 220q143 0 226 102t92 263l-2 5H361v-31zm412 1002v204h267v-204H773z" unicode="Ӛ" horiz-adv-x="1400"/><glyph d="M92 0zm0 469v159h646l2 6q-8 106-71.5 175.5T496 879q-98 0-162-20t-138-61l-80 180q66 53 173 89.5t238 36.5q234 0 374-150.5T1041 572v-40q0-243-132.5-397.5T554-19q-221 0-341.5 131.5T92 469zm59 811v204h267v-204H151zm228-871q0-94 43-149t132-55q80 0 126.5 61.5T739 430l-3 5H379v-26zm272 871v204h267v-204H651z" unicode="ӛ" horiz-adv-x="1119"/><glyph d="M39 0v175l145 21 346 595-185 298q-49 71-84 97t-77 26q-22 0-38.5-3.5T109 1200l-43 219q35 23 80.5 37t98.5 14q108 0 174-47.5T557 1254l226-393h151v389l-156 30v176h603v-176l-156-30V861h151l222 393q69 121 135 168.5t175 47.5q52 0 97-14t83-37l-41-219q-21 5-38 8.5t-37 3.5q-43 0-78-26t-82-97l-186-302 338-591 151-21V0h-557v175l58 11-216 410h-175V205l156-30V0H778v175l156 30v391H753L533 186l56-11V0H39zm0 0zm642 1600v204h267v-204H681zm500 0v204h267v-204h-267z" unicode="Ӝ" horiz-adv-x="2150"/><glyph d="M40 0v175l148 22 229 383-126 196q-24 37-57 59t-63 22q-21 0-30-2.5t-36-9.5l-49 202q39 24 79 38t91 14q100 0 168-47.5T521 910l144-240h114v206l-125 30v176h542V906l-126-30V670h117l144 240q58 94 126 141.5t169 47.5q50 0 90-14t80-38l-49-202q-28 7-37 9.5t-29 2.5q-31 0-64-22t-56-59l-126-196 227-383 149-22V0h-404l-207 405h-130V205l126-30V0H654v175l125 30v200H652L444 0H40zm0 0zm483 1279v204h267v-204H523zm500 0v204h267v-204h-267z" unicode="ӝ" horiz-adv-x="1850"/><glyph d="M53 0zm5 398l2 6h284q0-85 69.5-143T592 203q123 0 195 58.5T859 411q0 115-63 168.5T608 633H431v219h177q117 0 173 54t56 151q0 85-66 140t-199 55q-86 0-151.5-25.5T316 1159l-30-181H69v275q85 100 221 162t302 62q248 0 392-108t144-308q0-100-60-183T903 748q120-43 184-129.5t64-210.5q0-201-155-315T592-21Q373-21 213 86T58 398zm158 1202v204h267v-204H216zm500 0v204h267v-204H716z" unicode="Ӟ" horiz-adv-x="1221"/><glyph d="M66 0zm6 314l1 6h283q0-56 46-93t130-37q81 0 121 39t40 96q0 70-40 102.5T530 460H374v186h156q74 0 109 31t35 88q0 52-33.5 88T531 889q-71 0-114.5-32T373 771H90l-2 6q-6 145 118 234.5t310 89.5q208 0 328.5-82T965 786q0-73-44-133.5T799 557q90-32 137.5-95.5T984 306q0-152-129.5-239T516-20q-185 0-317.5 86T72 314zm67 964v204h267v-204H139zm500 0v204h267v-204H639z" unicode="ӟ" horiz-adv-x="1062"/><glyph d="M66 398l2 6h284q0-86 58.5-143.5T566 203q111 0 176 58.5T807 411q0 143-70 208t-210 65H392v182l336 359-3 6H356l-11-144H122v369h945l1-183-364-409q189-31 291.5-148T1098 408q0-201-147.5-315T566-21Q359-21 210 86T66 398z" unicode="Ӡ" horiz-adv-x="1157"/><glyph d="M64 23l2 6h284q0-84 59-141.5T564-170q111 0 176 58.5T805 36q0 143-70 208.5T525 310H389v181l332 360-2 5H347l-11-143H112v369h953l1-184-360-408q187-32 288.5-149.5T1096 33q0-199-147.5-313.5T564-395q-207 0-356 107.5T64 23z" unicode="ӡ" horiz-adv-x="1161"/><glyph d="M69 0v175l156 30v1045l-156 30v176h603v-176l-156-30V576l6-2 587 595v81l-155 30v176h603v-176l-155-30V205l155-30V0H954v175l155 30v658l-6 2-587-596v-64l156-30V0H69zm0 0zm369 1617v165h731v-165H438z" unicode="Ӣ" horiz-adv-x="1605"/><glyph d="M85 0v175l156 30v671L85 906v176h588V906l-140-30V425l6-1 352 658h447V906l-155-30V205l155-30V0H751v175l140 30v453l-6 1L533 0H85zm0 0zm258 1295v165h731v-165H343z" unicode="ӣ" horiz-adv-x="1417"/><glyph d="M69 0v175l156 30v1045l-156 30v176h603v-176l-156-30V576l6-2 587 595v81l-155 30v176h603v-176l-155-30V205l155-30V0H954v175l155 30v658l-6 2-587-596v-64l156-30V0H69zm0 0zm350 1601v204h267v-204H419zm500 0v204h267v-204H919z" unicode="Ӥ" horiz-adv-x="1605"/><glyph d="M85 0v175l156 30v671L85 906v176h588V906l-140-30V425l6-1 352 658h447V906l-155-30V205l155-30V0H751v175l140 30v453l-6 1L533 0H85zm0 0zm239 1279v204h267v-204H324zm500 0v204h267v-204H824z" unicode="ӥ" horiz-adv-x="1417"/><glyph d="M67 0zm0 717v22q0 318 181 528t476 210q296 0 479.5-210T1387 739v-22q0-320-183-529T725-21q-295 0-476.5 209T67 717zm263 883v204h267v-204H330zm29-883q0-230 91.5-370.5T725 206q185 0 278 140.5t93 370.5v24q0 226-94 367t-278 141-274.5-140T359 741v-24zm471 883v204h267v-204H830z" unicode="Ӧ" horiz-adv-x="1448"/><glyph d="M63 0zm0 530v21q0 242 135.5 396.5T573 1102q240 0 375.5-154T1084 551v-21q0-244-135.5-397.5T575-21q-241 0-376.5 153.5T63 530zm114 749v204h267v-204H177zm178-749q0-148 52-237.5T575 203q113 0 165.5 90T793 530v21q0 144-53 235t-167 91-166-91-52-235v-21zm322 749v204h267v-204H677z" unicode="ӧ" horiz-adv-x="1148"/><glyph d="M72 0zm0 717v22q0 318 181 528t476 210q296 0 479.5-210T1392 739v-22q0-320-183-529T730-21q-295 0-476.5 209T72 717zm300-82q10-194 100.5-311.5T730 206q168 0 259.5 117.5T1093 635l-2 5H374zm0 190l2-5h717l2 5q-12 190-105 307t-259 117q-167 0-256.5-116.5T372 825z" unicode="Ө" horiz-adv-x="1400"/><glyph d="M78 0zm0 530v21q0 242 135.5 396.5T588 1102q240 0 375.5-154T1099 551v-21q0-244-135.5-397.5T590-21q-241 0-376.5 153.5T78 530zm301-86q8-110 60-175.5T590 203q96 0 147.5 65.5T798 444l-2 5H381zm0 190l2-5h416l2 5q-9 108-61.5 175.5T588 877q-98 0-149.5-67.5T379 634z" unicode="ө" horiz-adv-x="1191"/><glyph d="M72 0zm0 717v22q0 318 181 528t476 210q296 0 479.5-210T1392 739v-22q0-320-183-529T730-21q-295 0-476.5 209T72 717zm260 880v204h267v-204H332zm40-962q10-194 100.5-311.5T730 206q168 0 259.5 117.5T1093 635l-2 5H374zm0 190l2-5h717l2 5q-12 190-105 307t-259 117q-167 0-256.5-116.5T372 825zm460 772v204h267v-204H832z" unicode="Ӫ" horiz-adv-x="1400"/><glyph d="M78 0zm0 530v21q0 242 135.5 396.5T588 1102q240 0 375.5-154T1099 551v-21q0-244-135.5-397.5T590-21q-241 0-376.5 153.5T78 530zm96 777v204h267v-204H174zm205-863q8-110 60-175.5T590 203q96 0 147.5 65.5T798 444l-2 5H381zm0 190l2-5h416l2 5q-9 108-61.5 175.5T588 877q-98 0-149.5-67.5T379 634zm295 673v204h267v-204H674z" unicode="ӫ" horiz-adv-x="1191"/><glyph d="M47 0zm0 202v288h217l30-193q38-43 109.5-68T563 204q163 0 258 110.5T931 609l-2 5H420v226h509l2 5q-15 185-110 296t-263 111q-91 0-156.5-25T294 1159l-30-193H47v288q89 101 225 162t306 61q292 0 472.5-202.5T1231 752v-49q0-319-181.5-521T578-20q-170 0-306 60T47 202zm159 1398v204h267v-204H206zm500 0v204h267v-204H706z" unicode="Ӭ" horiz-adv-x="1268"/><glyph d="M66 0zm5 364l3 6h265q0-76 46-121.5T510 203q102 0 151 68.5T716 453l-3 5H438v175h274l2 5q-9 106-60.5 172.5T497 877q-44 0-83.5-13T354 833l-33-150H85l3 270q63 67 172.5 108t236.5 41q247 0 382-154t135-393v-30q0-240-131-393T510-21Q321-21 193.5 89.5T71 364zm56 913v204h267v-204H127zm500 0v204h267v-204H627z" unicode="ӭ" horiz-adv-x="1078"/><glyph d="M40 0zm0 1280v176h535v-176l-73-14 211-457 23-77h6l201 531-87 17v176h530v-176l-142-19-415-985Q765 133 679 56T433-21q-25 0-56.5 1.5T329-16l-2 223q11-2 38-3t41-1q79 0 118.5 35T591 344l22 55-418 860zm318 337v165h731v-165H358z" unicode="Ӯ" horiz-adv-x="1407"/><glyph d="M26 0zm0 906v176h530V906l-121-20 148-432 15-78 6-1 171 511-122 20v176h530V906l-101-15L684-162q-47-117-125.5-196T322-437q-37 0-69.5 6T176-414l34 213q14-2 29-4t26-2q73 0 112 35.5T437-83l33 82-343 891zm186 375v165h731v-165H212z" unicode="ӯ" horiz-adv-x="1212"/><glyph d="M40 0zm0 1280v176h535v-176l-73-14 211-457 23-77h6l201 531-87 17v176h530v-176l-142-19-415-985Q765 133 679 56T433-21q-25 0-56.5 1.5T329-16l-2 223q11-2 38-3t41-1q79 0 118.5 35T591 344l22 55-418 860zm299 321v204h267v-204H339zm500 0v204h267v-204H839z" unicode="Ӱ" horiz-adv-x="1407"/><glyph d="M26 0zm0 906v176h530V906l-121-20 148-432 15-78 6-1 171 511-122 20v176h530V906l-101-15L684-162q-47-117-125.5-196T322-437q-37 0-69.5 6T176-414l34 213q14-2 29-4t26-2q73 0 112 35.5T437-83l33 82-343 891zm167 358v204h267v-204H193zm500 0v204h267v-204H693z" unicode="ӱ" horiz-adv-x="1212"/><glyph d="M40 0zm0 1280v176h535v-176l-73-14 211-457 23-77h6l201 531-87 17v176h530v-176l-142-19-415-985Q765 133 679 56T433-21q-25 0-56.5 1.5T329-16l-2 223q11-2 38-3t41-1q79 0 118.5 35T591 344l22 55-418 860zm334 321l199 266h260l2-5-240-261H374zm347 5l240 261h263l2-6-285-260H723z" unicode="Ӳ" horiz-adv-x="1407"/><glyph d="M26 0zm0 906v176h530V906l-121-20 148-432 15-78 6-1 171 511-122 20v176h530V906l-101-15L684-162q-47-117-125.5-196T322-437q-37 0-69.5 6T176-414l34 213q14-2 29-4t26-2q73 0 112 35.5T437-83l33 82-343 891zm202 358l199 266h260l2-5-240-261H228zm347 5l240 261h263l2-6-285-260H577z" unicode="ӳ" horiz-adv-x="1212"/><glyph d="M44 0zm0 1280v176h603v-176l-156-30v-247q0-142 64-196t206-54q62 0 145.5 8.5T1056 786v464l-155 30v176h603v-176l-156-30V205l156-30V0H901v175l155 30v356q-67-16-149-24.5T761 528q-268 0-414.5 116T200 1003v247zm343 321v204h267v-204H387zm500 0v204h267v-204H887z" unicode="Ӵ" horiz-adv-x="1553"/><glyph d="M49 0zm0 907v175h572V907l-125-30V742q0-107 47-148t159-41q37 0 73.5 4t74.5 12v307l-126 30v176h574V906l-156-30V205l156-30V0H694v175l156 30v138q-37-8-75.5-11.5T702 328q-239 0-368.5 102T204 742v135zm238 357v204h267v-204H287zm500 0v204h267v-204H787z" unicode="ӵ" horiz-adv-x="1375"/><glyph d="M65 0v175l155 30v1045l-155 30v176h1104v-369H945l-12 144H512V205l156-30V0H65zm0 0zm310 162h292v-523H375v523z" unicode="Ӷ" horiz-adv-x="1223"/><glyph d="M60 0v175l155 30v671L60 906v176h948V701H825l-12 155H507V205l155-30V0H60zm0 0zm309 162h292v-523H369v523z" unicode="ӷ" horiz-adv-x="1088"/><glyph d="M49 0v175l156 30v1045l-156 30v176h448V917h250q253 0 400-123.5T1294 464q0-209-148-336.5T747 0H49zm0 0zm448 224h250q123 0 189.5 68.5T1003 466q0 100-66 163t-190 63H497V224zm0 1026v206h156v-176zm30 350v204h267v-204H527zm500 0v204h267v-204h-267zM1292 0v175l156 30v1045l-156 30v176h603v-176l-156-30V205l156-30V0h-603z" unicode="Ӹ" horiz-adv-x="1940"/><glyph d="M91 0v175l156 30v671L91 906v176h448V733h203q220 0 344.5-98.5T1211 372q0-168-125-270T742 0H91zm0 0zm436 1280v204h267v-204H527zm12-1057h203q90 0 134 40.5T920 370q0 68-43.5 110T742 522H539V223zm0 653v206h156V906zm488 404v204h267v-204h-267zm187-374v176h448V205l140-30V0h-573v175l141 30v671z" unicode="ӹ" horiz-adv-x="1825"/><glyph d="M119 0zm0 683v155h701V683H119zM154 0v175l155 30v1045l-155 30v176h1104v-369h-224l-12 144H601V205l156-30V0H154zm113-395l14 223q21-6 46-9t53-3q40 0 62.5 31T465-62v175h292V-62q0-168-91.5-259T410-412q-40 0-73.5 4T267-395z" unicode="Ӻ" horiz-adv-x="1293"/><glyph d="M98 506v155h701V506H98zM141 0v175l155 30v672l-155 30v175h948V702H906l-12 155H588V205l155-30V0H141zm124-364l14 223q21-6 46-9t53-3q40 0 62.5 31T463-31v175h292V-31q0-168-91.5-259T408-381q-40 0-73.5 4T265-364z" unicode="ӻ" horiz-adv-x="1137"/><glyph d="M33 0v175l123 24 385 535-375 521-122 25v176h559v-176l-119-13 225-357 226 357-117 13v176h561v-176l-122-25-375-521 393-534 129-25V0H831v175l116 12-234 368-235-368 117-12V0H33zm0 0zm881-507l14 223q21-6 46-9t53-3q40 0 62.5 31t22.5 91V1h292v-175q0-168-91.5-259T1057-524q-40 0-73.5 4T914-507z" unicode="Ӽ" horiz-adv-x="1438"/><glyph d="M32 0v175l101 16 294 356-284 342-101 17v176h487V913l-99-12 164-208 161 208-101 12v169h489V906l-98-17-278-342 293-356 102-16V0H667v168l99 12-168 218-171-219 87-11V0H32zm0 0zm640-507l14 223q21-6 46-9t53-3q40 0 62.5 31t22.5 91V1h292v-175q0-168-91.5-259T815-524q-40 0-73.5 4T672-507z" unicode="ӽ" horiz-adv-x="1191"/><glyph d="M33 0v175l123 24 338 470H353v155h123l-310 431-122 25v176h559v-176l-119-13 225-357 226 357-117 13v176h561v-176l-122-25-310-431h107V669H930l345-469 129-25V0H831v175l116 12-234 368-235-368 117-12V0H33z" unicode="Ӿ" horiz-adv-x="1438"/><glyph d="M32 0v175l101 16 229 278-3 5H242v155h110l2 5-211 255-101 17v176h487V913l-99-12 164-208 161 208-101 12v169h489V906l-98-17-208-255 3-5h103V474H834l-3-5 229-278 102-16V0H667v168l99 12-168 218-171-219 87-11V0H32z" unicode="ӿ" horiz-adv-x="1191"/><glyph d="M41 0v175l104 15 443 1266h299l440-1266 104-15V0H935v175l101 18-64 200H500l-64-200 101-18V0H41zm0 0zm501-254q0 71 53 118t131 47q76 0 128-47t52-118q0-70-52-116t-128-46q-78 0-131 46.5T542-254zm27 862h334l-164 513h-6zm86-862q0-29 20-48.5t51-19.5q28 0 47 19.5t19 48.5q0 32-19 51.5T726-183q-31 0-51-19.5T655-254z" unicode="Ḁ"/><glyph d="M74 0zm0 301q0 152 122 235t358 83h149v106q0 78-45 121t-133 43q-50 0-89-11.5T373 850l-19-116H134l1 240q80 54 183.5 91t225.5 37q201 0 326.5-98.5T996 723V276q0-25 .5-47t3.5-42l89-12V0H752q-12 27-21 55.5T717 113q-52-60-126.5-97T420-21q-159 0-252.5 86.5T74 301zm242-541q0 71 53 118t131 47q76 0 128-47t52-118q0-70-52-116t-128-46q-78 0-131 46.5T316-240zm49 552q0-55 35.5-86t98.5-31q66 0 120 28.5t84 71.5v165H554q-93 0-141-43.5T365 312zm64-552q0-29 20-48.5t51-19.5q28 0 47 19.5t19 48.5q0 32-19 51.5T500-169q-31 0-51-19.5T429-240z" unicode="ḁ" horiz-adv-x="1125"/><glyph d="M56 0v175l155 30v1045l-155 30v176h536L963 383h6l374 1073h538v-176l-156-30V205l156-30V0h-603v175l155 30v229l28 643-6 1L1065 0H869L481 1074l-6-1 28-639V205l156-30V0H56zm0 0zm699 1560l199 266h309l2-6-276-260H755z" unicode="Ḿ" horiz-adv-x="1929"/><glyph d="M29 0zm0 906v176h427l12-143q52 78 130.5 120.5T780 1102q104 0 178-46t112-139q50 87 130 136t188 49q160 0 252.5-110.5T1733 655V205l141-30V0h-559v175l126 30v451q0 123-40 171t-119 48q-62 0-107.5-27.5T1102 771q0-19 1-32.5t1-27.5V205l118-30V0H695v175l118 30v451q0 120-40 169.5T653 875q-59 0-103.5-22.5T476 789V205l126-30V0H44v175l141 30v671zm728 330l199 266h309l2-6-276-260H757z" unicode="ḿ" horiz-adv-x="1905"/><glyph d="M29 0zm0 1280v176h536v-176l-133-23 167-798 6-1 273 998h215l275-998 6 1 166 798-133 23v176h535v-176l-120-15L1527 0h-271L989 961h-6L716 0H445L148 1265zm579 548l2 6h310l196-266H880z" unicode="Ẁ" horiz-adv-x="1972"/><glyph d="M39 0zm0 906v176h490V906l-115-22 102-495h6l202 693h196l204-695h6l101 496-116 23v176h490V906l-109-14L1270 0h-244L825 644h-6L618 0H375L148 892zm422 600l2 6h310l196-266H733z" unicode="ẁ" horiz-adv-x="1642"/><glyph d="M29 0zm0 1280v176h536v-176l-133-23 167-798 6-1 273 998h215l275-998 6 1 166 798-133 23v176h535v-176l-120-15L1527 0h-271L989 961h-6L716 0H445L148 1265zm758 280l199 266h309l2-6-276-260H787z" unicode="Ẃ" horiz-adv-x="1972"/><glyph d="M39 0zm0 906v176h490V906l-115-22 102-495h6l202 693h196l204-695h6l101 496-116 23v176h490V906l-109-14L1270 0h-244L825 644h-6L618 0H375L148 892zm601 332l199 266h309l2-6-276-260H640z" unicode="ẃ" horiz-adv-x="1642"/><glyph d="M29 0zm0 1280v176h536v-176l-133-23 167-798 6-1 273 998h215l275-998 6 1 166 798-133 23v176h535v-176l-120-15L1527 0h-271L989 961h-6L716 0H445L148 1265zm537 321v204h267v-204H566zm500 0v204h267v-204h-267z" unicode="Ẅ" horiz-adv-x="1972"/><glyph d="M39 0zm0 906v176h490V906l-115-22 102-495h6l202 693h196l204-695h6l101 496-116 23v176h490V906l-109-14L1270 0h-244L825 644h-6L618 0H375L148 892zm380 373v204h267v-204H419zm500 0v204h267v-204H919z" unicode="ẅ" horiz-adv-x="1642"/><glyph d="M41 0v175l104 15 443 1266h299l440-1266 104-15V0H935v175l101 18-64 200H500l-64-200 101-18V0H41zm0 0zm528 608h334l-164 513h-6zm14-728h297v-240H583v240z" unicode="Ạ"/><glyph d="M74 0zm0 301q0 152 122 235t358 83h149v106q0 78-45 121t-133 43q-50 0-89-11.5T373 850l-19-116H134l1 240q80 54 183.5 91t225.5 37q201 0 326.5-98.5T996 723V276q0-25 .5-47t3.5-42l89-12V0H752q-12 27-21 55.5T717 113q-52-60-126.5-97T420-21q-159 0-252.5 86.5T74 301zm283-407h297v-240H357v240zm8 418q0-55 35.5-86t98.5-31q66 0 120 28.5t84 71.5v165H554q-93 0-141-43.5T365 312z" unicode="ạ" horiz-adv-x="1125"/><glyph d="M41 0v175l104 15 443 1266h299l440-1266 104-15V0H935v175l101 18-64 200H500l-64-200 101-18V0H41zm0 0zm528 608h334l-164 513h-6zm39 1248l7 133q185 0 283.5-52t98.5-143q0-64-43.5-100T847 1649l-1-65H628l-15 137q73 3 105 18t32 48q0 37-38 53t-104 16z" unicode="Ả"/><glyph d="M74 0zm0 301q0 152 122 235t358 83h149v106q0 78-45 121t-133 43q-50 0-89-11.5T373 850l-19-116H134l1 240q80 54 183.5 91t225.5 37q201 0 326.5-98.5T996 723V276q0-25 .5-47t3.5-42l89-12V0H752q-12 27-21 55.5T717 113q-52-60-126.5-97T420-21q-159 0-252.5 86.5T74 301zm291 11q0-55 35.5-86t98.5-31q66 0 120 28.5t84 71.5v165H554q-93 0-141-43.5T365 312zm86 1221l7 133q185 0 283.5-52t98.5-143q0-64-43.5-100T690 1326l-1-65H471l-15 137q73 3 105 18t32 48q0 37-38 53t-104 16z" unicode="ả" horiz-adv-x="1125"/><glyph d="M41 0v175l104 15 443 1266h299l440-1266 104-15V0H935v175l101 18-64 200H500l-64-200 101-18V0H41zm0 0zm331 1559l277 228h163l279-228-2-6H882l-151 130-151-130H374zm197-951h334l-164 513h-6zm455 1084l163 271h225l2-5-223-266h-167z" unicode="Ấ"/><glyph d="M74 0zm0 301q0 152 122 235t358 83h149v106q0 78-45 121t-133 43q-50 0-89-11.5T373 850l-19-116H134l1 240q80 54 183.5 91t225.5 37q201 0 326.5-98.5T996 723V276q0-25 .5-47t3.5-42l89-12V0H752q-12 27-21 55.5T717 113q-52-60-126.5-97T420-21q-159 0-252.5 86.5T74 301zm141 935l277 228h163l279-228-2-6H725l-151 130-151-130H217zm150-924q0-55 35.5-86t98.5-31q66 0 120 28.5t84 71.5v165H554q-93 0-141-43.5T365 312zm502 1057l163 271h225l2-5-223-266H867z" unicode="ấ" horiz-adv-x="1125"/><glyph d="M41 0v175l104 15 443 1266h299l440-1266 104-15V0H935v175l101 18-64 200H500l-64-200 101-18V0H41zm0 0zm3 1963l2 5h224l163-271H266zm323-399l278 228h163l278-228-2-6H877l-151 130-151-130H369zm202-956h334l-164 513h-6z" unicode="Ầ"/><glyph d="M-112 1640l2 5h224l163-271H110zM0 0zm74 301q0 152 122 235t358 83h149v106q0 78-45 121t-133 43q-50 0-89-11.5T373 850l-19-116H134l1 240q80 54 183.5 91t225.5 37q201 0 326.5-98.5T996 723V276q0-25 .5-47t3.5-42l89-12V0H752q-12 27-21 55.5T717 113q-52-60-126.5-97T420-21q-159 0-252.5 86.5T74 301zm137 940l278 228h163l278-228-2-6H721l-151 130-151-130H213zm154-929q0-55 35.5-86t98.5-31q66 0 120 28.5t84 71.5v165H554q-93 0-141-43.5T365 312z" unicode="ầ" horiz-adv-x="1125"/><glyph d="M41 0v175l104 15 443 1266h299l440-1266 104-15V0H935v175l101 18-64 200H500l-64-200 101-18V0H41zm0 0zm327 1553l2-6h199l159 140 158-140h199l2 6-273 228H641zm201-945h334l-164 513h-6zm414 1299l7 111q141 0 216-43.5t75-120.5q0-55-36.5-85.5T1155 1731v-55h-155l-13 116q62 3 88.5 15t22.5 37v6q4 30-27 43.5t-88 13.5z" unicode="Ẩ"/><glyph d="M74 0zm0 301q0 152 122 235t358 83h149v106q0 78-45 121t-133 43q-50 0-89-11.5T373 850l-19-116H134l1 240q80 54 183.5 91t225.5 37q201 0 326.5-98.5T996 723V276q0-25 .5-47t3.5-42l89-12V0H752q-12 27-21 55.5T717 113q-52-60-126.5-97T420-21q-159 0-252.5 86.5T74 301zm137 929l2-6h199l159 140 158-140h199l2 6-273 228H484zm154-918q0-55 35.5-86t98.5-31q66 0 120 28.5t84 71.5v165H554q-93 0-141-43.5T365 312zm461 1272l7 111q141 0 216-43.5t75-120.5q0-55-36.5-85.5T998 1408v-55H843l-13 116q62 3 88.5 15t22.5 37v6q4 30-27 43.5t-88 13.5z" unicode="ẩ" horiz-adv-x="1125"/><glyph d="M41 0v175l104 15 443 1266h299l440-1266 104-15V0H935v175l101 18-64 200H500l-64-200 101-18V0H41zm0 0zm328 1561l281 221h158l280-221-2-6H887l-158 130-159-130H371zm118 302q0 62 37 110t96 48q37 0 107.5-32t104.5-32q22 0 37.5 23t15.5 53l102-36q0-62-38-109t-97-47q-47 0-112.5 32.5T640 1906q-24 0-38-21t-14-50zm82-1255h334l-164 513h-6z" unicode="Ẫ"/><glyph d="M74 0zm0 301q0 152 122 235t358 83h149v106q0 78-45 121t-133 43q-50 0-89-11.5T373 850l-19-116H134l1 240q80 54 183.5 91t225.5 37q201 0 326.5-98.5T996 723V276q0-25 .5-47t3.5-42l89-12V0H752q-12 27-21 55.5T717 113q-52-60-126.5-97T420-21q-159 0-252.5 86.5T74 301zm138 937l281 221h158l280-221-2-6H730l-158 130-159-130H214zm118 302q0 62 37 110t96 48q37 0 107.5-32t104.5-32q22 0 37.5 23t15.5 53l102-36q0-62-38-109t-97-47q-47 0-112.5 32.5T483 1583q-24 0-38-21t-14-50zm35-1228q0-55 35.5-86t98.5-31q66 0 120 28.5t84 71.5v165H554q-93 0-141-43.5T365 312z" unicode="ẫ" horiz-adv-x="1125"/><glyph d="M41 0v175l104 15 443 1266h299l440-1266 104-15V0H935v175l101 18-64 200H500l-64-200 101-18V0H41zm0 0zm323 1581v26l282 240h169l287-243v-23H885l-155 146-154-146H364zm205-973h334l-164 513h-6zm14-728h297v-240H583v240z" unicode="Ậ"/><glyph d="M74 0zm0 301q0 152 122 235t358 83h149v106q0 78-45 121t-133 43q-50 0-89-11.5T373 850l-19-116H134l1 240q80 54 183.5 91t225.5 37q201 0 326.5-98.5T996 723V276q0-25 .5-47t3.5-42l89-12V0H752q-12 27-21 55.5T717 113q-52-60-126.5-97T420-21q-159 0-252.5 86.5T74 301zm133 956v26l282 240h169l287-243v-23H728l-155 146-154-146H207zM357-106h297v-240H357v240zm8 418q0-55 35.5-86t98.5-31q66 0 120 28.5t84 71.5v165H554q-93 0-141-43.5T365 312z" unicode="ậ" horiz-adv-x="1125"/><glyph d="M41 0v175l104 15 443 1266h299l440-1266 104-15V0H935v175l101 18-64 200H500l-64-200 101-18V0H41zm0 0zm343 1782l1 6h182q0-49 37.5-80.5T723 1676q79 0 117 31.5t38 80.5h183l1-6q6-99-87.5-162T723 1557q-159 0-252.5 63T384 1782zM569 608h334l-164 513h-6zm74 1185l123 189h197l2-5-170-184H643z" unicode="Ắ"/><glyph d="M74 0zm0 301q0 152 122 235t358 83h149v106q0 78-45 121t-133 43q-50 0-89-11.5T373 850l-19-116H134l1 240q80 54 183.5 91t225.5 37q201 0 326.5-98.5T996 723V276q0-25 .5-47t3.5-42l89-12V0H752q-12 27-21 55.5T717 113q-52-60-126.5-97T420-21q-159 0-252.5 86.5T74 301zm153 1157l1 6h182q0-49 37.5-80.5T566 1352q79 0 117 31.5t38 80.5h183l1-6q6-99-87.5-162T566 1233q-159 0-252.5 63T227 1458zM365 312q0-55 35.5-86t98.5-31q66 0 120 28.5t84 71.5v165H554q-93 0-141-43.5T365 312zm121 1157l123 189h197l2-5-170-184H486z" unicode="ắ" horiz-adv-x="1125"/><glyph d="M41 0v175l104 15 443 1266h299l440-1266 104-15V0H935v175l101 18-64 200H500l-64-200 101-18V0H41zm0 0zm337 1855l2 6h196q0-53 37.5-87t114.5-34q76 0 113 34t37 87h198l2-6q5-127-91.5-207.5T728 1567q-164 0-260 80.5T378 1855zm54 260l3 6h269l158-217H634zM569 608h334l-164 513h-6z" unicode="Ằ"/><glyph d="M74 0zm0 301q0 152 122 235t358 83h149v106q0 78-45 121t-133 43q-50 0-89-11.5T373 850l-19-116H134l1 240q80 54 183.5 91t225.5 37q201 0 326.5-98.5T996 723V276q0-25 .5-47t3.5-42l89-12V0H752q-12 27-21 55.5T717 113q-52-60-126.5-97T420-21q-159 0-252.5 86.5T74 301zm147 1230l2 6h196q0-53 37.5-87t114.5-34q76 0 113 34t37 87h198l2-6q5-127-91.5-207.5T571 1243q-164 0-260 80.5T221 1531zm54 260l3 6h269l158-217H477zm90-1479q0-55 35.5-86t98.5-31q66 0 120 28.5t84 71.5v165H554q-93 0-141-43.5T365 312z" unicode="ằ" horiz-adv-x="1125"/><glyph d="M41 0v175l104 15 443 1266h299l440-1266 104-15V0H935v175l101 18-64 200H500l-64-200 101-18V0H41zm0 0zm337 1766q-7-99 87-161t255-62q160 0 253 62t87 161l-1 6H875q0-48-38.5-78T720 1664q-82 0-119.5 30t-37.5 78H380zM569 608h334l-164 513h-6zm35 1406l7 103q166 0 254-40t88-110q0-50-42-78t-104-34l-1-54H624l-16 109q71 3 101.5 14t25.5 33v6q5 27-30 39t-101 12z" unicode="Ẳ"/><glyph d="M74 0zm0 301q0 152 122 235t358 83h149v106q0 78-45 121t-133 43q-50 0-89-11.5T373 850l-19-116H134l1 240q80 54 183.5 91t225.5 37q201 0 326.5-98.5T996 723V276q0-25 .5-47t3.5-42l89-12V0H752q-12 27-21 55.5T717 113q-52-60-126.5-97T420-21q-159 0-252.5 86.5T74 301zm147 1142q-7-99 87-161t255-62q160 0 253 62t87 161l-1 6H718q0-48-38.5-78T563 1341q-82 0-119.5 30t-37.5 78H223zM365 312q0-55 35.5-86t98.5-31q66 0 120 28.5t84 71.5v165H554q-93 0-141-43.5T365 312zm82 1379l7 103q166 0 254-40t88-110q0-50-42-78t-104-34l-1-54H467l-16 109q71 3 101.5 14t25.5 33v6q5 27-30 39t-101 12z" unicode="ẳ" horiz-adv-x="1125"/><glyph d="M41 0v175l104 15 443 1266h299l440-1266 104-15V0H935v175l101 18-64 200H500l-64-200 101-18V0H41zm0 0zm344 1766l2 6h182q0-49 36.5-79t117.5-30q79 0 116.5 30.5T877 1772h183l1-6q6-100-87-164t-251-64-251.5 64-86.5 164zm44 112q0 73 46.5 127.5T593 2060q43 0 117.5-33.5T827 1993q27 0 46.5 24.5T893 2078l122-34q0-74-47.5-127.5T851 1863q-56 0-125.5 34T617 1931q-29 0-48-25t-19-61zM569 608h334l-164 513h-6z" unicode="Ẵ"/><glyph d="M74 0zm0 301q0 152 122 235t358 83h149v106q0 78-45 121t-133 43q-50 0-89-11.5T373 850l-19-116H134l1 240q80 54 183.5 91t225.5 37q201 0 326.5-98.5T996 723V276q0-25 .5-47t3.5-42l89-12V0H752q-12 27-21 55.5T717 113q-52-60-126.5-97T420-21q-159 0-252.5 86.5T74 301zm154 1142l2 6h182q0-49 36.5-79t117.5-30q79 0 116.5 30.5T720 1449h183l1-6q6-100-87-164t-251-64-251.5 64-86.5 164zm44 112q0 73 46.5 127.5T436 1737q43 0 117.5-33.5T670 1670q27 0 46.5 24.5T736 1755l122-34q0-74-47.5-127.5T694 1540q-56 0-125.5 34T460 1608q-29 0-48-25t-19-61zm93-1243q0-55 35.5-86t98.5-31q66 0 120 28.5t84 71.5v165H554q-93 0-141-43.5T365 312z" unicode="ẵ" horiz-adv-x="1125"/><glyph d="M41 0v175l104 15 443 1266h299l440-1266 104-15V0H935v175l101 18-64 200H500l-64-200 101-18V0H41zm0 0zm342 1877l2 6h198q0-58 34-96t107-38q71 0 105 37.5t34 96.5h199l2-6q5-127-88.5-207.5T724 1589q-159 0-253 80.5T383 1877zM569 608h334l-164 513h-6zm14-728h297v-240H583v240z" unicode="Ặ"/><glyph d="M74 0zm0 301q0 152 122 235t358 83h149v106q0 78-45 121t-133 43q-50 0-89-11.5T373 850l-19-116H134l1 240q80 54 183.5 91t225.5 37q201 0 326.5-98.5T996 723V276q0-25 .5-47t3.5-42l89-12V0H752q-12 27-21 55.5T717 113q-52-60-126.5-97T420-21q-159 0-252.5 86.5T74 301zm152 1252l2 6h198q0-58 34-96t107-38q71 0 105 37.5t34 96.5h199l2-6q5-127-88.5-207.5T567 1265q-159 0-253 80.5T226 1553zM357-106h297v-240H357v240zm8 418q0-55 35.5-86t98.5-31q66 0 120 28.5t84 71.5v165H554q-93 0-141-43.5T365 312z" unicode="ặ" horiz-adv-x="1125"/><glyph d="M56 0v175l155 30v1045l-155 30v176h1150v-399H982l-13 174H503V865h493V640H503V224h470l13 174h222V0H56zm0 0zm441-110h297v-240H497v240z" unicode="Ẹ" horiz-adv-x="1308"/><glyph d="M67 0zm0 510v40q0 241 132.5 397T555 1102q219 0 340-132t121-357V454H370l-2-6q8-107 71.5-176T612 203q97 0 161 19.5T913 284l79-180q-67-53-173.5-89T581-21q-234 0-374 150T67 510zm302 142l3-5h358v26q0 93-43.5 148.5T555 877q-81 0-128-62t-58-163zm40-772h297v-240H409v240z" unicode="ẹ" horiz-adv-x="1091"/><glyph d="M56 0v175l155 30v1045l-155 30v176h1150v-399H982l-13 174H503V865h493V640H503V224h470l13 174h222V0H56zm0 0zm463 1856l7 133q185 0 283.5-52t98.5-143q0-64-43.5-100T758 1649l-1-65H539l-15 137q73 3 105 18t32 48q0 37-38 53t-104 16z" unicode="Ẻ" horiz-adv-x="1308"/><glyph d="M67 0zm0 510v40q0 241 132.5 397T555 1102q219 0 340-132t121-357V454H370l-2-6q8-107 71.5-176T612 203q97 0 161 19.5T913 284l79-180q-67-53-173.5-89T581-21q-234 0-374 150T67 510zm302 142l3-5h358v26q0 93-43.5 148.5T555 877q-81 0-128-62t-58-163zm48 882l7 133q185 0 283.5-52t98.5-143q0-64-43.5-100T656 1327l-1-65H437l-15 137q73 3 105 18t32 48q0 37-38 53t-104 16z" unicode="ẻ" horiz-adv-x="1091"/><glyph d="M56 0v175l155 30v1045l-155 30v176h1150v-399H982l-13 174H503V865h493V640H503V224h470l13 174h222V0H56zm0 0zm201 1624q0 94 59.5 163.5T466 1857q56 0 151.5-43.5T765 1770q35 0 60.5 32t25.5 79l155-45q0-96-59.5-163.5T796 1605q-70 0-158.5 43.5T497 1692q-36 0-60.5-32.5T412 1582z" unicode="Ẽ" horiz-adv-x="1308"/><glyph d="M67 0zm0 510v40q0 241 132.5 397T555 1102q219 0 340-132t121-357V454H370l-2-6q8-107 71.5-176T612 203q97 0 161 19.5T913 284l79-180q-67-53-173.5-89T581-21q-234 0-374 150T67 510zm88 791q0 94 59.5 163.5T364 1534q56 0 151.5-43.5T663 1447q35 0 60.5 32t25.5 79l155-45q0-96-59.5-163.5T694 1282q-70 0-158.5 43.5T395 1369q-36 0-60.5-32.5T310 1259zm214-649l3-5h358v26q0 93-43.5 148.5T555 877q-81 0-128-62t-58-163z" unicode="ẽ" horiz-adv-x="1091"/><glyph d="M56 0v175l155 30v1045l-155 30v176h1150v-399H982l-13 174H503V865h493V640H503V224h470l13 174h222V0H56zm0 0zm227 1559l277 228h163l279-228-2-6H793l-151 130-151-130H285zm652 133l163 271h225l2-5-223-266H935z" unicode="Ế" horiz-adv-x="1308"/><glyph d="M67 0zm0 510v40q0 241 132.5 397T555 1102q219 0 340-132t121-357V454H370l-2-6q8-107 71.5-176T612 203q97 0 161 19.5T913 284l79-180q-67-53-173.5-89T581-21q-234 0-374 150T67 510zm114 727l277 228h163l279-228-2-6H691l-151 130-151-130H183zm188-585l3-5h358v26q0 93-43.5 148.5T555 877q-81 0-128-62t-58-163zm464 718l163 271h225l2-5-223-266H833z" unicode="ế" horiz-adv-x="1091"/><glyph d="M-44 1963l2 5h224l163-271H178zM0 0zm56 0v175l155 30v1045l-155 30v176h1150v-399H982l-13 174H503V865h493V640H503V224h470l13 174h222V0H56zm223 1564l278 228h163l278-228-2-6H789l-151 130-151-130H281z" unicode="Ề" horiz-adv-x="1308"/><glyph d="M-146 1641l2 5H80l163-271H76zM0 0zm67 510v40q0 241 132.5 397T555 1102q219 0 340-132t121-357V454H370l-2-6q8-107 71.5-176T612 203q97 0 161 19.5T913 284l79-180q-67-53-173.5-89T581-21q-234 0-374 150T67 510zm110 732l278 228h163l278-228-2-6H687l-151 130-151-130H179zm192-590l3-5h358v26q0 93-43.5 148.5T555 877q-81 0-128-62t-58-163z" unicode="ề" horiz-adv-x="1091"/><glyph d="M56 0v175l155 30v1045l-155 30v176h1150v-399H982l-13 174H503V865h493V640H503V224h470l13 174h222V0H56zm0 0zm223 1553l2-6h199l159 140 158-140h199l2 6-273 228H552zm615 354l7 111q141 0 216-43.5t75-120.5q0-55-36.5-85.5T1066 1731v-55H911l-13 116q62 3 88.5 15t22.5 37v6q4 30-27 43.5t-88 13.5z" unicode="Ể" horiz-adv-x="1308"/><glyph d="M67 0zm0 510v40q0 241 132.5 397T555 1102q219 0 340-132t121-357V454H370l-2-6q8-107 71.5-176T612 203q97 0 161 19.5T913 284l79-180q-67-53-173.5-89T581-21q-234 0-374 150T67 510zm110 721l2-6h199l159 140 158-140h199l2 6-273 228H450zm192-579l3-5h358v26q0 93-43.5 148.5T555 877q-81 0-128-62t-58-163zm423 933l7 111q141 0 216-43.5t75-120.5q0-55-36.5-85.5T964 1409v-55H809l-13 116q62 3 88.5 15t22.5 37v6q4 30-27 43.5t-88 13.5z" unicode="ể" horiz-adv-x="1091"/><glyph d="M56 0v175l155 30v1045l-155 30v176h1150v-399H982l-13 174H503V865h493V640H503V224h470l13 174h222V0H56zm0 0zm224 1561l281 221h158l280-221-2-6H798l-158 130-159-130H282zm118 302q0 62 37 110t96 48q37 0 107.5-32t104.5-32q22 0 37.5 23t15.5 53l102-36q0-62-38-109t-97-47q-47 0-112.5 32.5T551 1906q-24 0-38-21t-14-50z" unicode="Ễ" horiz-adv-x="1308"/><glyph d="M67 0zm0 510v40q0 241 132.5 397T555 1102q219 0 340-132t121-357V454H370l-2-6q8-107 71.5-176T612 203q97 0 161 19.5T913 284l79-180q-67-53-173.5-89T581-21q-234 0-374 150T67 510zm111 729l281 221h158l280-221-2-6H696l-158 130-159-130H180zm118 302q0 62 37 110t96 48q37 0 107.5-32t104.5-32q22 0 37.5 23t15.5 53l102-36q0-62-38-109t-97-47q-47 0-112.5 32.5T449 1584q-24 0-38-21t-14-50zm73-889l3-5h358v26q0 93-43.5 148.5T555 877q-81 0-128-62t-58-163z" unicode="ễ" horiz-adv-x="1091"/><glyph d="M56 0v175l155 30v1045l-155 30v176h1150v-399H982l-13 174H503V865h493V640H503V224h470l13 174h222V0H56zm0 0zm219 1581v26l282 240h169l287-243v-23H796l-155 146-154-146H275zM497-110h297v-240H497v240z" unicode="Ệ" horiz-adv-x="1308"/><glyph d="M67 0zm0 510v40q0 241 132.5 397T555 1102q219 0 340-132t121-357V454H370l-2-6q8-107 71.5-176T612 203q97 0 161 19.5T913 284l79-180q-67-53-173.5-89T581-21q-234 0-374 150T67 510zm106 748v26l282 240h169l287-243v-23H694l-155 146-154-146H173zm196-606l3-5h358v26q0 93-43.5 148.5T555 877q-81 0-128-62t-58-163zm40-772h297v-240H409v240z" unicode="ệ" horiz-adv-x="1091"/><glyph d="M55 0v175l156 30v1045l-156 30v176h603v-176l-156-30V205l156-30V0H55zm0 0zm162 1855l7 133q185 0 283.5-52t98.5-143q0-64-43.5-100T456 1648l-1-65H237l-15 137q73 3 105 18t32 48q0 37-38 53t-104 16z" unicode="Ỉ" horiz-adv-x="713"/><glyph d="M70 0zm0 906v176h448V205l140-30V0H85v175l141 30v671zm168 629l7 133q185 0 283.5-52t98.5-143q0-64-43.5-100T477 1328l-1-65H258l-15 137q73 3 105 18t32 48q0 37-38 53t-104 16z" unicode="ỉ" horiz-adv-x="686"/><glyph d="M55 0v175l156 30v1045l-156 30v176h603v-176l-156-30V205l156-30V0H55zm0 0zm154-108h297v-240H209v240z" unicode="Ị" horiz-adv-x="713"/><glyph d="M39 0zm0 906v176h448V205l140-30V0H54v175l141 30v671zM192-110h297v-240H192v240zm3 1451v219h292v-219H195z" unicode="ị" horiz-adv-x="660"/><glyph d="M67 0zm0 717v22q0 318 181 528t476 210q296 0 479.5-210T1387 739v-22q0-320-183-529T725-21q-295 0-476.5 209T67 717zm292 0q0-230 91.5-370.5T725 206q185 0 278 140.5t93 370.5v24q0 226-94 367t-278 141-274.5-140T359 741v-24zm218-839h297v-240H577v240z" unicode="Ọ" horiz-adv-x="1448"/><glyph d="M63 0zm0 530v21q0 242 135.5 396.5T573 1102q240 0 375.5-154T1084 551v-21q0-244-135.5-397.5T575-21q-241 0-376.5 153.5T63 530zm292 0q0-148 52-237.5T575 203q113 0 165.5 90T793 530v21q0 144-53 235t-167 91-166-91-52-235v-21zm70-652h297v-240H425v240z" unicode="ọ" horiz-adv-x="1148"/><glyph d="M67 0zm0 717v22q0 318 181 528t476 210q296 0 479.5-210T1387 739v-22q0-320-183-529T725-21q-295 0-476.5 209T67 717zm292 0q0-230 91.5-370.5T725 206q185 0 278 140.5t93 370.5v24q0 226-94 367t-278 141-274.5-140T359 741v-24zm245 1138l7 133q185 0 283.5-52t98.5-143q0-64-43.5-100T843 1648l-1-65H624l-15 137q73 3 105 18t32 48q0 37-38 53t-104 16z" unicode="Ỏ" horiz-adv-x="1448"/><glyph d="M63 0zm0 530v21q0 242 135.5 396.5T573 1102q240 0 375.5-154T1084 551v-21q0-244-135.5-397.5T575-21q-241 0-376.5 153.5T63 530zm292 0q0-148 52-237.5T575 203q113 0 165.5 90T793 530v21q0 144-53 235t-167 91-166-91-52-235v-21zm96 1005l7 133q185 0 283.5-52t98.5-143q0-64-43.5-100T690 1328l-1-65H471l-15 137q73 3 105 18t32 48q0 37-38 53t-104 16z" unicode="ỏ" horiz-adv-x="1148"/><glyph d="M67 0zm0 717v22q0 318 181 528t476 210q296 0 479.5-210T1387 739v-22q0-320-183-529T725-21q-295 0-476.5 209T67 717zm292 0q0-230 91.5-370.5T725 206q185 0 278 140.5t93 370.5v24q0 226-94 367t-278 141-274.5-140T359 741v-24zm9 841l277 228h163l279-228-2-6H878l-151 130-151-130H370zm652 133l163 271h225l2-5-223-266h-167z" unicode="Ố" horiz-adv-x="1448"/><glyph d="M63 0zm0 530v21q0 242 135.5 396.5T573 1102q240 0 375.5-154T1084 551v-21q0-244-135.5-397.5T575-21q-241 0-376.5 153.5T63 530zm152 708l277 228h163l279-228-2-6H725l-151 130-151-130H217zm140-708q0-148 52-237.5T575 203q113 0 165.5 90T793 530v21q0 144-53 235t-167 91-166-91-52-235v-21zm512 841l163 271h225l2-5-223-266H867z" unicode="ố" horiz-adv-x="1148"/><glyph d="M40 0zm0 1962l2 5h224l163-271H262zM67 717v22q0 318 181 528t476 210q296 0 479.5-210T1387 739v-22q0-320-183-529T725-21q-295 0-476.5 209T67 717zm292 0q0-230 91.5-370.5T725 206q185 0 278 140.5t93 370.5v24q0 226-94 367t-278 141-274.5-140T359 741v-24zm4 846l278 228h163l278-228-2-6H873l-151 130-151-130H365z" unicode="Ồ" horiz-adv-x="1448"/><glyph d="M-112 1642l2 5h224l163-271H110zM0 0zm63 530v21q0 242 135.5 396.5T573 1102q240 0 375.5-154T1084 551v-21q0-244-135.5-397.5T575-21q-241 0-376.5 153.5T63 530zm148 713l278 228h163l278-228-2-6H721l-151 130-151-130H213zm144-713q0-148 52-237.5T575 203q113 0 165.5 90T793 530v21q0 144-53 235t-167 91-166-91-52-235v-21z" unicode="ồ" horiz-adv-x="1148"/><glyph d="M67 0zm0 717v22q0 318 181 528t476 210q296 0 479.5-210T1387 739v-22q0-320-183-529T725-21q-295 0-476.5 209T67 717zm292 0q0-230 91.5-370.5T725 206q185 0 278 140.5t93 370.5v24q0 226-94 367t-278 141-274.5-140T359 741v-24zm5 835l2-6h199l159 140 158-140h199l2 6-273 228H637zm615 354l7 111q141 0 216-43.5t75-120.5q0-55-36.5-85.5T1151 1730v-55H996l-13 116q62 3 88.5 15t22.5 37v6q4 30-27 43.5t-88 13.5z" unicode="Ổ" horiz-adv-x="1448"/><glyph d="M63 0zm0 530v21q0 242 135.5 396.5T573 1102q240 0 375.5-154T1084 551v-21q0-244-135.5-397.5T575-21q-241 0-376.5 153.5T63 530zm148 702l2-6h199l159 140 158-140h199l2 6-273 228H484zm144-702q0-148 52-237.5T575 203q113 0 165.5 90T793 530v21q0 144-53 235t-167 91-166-91-52-235v-21zm471 1056l7 111q141 0 216-43.5t75-120.5q0-55-36.5-85.5T998 1410v-55H843l-13 116q62 3 88.5 15t22.5 37v6q4 30-27 43.5t-88 13.5z" unicode="ổ" horiz-adv-x="1148"/><glyph d="M67 0zm0 717v22q0 318 181 528t476 210q296 0 479.5-210T1387 739v-22q0-320-183-529T725-21q-295 0-476.5 209T67 717zm292 0q0-230 91.5-370.5T725 206q185 0 278 140.5t93 370.5v24q0 226-94 367t-278 141-274.5-140T359 741v-24zm6 843l281 221h158l280-221-2-6H883l-158 130-159-130H367zm118 302q0 62 37 110t96 48q37 0 107.5-32t104.5-32q22 0 37.5 23t15.5 53l102-36q0-62-38-109t-97-47q-47 0-112.5 32.5T636 1905q-24 0-38-21t-14-50z" unicode="Ỗ" horiz-adv-x="1448"/><glyph d="M63 0zm0 530v21q0 242 135.5 396.5T573 1102q240 0 375.5-154T1084 551v-21q0-244-135.5-397.5T575-21q-241 0-376.5 153.5T63 530zm149 710l281 221h158l280-221-2-6H730l-158 130-159-130H214zm118 302q0 62 37 110t96 48q37 0 107.5-32t104.5-32q22 0 37.5 23t15.5 53l102-36q0-62-38-109t-97-47q-47 0-112.5 32.5T483 1585q-24 0-38-21t-14-50zm25-1012q0-148 52-237.5T575 203q113 0 165.5 90T793 530v21q0 144-53 235t-167 91-166-91-52-235v-21z" unicode="ỗ" horiz-adv-x="1148"/><glyph d="M67 0zm0 717v22q0 318 181 528t476 210q296 0 479.5-210T1387 739v-22q0-320-183-529T725-21q-295 0-476.5 209T67 717zm292 0q0-230 91.5-370.5T725 206q185 0 278 140.5t93 370.5v24q0 226-94 367t-278 141-274.5-140T359 741v-24zm1 863v26l282 240h169l287-243v-23H881l-155 146-154-146H360zM577-122h297v-240H577v240z" unicode="Ộ" horiz-adv-x="1448"/><glyph d="M63 0zm0 530v21q0 242 135.5 396.5T573 1102q240 0 375.5-154T1084 551v-21q0-244-135.5-397.5T575-21q-241 0-376.5 153.5T63 530zm144 729v26l282 240h169l287-243v-23H728l-155 146-154-146H207zm148-729q0-148 52-237.5T575 203q113 0 165.5 90T793 530v21q0 144-53 235t-167 91-166-91-52-235v-21zm70-652h297v-240H425v240z" unicode="ộ" horiz-adv-x="1148"/><glyph d="M71 0zm0 717v22q0 318 181 528t476 210q130 0 241.5-44t197.5-124q47 27 67 92t20 169h195q0-147-43-246.5T1275 1176q56-92 86-203t30-234v-22q0-320-183-529T729-21q-295 0-476.5 209T71 717zm292 0q0-230 91.5-370.5T729 206q185 0 278 140.5t93 370.5v24q0 226-94 367t-278 141-274.5-140T363 741v-24zm183 839l199 266h309l2-6-276-260H546z" unicode="Ớ" horiz-adv-x="1490"/><glyph d="M78 0zm0 530v21q0 242 135.5 396.5T588 1102q114 0 206.5-38T954 957q39 29 55 85t16 143h175q0-128-40.5-214.5T1035 842q31-64 47.5-137.5T1099 551v-21q0-244-135.5-397.5T590-21q-241 0-376.5 153.5T78 530zm292 0q0-148 52-237.5T590 203q113 0 165.5 90T808 530v21q0 144-53 235t-167 91-166-91-52-235v-21zm34 707l199 266h309l2-6-276-260H404z" unicode="ớ" horiz-adv-x="1270"/><glyph d="M71 0zm0 717v22q0 318 181 528t476 210q130 0 241.5-44t197.5-124q47 27 67 92t20 169h195q0-147-43-246.5T1275 1176q56-92 86-203t30-234v-22q0-320-183-529T729-21q-295 0-476.5 209T71 717zm292 0q0-230 91.5-370.5T729 206q185 0 278 140.5t93 370.5v24q0 226-94 367t-278 141-274.5-140T363 741v-24zm4 1107l2 6h310l196-266H639z" unicode="Ờ" horiz-adv-x="1490"/><glyph d="M78 0zm0 530v21q0 242 135.5 396.5T588 1102q114 0 206.5-38T954 957q39 29 55 85t16 143h175q0-128-40.5-214.5T1035 842q31-64 47.5-137.5T1099 551v-21q0-244-135.5-397.5T590-21q-241 0-376.5 153.5T78 530zm147 975l2 6h310l196-266H497zm145-975q0-148 52-237.5T590 203q113 0 165.5 90T808 530v21q0 144-53 235t-167 91-166-91-52-235v-21z" unicode="ờ" horiz-adv-x="1270"/><glyph d="M71 0zm0 717v22q0 318 181 528t476 210q130 0 241.5-44t197.5-124q47 27 67 92t20 169h195q0-147-43-246.5T1275 1176q56-92 86-203t30-234v-22q0-320-183-529T729-21q-295 0-476.5 209T71 717zm292 0q0-230 91.5-370.5T729 206q185 0 278 140.5t93 370.5v24q0 226-94 367t-278 141-274.5-140T363 741v-24zm236 1135l7 133q185 0 283.5-52t98.5-143q0-64-43.5-100T838 1645l-1-65H619l-15 137q73 3 105 18t32 48q0 37-38 53t-104 16z" unicode="Ở" horiz-adv-x="1490"/><glyph d="M78 0zm0 530v21q0 242 135.5 396.5T588 1102q114 0 206.5-38T954 957q39 29 55 85t16 143h175q0-128-40.5-214.5T1035 842q31-64 47.5-137.5T1099 551v-21q0-244-135.5-397.5T590-21q-241 0-376.5 153.5T78 530zm292 0q0-148 52-237.5T590 203q113 0 165.5 90T808 530v21q0 144-53 235t-167 91-166-91-52-235v-21zm87 1004l7 133q185 0 283.5-52t98.5-143q0-64-43.5-100T696 1327l-1-65H477l-15 137q73 3 105 18t32 48q0 37-38 53t-104 16z" unicode="ở" horiz-adv-x="1270"/><glyph d="M71 0zm0 717v22q0 318 181 528t476 210q130 0 241.5-44t197.5-124q47 27 67 92t20 169h195q0-147-43-246.5T1275 1176q56-92 86-203t30-234v-22q0-320-183-529T729-21q-295 0-476.5 209T71 717zm266 903q0 94 59.5 163.5T546 1853q56 0 151.5-43.5T845 1766q35 0 60.5 32t25.5 79l155-45q0-96-59.5-163.5T876 1601q-70 0-158.5 43.5T577 1688q-36 0-60.5-32.5T492 1578zm26-903q0-230 91.5-370.5T729 206q185 0 278 140.5t93 370.5v24q0 226-94 367t-278 141-274.5-140T363 741v-24z" unicode="Ỡ" horiz-adv-x="1490"/><glyph d="M78 0zm0 530v21q0 242 135.5 396.5T588 1102q114 0 206.5-38T954 957q39 29 55 85t16 143h175q0-128-40.5-214.5T1035 842q31-64 47.5-137.5T1099 551v-21q0-244-135.5-397.5T590-21q-241 0-376.5 153.5T78 530zm117 771q0 94 59.5 163.5T404 1534q56 0 151.5-43.5T703 1447q35 0 60.5 32t25.5 79l155-45q0-96-59.5-163.5T734 1282q-70 0-158.5 43.5T435 1369q-36 0-60.5-32.5T350 1259zm175-771q0-148 52-237.5T590 203q113 0 165.5 90T808 530v21q0 144-53 235t-167 91-166-91-52-235v-21z" unicode="ỡ" horiz-adv-x="1270"/><glyph d="M71 0zm0 717v22q0 318 181 528t476 210q130 0 241.5-44t197.5-124q47 27 67 92t20 169h195q0-147-43-246.5T1275 1176q56-92 86-203t30-234v-22q0-320-183-529T729-21q-295 0-476.5 209T71 717zm292 0q0-230 91.5-370.5T729 206q185 0 278 140.5t93 370.5v24q0 226-94 367t-278 141-274.5-140T363 741v-24zm192-833h297v-240H555v240z" unicode="Ợ" horiz-adv-x="1490"/><glyph d="M78 0zm0 530v21q0 242 135.5 396.5T588 1102q114 0 206.5-38T954 957q39 29 55 85t16 143h175q0-128-40.5-214.5T1035 842q31-64 47.5-137.5T1099 551v-21q0-244-135.5-397.5T590-21q-241 0-376.5 153.5T78 530zm292 0q0-148 52-237.5T590 203q113 0 165.5 90T808 530v21q0 144-53 235t-167 91-166-91-52-235v-21zm65-659h297v-240H435v240z" unicode="ợ" horiz-adv-x="1270"/><glyph d="M39 0zm0 1280v176h603v-176l-156-30V490q0-144 77.5-215.5T776 203q137 0 215 71t78 216v760l-155 30v176h603v-176l-156-30V490q0-245-161.5-378T776-21q-261 0-421.5 133T194 490v760zM627-122h297v-240H627v240z" unicode="Ụ" horiz-adv-x="1547"/><glyph d="M33 0zm0 906v176h411V427q0-118 39.5-169.5T601 206q69 0 119.5 22.5T803 293v583l-128 30v176h420V205l131-30V0H839l-19 137Q768 61 691.5 20T517-21Q346-21 249 88.5T152 429v447zM354-120h297v-240H354v240z" unicode="ụ" horiz-adv-x="1278"/><glyph d="M39 0zm0 1280v176h603v-176l-156-30V490q0-144 77.5-215.5T776 203q137 0 215 71t78 216v760l-155 30v176h603v-176l-156-30V490q0-245-161.5-378T776-21q-261 0-421.5 133T194 490v760zm616 576l7 133q185 0 283.5-52t98.5-143q0-64-43.5-100T894 1649l-1-65H675l-15 137q73 3 105 18t32 48q0 37-38 53t-104 16z" unicode="Ủ" horiz-adv-x="1547"/><glyph d="M33 0zm0 906v176h411V427q0-118 39.5-169.5T601 206q69 0 119.5 22.5T803 293v583l-128 30v176h420V205l131-30V0H839l-19 137Q768 61 691.5 20T517-21Q346-21 249 88.5T152 429v447zm451 629l7 133q185 0 283.5-52t98.5-143q0-64-43.5-100T723 1328l-1-65H504l-15 137q73 3 105 18t32 48q0 37-38 53t-104 16z" unicode="ủ" horiz-adv-x="1278"/><glyph d="M34 0zm0 1280v176h603v-176l-155-30V490q0-144 77-215.5T771 203q137 0 215 71t78 216v760l-155 30v176h448v-278l6-1q128 2 167.5 76.5T1570 1492h189l2-5q3-229-89-348t-315-127V490q0-245-162-378T771-21q-261 0-421.5 133T189 490v760zm554 279l199 266h309l2-6-276-260H588z" unicode="Ứ" horiz-adv-x="1774"/><glyph d="M45 0zm0 906v176h411V427q0-118 39.5-169.5T613 206q69 0 119.5 22.5T815 293v583l-128 30v176h420V958l6-1q65 11 86 62t21 157h171q0-167-65-256.5T1107 809V205l131-30V0H851l-19 137Q780 61 703.5 20T529-21Q358-21 261 88.5T164 429v447zm404 317l199 266h309l2-6-276-260H449z" unicode="ứ" horiz-adv-x="1373"/><glyph d="M34 0zm0 1280v176h603v-176l-155-30V490q0-144 77-215.5T771 203q137 0 215 71t78 216v760l-155 30v176h448v-278l6-1q128 2 167.5 76.5T1570 1492h189l2-5q3-229-89-348t-315-127V490q0-245-162-378T771-21q-261 0-421.5 133T189 490v760zm375 547l2 6h310l196-266H681z" unicode="Ừ" horiz-adv-x="1774"/><glyph d="M45 0zm0 906v176h411V427q0-118 39.5-169.5T613 206q69 0 119.5 22.5T815 293v583l-128 30v176h420V958l6-1q65 11 86 62t21 157h171q0-167-65-256.5T1107 809V205l131-30V0H851l-19 137Q780 61 703.5 20T529-21Q358-21 261 88.5T164 429v447zm225 585l2 6h310l196-266H542z" unicode="ừ" horiz-adv-x="1373"/><glyph d="M34 0zm0 1280v176h603v-176l-155-30V490q0-144 77-215.5T771 203q137 0 215 71t78 216v760l-155 30v176h448v-278l6-1q128 2 167.5 76.5T1570 1492h189l2-5q3-229-89-348t-315-127V490q0-245-162-378T771-21q-261 0-421.5 133T189 490v760zm607 575l7 133q185 0 283.5-52t98.5-143q0-64-43.5-100T880 1648l-1-65H661l-15 137q73 3 105 18t32 48q0 37-38 53t-104 16z" unicode="Ử" horiz-adv-x="1774"/><glyph d="M45 0zm0 906v176h411V427q0-118 39.5-169.5T613 206q69 0 119.5 22.5T815 293v583l-128 30v176h420V958l6-1q65 11 86 62t21 157h171q0-167-65-256.5T1107 809V205l131-30V0H851l-19 137Q780 61 703.5 20T529-21Q358-21 261 88.5T164 429v447zm457 614l7 133q185 0 283.5-52t98.5-143q0-64-43.5-100T741 1313l-1-65H522l-15 137q73 3 105 18t32 48q0 37-38 53t-104 16z" unicode="ử" horiz-adv-x="1373"/><glyph d="M34 0zm0 1280v176h603v-176l-155-30V490q0-144 77-215.5T771 203q137 0 215 71t78 216v760l-155 30v176h448v-278l6-1q128 2 167.5 76.5T1570 1492h189l2-5q3-229-89-348t-315-127V490q0-245-162-378T771-21q-261 0-421.5 133T189 490v760zm345 343q0 94 59.5 163.5T588 1856q56 0 151.5-43.5T887 1769q35 0 60.5 32t25.5 79l155-45q0-96-59.5-163.5T918 1604q-70 0-158.5 43.5T619 1691q-36 0-60.5-32.5T534 1581z" unicode="Ữ" horiz-adv-x="1774"/><glyph d="M45 0zm0 906v176h411V427q0-118 39.5-169.5T613 206q69 0 119.5 22.5T815 293v583l-128 30v176h420V958l6-1q65 11 86 62t21 157h171q0-167-65-256.5T1107 809V205l131-30V0H851l-19 137Q780 61 703.5 20T529-21Q358-21 261 88.5T164 429v447zm195 381q0 94 59.5 163.5T449 1520q56 0 151.5-43.5T748 1433q35 0 60.5 32t25.5 79l155-45q0-96-59.5-163.5T779 1268q-70 0-158.5 43.5T480 1355q-36 0-60.5-32.5T395 1245z" unicode="ữ" horiz-adv-x="1373"/><glyph d="M34 0zm0 1280v176h603v-176l-155-30V490q0-144 77-215.5T771 203q137 0 215 71t78 216v760l-155 30v176h448v-278l6-1q128 2 167.5 76.5T1570 1492h189l2-5q3-229-89-348t-315-127V490q0-245-162-378T771-21q-261 0-421.5 133T189 490v760zM622-121h297v-240H622v240z" unicode="Ự" horiz-adv-x="1774"/><glyph d="M45 0zm0 906v176h411V427q0-118 39.5-169.5T613 206q69 0 119.5 22.5T815 293v583l-128 30v176h420V958l6-1q65 11 86 62t21 157h171q0-167-65-256.5T1107 809V205l131-30V0H851l-19 137Q780 61 703.5 20T529-21Q358-21 261 88.5T164 429v447zM383-118h297v-240H383v240z" unicode="ự" horiz-adv-x="1373"/><glyph d="M36 0zm0 1280v176h551v-176l-119-17 226-478h6l226 478-118 17v176h551v-176l-124-20-396-748V205l156-30V0H392v175l156 30v322l-389 733zm322 548l2 6h310l196-266H630z" unicode="Ỳ" horiz-adv-x="1398"/><glyph d="M26 0zm0 906v176h530V906l-121-20 148-432 15-78 6-1 171 511-122 20v176h530V906l-101-15L684-162q-47-117-125.5-196T322-437q-37 0-69.5 6T176-414l34 213q14-2 29-4t26-2q73 0 112 35.5T437-83l33 82-343 891zm209 585l2 6h310l196-266H507z" unicode="ỳ" horiz-adv-x="1212"/><glyph d="M36 0zm0 1280v176h551v-176l-119-17 226-478h6l226 478-118 17v176h551v-176l-124-20-396-748V205l156-30V0H392v175l156 30v322l-389 733zM553-110h297v-240H553v240z" unicode="Ỵ" horiz-adv-x="1398"/><glyph d="M26 0zm0 906v176h530V906l-121-20 148-432 15-78 6-1 171 511-122 20v176h530V906l-101-15L684-162q-47-117-125.5-196T322-437q-37 0-69.5 6T176-414l34 213q14-2 29-4t26-2q73 0 112 35.5T437-83l33 82-343 891zM727-314h297v-240H727v240z" unicode="ỵ" horiz-adv-x="1212"/><glyph d="M36 0zm0 1280v176h551v-176l-119-17 226-478h6l226 478-118 17v176h551v-176l-124-20-396-748V205l156-30V0H392v175l156 30v322l-389 733zm554 576l7 133q185 0 283.5-52t98.5-143q0-64-43.5-100T829 1649l-1-65H610l-15 137q73 3 105 18t32 48q0 37-38 53t-104 16z" unicode="Ỷ" horiz-adv-x="1398"/><glyph d="M26 0zm0 906v176h530V906l-121-20 148-432 15-78 6-1 171 511-122 20v176h530V906l-101-15L684-162q-47-117-125.5-196T322-437q-37 0-69.5 6T176-414l34 213q14-2 29-4t26-2q73 0 112 35.5T437-83l33 82-343 891zm441 614l7 133q185 0 283.5-52t98.5-143q0-64-43.5-100T706 1313l-1-65H487l-15 137q73 3 105 18t32 48q0 37-38 53t-104 16z" unicode="ỷ" horiz-adv-x="1212"/><glyph d="M36 0zm0 1280v176h551v-176l-119-17 226-478h6l226 478-118 17v176h551v-176l-124-20-396-748V205l156-30V0H392v175l156 30v322l-389 733zm292 344q0 94 59.5 163.5T537 1857q56 0 151.5-43.5T836 1770q35 0 60.5 32t25.5 79l155-45q0-96-59.5-163.5T867 1605q-70 0-158.5 43.5T568 1692q-36 0-60.5-32.5T483 1582z" unicode="Ỹ" horiz-adv-x="1398"/><glyph d="M26 0zm0 906v176h530V906l-121-20 148-432 15-78 6-1 171 511-122 20v176h530V906l-101-15L684-162q-47-117-125.5-196T322-437q-37 0-69.5 6T176-414l34 213q14-2 29-4t26-2q73 0 112 35.5T437-83l33 82-343 891zm179 381q0 94 59.5 163.5T414 1520q56 0 151.5-43.5T713 1433q35 0 60.5 32t25.5 79l155-45q0-96-59.5-163.5T744 1268q-70 0-158.5 43.5T445 1355q-36 0-60.5-32.5T360 1245z" unicode="ỹ" horiz-adv-x="1212"/><glyph horiz-adv-x="261"/><glyph horiz-adv-x="522"/><glyph horiz-adv-x="261"/><glyph horiz-adv-x="522"/><glyph horiz-adv-x="174"/><glyph horiz-adv-x="130"/><glyph horiz-adv-x="87"/><glyph horiz-adv-x="287"/><glyph horiz-adv-x="140"/><glyph horiz-adv-x="104"/><glyph horiz-adv-x="52"/><glyph unicode="​" horiz-adv-x="0"/><glyph d="M131 510v225h564V510H131z" unicode="‐" horiz-adv-x="815"/><glyph d="M131 510v225h564V510H131z" unicode="‑" horiz-adv-x="815"/><glyph d="M131 510v225h564V510H131z" unicode="‒" horiz-adv-x="815"/><glyph d="M158 601v228h1085V601H158zm7 0z" unicode="–" horiz-adv-x="1372"/><glyph d="M128 601v228h1334V601H128zm38 0z" unicode="—" horiz-adv-x="1595"/><glyph d="M128 601v228h1334V601H128zm38 0z" unicode="―" horiz-adv-x="1595"/><glyph d="M92 0h910v-186H92V0zm0 0zm0-261h910v-186H92v186z" unicode="‗" horiz-adv-x="1110"/><glyph d="M96 1009v193q0 99 52.5 209T279 1592l144-78q-40-70-60.5-144.5T342 1202v-193H96z" unicode="‘" horiz-adv-x="480"/><glyph d="M59 1057q39 69 60 143.5t21 168.5v191h245v-191q0-100-53-210.5T203 978z" unicode="’" horiz-adv-x="471"/><glyph d="M67-245q39 70 60 144.5T148 66v221h246l-1-220q0-99-53-209.5T211-323z" unicode="‚" horiz-adv-x="510"/><glyph d="M81 978zm0 391q0-100 53-210.5T263 978l144 79q-39 69-60 143.5T326 1369v191H81v-191z" unicode="‛" horiz-adv-x="523"/><glyph d="M101 1009v193q0 99 52.5 209T284 1592l144-78q-40-70-60.5-144.5T347 1202v-193H101zm0 0zm337 0v193q0 99 52.5 209T621 1592l144-78q-40-70-60.5-144.5T684 1202v-193H438z" unicode="“" horiz-adv-x="833"/><glyph d="M73 978zm0 79q39 69 60 143.5t21 168.5v191h245v-191q0-100-53-210.5T217 978zm340 0q39 69 60 143.5t21 168.5v191h245v-191q0-100-53-210.5T557 978z" unicode="”" horiz-adv-x="840"/><glyph d="M67-245q39 70 60 144.5T148 66v221h246l-1-220q0-99-53-209.5T211-323zm337 0q39 70 60 144.5T485 66v221h246l-1-220q0-99-53-209.5T548-323z" unicode="„" horiz-adv-x="827"/><glyph d="M49 850v232h346v374h292v-374h351V850H687V0H395v850H49z" unicode="†" horiz-adv-x="1097"/><glyph d="M69 0v224h345v632H69v226h345v374h293v-374h351V856H707V224h351V0H707v-416H414V0H69z" unicode="‡" horiz-adv-x="1136"/><glyph d="M120 716v90q0 100 64.5 164t172.5 64q110 0 174.5-63.5T596 806v-90q0-101-64.5-163T358 491t-173.5 62T120 716z" unicode="•" horiz-adv-x="703"/><glyph d="M137 0v256h291V0H137zm0 0zm473 0v256h291V0H610z" unicode="‥" horiz-adv-x="1003"/><glyph d="M137 0v256h291V0H137zm0 0zm473 0v256h291V0H610zm465 0v256h291V0h-291z" unicode="…" horiz-adv-x="1461"/><glyph horiz-adv-x="424"/><glyph d="M57 1099v77q0 127 82 214t219 87q145 0 231-86.5t86-214.5v-77q0-127-86-213t-229-86q-138 0-220.5 86T57 1099zm179 0q0-58 32-97.5t92-39.5q58 0 90 39.5t32 97.5v77q0 58-32.5 98.5T358 1315q-60 0-91-40.5t-31-98.5v-77zm98-915l711 1138 142-75L476 109zm448 96v77q0 127 86.5 213.5T1098 657q74 0 131.5-28t96.5-77q37 49 95 77t132 28q144 0 230.5-86.5T1870 357v-77q0-128-86-214t-229-86q-75 0-133.5 27.5T1326 85q-38-50-96-77.5T1100-20q-145 0-231.5 86T782 280zm193 0q0-57 34.5-97.5T1100 142q65 0 93 37.5t28 100.5v77q0 57-32 97.5t-91 40.5q-60 0-91.5-40.5T975 357v-77zm455 0q0-57 34.5-97.5T1555 142q65 0 93 37.5t28 100.5v77q0 57-32 97.5t-91 40.5q-60 0-91.5-40.5T1430 357v-77z" unicode="‰" horiz-adv-x="1921"/><glyph d="M139 1008v552h199v-269l-70-283H139zm0 0z" unicode="′" horiz-adv-x="449"/><glyph d="M140 1039v521h206v-272l-77-249H140zm0 0zm327 0v521h205v-272l-77-249H467z" unicode="″" horiz-adv-x="782"/><glyph d="M44 541v19l280 390h187L271 550l240-399H324z" unicode="‹" horiz-adv-x="570"/><glyph d="M71 151l239 399L71 950h187l280-390v-19L258 151H71z" unicode="›" horiz-adv-x="576"/><glyph d="M119 0v256h292V0H119zm0 0zm0 502v954h292V502H119zM626 0v256h292V0H626zm0 502v954h292V502H626z" unicode="‼" horiz-adv-x="1014"/><glyph d="M21 184l711 1138 142-75L163 109z" unicode="⁄" horiz-adv-x="882"/><glyph horiz-adv-x="530"/><glyph d="M31 0zm0 300v155h701V300H31zM56 0v175l155 30v1045l-155 30v176h1159v-399H991l-13 174H503V830h510V605H503V205l156-30V0H56z" unicode="₣" horiz-adv-x="1265"/><glyph d="M74 748v172h153l-3 107q0 210 120.5 330T667 1477q215 0 333.5-111.5T1115 1071l-2-6H828q0 96-46 141.5T666 1252q-71 0-111-59t-40-166l4-107h357V748H525l4-118h352V458H536v-2q0-72-18-129.5T464 224h438l12 144h223V0H140v224h10q48 13 71 81t23 151v2H77v172h160l-4 118H74z" unicode="₤" horiz-adv-x="1201"/><glyph d="M65 0v175l156 30v1046l-156 30v175h556q254 0 396-128.5T1159 995q0-212-142-343T621 521h-94V205l156-30V0H65zm462 762h94q116 0 173.5 67T852 993q0 93-57.5 157.5T621 1215h-94V762zm523 115v205h159v265h291v-265h190V877h-190V326q0-63 26-90t70-27q30 0 52.5 2.5t50.5 8.5l25-211q-49-15-97-22.5T1523-21q-151 0-232.5 83T1209 325v552h-159z" unicode="₧" horiz-adv-x="1780"/><glyph d="M67 0zm0 511v21q0 256 111 413t312 157q81 0 146-35.5T750 966v388l-156 30v176h448V205l140-30V0H789l-22 132Q716 57 646.5 18T488-21q-200 0-310.5 146T67 511zm16-640h910v-186H83v186zm276 640q0-142 47.5-223.5T562 206q64 0 111 26t77 75v459q-30 52-76.5 80.5T564 875q-107 0-156-95t-49-248v-21zm180 621v155h701v-155H539z" unicode="₫" horiz-adv-x="1242"/><glyph d="M58 485v153h146v150H58v153h146v13q0 238 150.5 380.5T749 1477q60 0 117.5-8t125.5-23l-21-229q-53 16-109.5 25.5T749 1252q-118 0-185.5-79T496 956v-15h428V788H496V638h428V485H496v-8q0-132 67.5-203T751 203q58 0 113.5 8.5T971 237l21-227Q935-5 874-13t-123-8q-245 0-396 135T204 477v8H58z" unicode="€" horiz-adv-x="1063"/><glyph d="M76 1351v105h398v-105H346V917H202v434H76zm469-436v541h159l119-362h6l120 362h154V915H974v282l-6 1-105-283h-73l-110 298-6-1V915H545z" unicode="™" horiz-adv-x="1239"/><glyph d="M0 0v1080h1080V0H0z" unicode="◼" horiz-adv-x="1080"/></font>
</defs>
</svg>
